%TF.GenerationSoftware,KiCad,Pcbnew,10.0.4*%
%TF.CreationDate,2026-07-01T17:27:19-04:00*%
%TF.ProjectId,pulsed_current_test_circuit,70756c73-6564-45f6-9375-7272656e745f,rev?*%
%TF.SameCoordinates,Original*%
%TF.FileFunction,Copper,L1,Top*%
%TF.FilePolarity,Positive*%
%FSLAX46Y46*%
G04 Gerber Fmt 4.6, Leading zero omitted, Abs format (unit mm)*
G04 Created by KiCad (PCBNEW 10.0.4) date 2026-07-01 17:27:19*
%MOMM*%
%LPD*%
G01*
G04 APERTURE LIST*
G04 Aperture macros list*
%AMRoundRect*
0 Rectangle with rounded corners*
0 $1 Rounding radius*
0 $2 $3 $4 $5 $6 $7 $8 $9 X,Y pos of 4 corners*
0 Add a 4 corners polygon primitive as box body*
4,1,4,$2,$3,$4,$5,$6,$7,$8,$9,$2,$3,0*
0 Add four circle primitives for the rounded corners*
1,1,$1+$1,$2,$3*
1,1,$1+$1,$4,$5*
1,1,$1+$1,$6,$7*
1,1,$1+$1,$8,$9*
0 Add four rect primitives between the rounded corners*
20,1,$1+$1,$2,$3,$4,$5,0*
20,1,$1+$1,$4,$5,$6,$7,0*
20,1,$1+$1,$6,$7,$8,$9,0*
20,1,$1+$1,$8,$9,$2,$3,0*%
G04 Aperture macros list end*
%TA.AperFunction,SMDPad,CuDef*%
%ADD10RoundRect,0.150000X0.825000X0.150000X-0.825000X0.150000X-0.825000X-0.150000X0.825000X-0.150000X0*%
%TD*%
%TA.AperFunction,SMDPad,CuDef*%
%ADD11RoundRect,0.200000X-0.275000X0.200000X-0.275000X-0.200000X0.275000X-0.200000X0.275000X0.200000X0*%
%TD*%
%TA.AperFunction,SMDPad,CuDef*%
%ADD12R,1.500000X1.500000*%
%TD*%
%TA.AperFunction,SMDPad,CuDef*%
%ADD13RoundRect,0.225000X0.375000X-0.225000X0.375000X0.225000X-0.375000X0.225000X-0.375000X-0.225000X0*%
%TD*%
%TA.AperFunction,ViaPad*%
%ADD14C,0.600000*%
%TD*%
%TA.AperFunction,Conductor*%
%ADD15C,0.500000*%
%TD*%
%TA.AperFunction,Conductor*%
%ADD16C,0.350000*%
%TD*%
%TA.AperFunction,Conductor*%
%ADD17C,0.200000*%
%TD*%
G04 APERTURE END LIST*
D10*
%TO.P,CR1,1,ADJ_1*%
%TO.N,Net-(CR1-ADJ)*%
X187175000Y-51530000D03*
%TO.P,CR1,2,NC_2*%
%TO.N,unconnected-(CR1-NC-Pad2)*%
X187175000Y-50260000D03*
%TO.P,CR1,3,NC_3*%
%TO.N,unconnected-(CR1-NC-Pad3)*%
X187175000Y-48990000D03*
%TO.P,CR1,4,V+_4*%
%TO.N,/5V_SW*%
X187175000Y-47720000D03*
%TO.P,CR1,5,NC_5*%
%TO.N,unconnected-(CR1-NC-Pad5)*%
X182225000Y-47720000D03*
%TO.P,CR1,6,V-_6*%
%TO.N,Net-(CR1-V-)*%
X182225000Y-48990000D03*
%TO.P,CR1,7,NC_7*%
%TO.N,unconnected-(CR1-NC-Pad7)*%
X182225000Y-50260000D03*
%TO.P,CR1,8,NC_8*%
%TO.N,unconnected-(CR1-NC-Pad8)*%
X182225000Y-51530000D03*
%TD*%
D11*
%TO.P,R2,1*%
%TO.N,Net-(CR1-ADJ)*%
X189360000Y-56375000D03*
%TO.P,R2,2*%
%TO.N,Net-(D1-K)*%
X189360000Y-58025000D03*
%TD*%
D10*
%TO.P,CR2,1,ADJ_1*%
%TO.N,Net-(CR2-ADJ)*%
X186555000Y-68595000D03*
%TO.P,CR2,2,NC_2*%
%TO.N,unconnected-(CR2-NC-Pad2)*%
X186555000Y-67325000D03*
%TO.P,CR2,3,NC_3*%
%TO.N,unconnected-(CR2-NC-Pad3)*%
X186555000Y-66055000D03*
%TO.P,CR2,4,V+_4*%
%TO.N,/5V_SW*%
X186555000Y-64785000D03*
%TO.P,CR2,5,NC_5*%
%TO.N,unconnected-(CR2-NC-Pad5)*%
X181605000Y-64785000D03*
%TO.P,CR2,6,V-_6*%
%TO.N,Net-(CR2-V-)*%
X181605000Y-66055000D03*
%TO.P,CR2,7,NC_7*%
%TO.N,unconnected-(CR2-NC-Pad7)*%
X181605000Y-67325000D03*
%TO.P,CR2,8,NC_8*%
%TO.N,unconnected-(CR2-NC-Pad8)*%
X181605000Y-68595000D03*
%TD*%
D12*
%TO.P,TP6,1,1_1*%
%TO.N,GND*%
X176850000Y-79450000D03*
%TD*%
D11*
%TO.P,R5,1*%
%TO.N,Net-(CR3-ADJ)*%
X189660000Y-83325000D03*
%TO.P,R5,2*%
%TO.N,Net-(CR3-V-)*%
X189660000Y-84975000D03*
%TD*%
D13*
%TO.P,D1,1,K_1*%
%TO.N,Net-(D1-K)*%
X184770000Y-58017500D03*
%TO.P,D1,2,A_2*%
%TO.N,Net-(CR1-V-)*%
X184770000Y-54717500D03*
%TD*%
%TO.P,D3,1,K_1*%
%TO.N,Net-(D3-K)*%
X184200000Y-90187500D03*
%TO.P,D3,2,A_2*%
%TO.N,Net-(CR3-V-)*%
X184200000Y-86887500D03*
%TD*%
D12*
%TO.P,TP1,1,1_1*%
%TO.N,/P1+*%
X173450000Y-57200000D03*
%TD*%
D11*
%TO.P,R4,1*%
%TO.N,Net-(CR2-ADJ)*%
X189760000Y-73235000D03*
%TO.P,R4,2*%
%TO.N,Net-(D2-K)*%
X189760000Y-74885000D03*
%TD*%
D12*
%TO.P,TP5,1,1_1*%
%TO.N,/P3+*%
X173900000Y-86650000D03*
%TD*%
D13*
%TO.P,D2,1,K_1*%
%TO.N,Net-(D2-K)*%
X184090000Y-74870000D03*
%TO.P,D2,2,A_2*%
%TO.N,Net-(CR2-V-)*%
X184090000Y-71570000D03*
%TD*%
D12*
%TO.P,TP4,1,1_1*%
%TO.N,GND*%
X175650000Y-66500000D03*
%TD*%
D10*
%TO.P,CR3,1,ADJ_1*%
%TO.N,Net-(CR3-ADJ)*%
X186415000Y-83355000D03*
%TO.P,CR3,2,NC_2*%
%TO.N,unconnected-(CR3-NC-Pad2)*%
X186415000Y-82085000D03*
%TO.P,CR3,3,NC_3*%
%TO.N,unconnected-(CR3-NC-Pad3)*%
X186415000Y-80815000D03*
%TO.P,CR3,4,V+_4*%
%TO.N,/5V_SW*%
X186415000Y-79545000D03*
%TO.P,CR3,5,NC_5*%
%TO.N,unconnected-(CR3-NC-Pad5)*%
X181465000Y-79545000D03*
%TO.P,CR3,6,V-_6*%
%TO.N,Net-(CR3-V-)*%
X181465000Y-80815000D03*
%TO.P,CR3,7,NC_7*%
%TO.N,unconnected-(CR3-NC-Pad7)*%
X181465000Y-82085000D03*
%TO.P,CR3,8,NC_8*%
%TO.N,unconnected-(CR3-NC-Pad8)*%
X181465000Y-83355000D03*
%TD*%
D12*
%TO.P,TP3,1,1_1*%
%TO.N,/P2+*%
X174250000Y-72800000D03*
%TD*%
%TO.P,TP2,1,1_1*%
%TO.N,GND*%
X175850000Y-51100000D03*
%TD*%
D11*
%TO.P,R3,1*%
%TO.N,Net-(CR2-ADJ)*%
X189720000Y-68605000D03*
%TO.P,R3,2*%
%TO.N,Net-(CR2-V-)*%
X189720000Y-70255000D03*
%TD*%
D10*
%TO.P,U3,1,DN1_1*%
%TO.N,/P3+*%
X170955000Y-83255000D03*
%TO.P,U3,2,GN1_2*%
%TO.N,Net-(D3-K)*%
X170955000Y-81985000D03*
%TO.P,U3,3,SN1_3*%
%TO.N,GND*%
X170955000Y-80715000D03*
%TO.P,U3,4,V-_4*%
X170955000Y-79445000D03*
%TO.P,U3,5,V+_5*%
%TO.N,/5V_SW*%
X166005000Y-79445000D03*
%TO.P,U3,6,SN2_6*%
%TO.N,GND*%
X166005000Y-80715000D03*
%TO.P,U3,7,GN2_7*%
%TO.N,Net-(D3-K)*%
X166005000Y-81985000D03*
%TO.P,U3,8,DN2_8*%
X166005000Y-83255000D03*
%TD*%
D11*
%TO.P,R1,1*%
%TO.N,Net-(CR1-ADJ)*%
X189840000Y-51545000D03*
%TO.P,R1,2*%
%TO.N,Net-(CR1-V-)*%
X189840000Y-53195000D03*
%TD*%
D10*
%TO.P,U2,1,DN1_1*%
%TO.N,/P2+*%
X170585000Y-70320000D03*
%TO.P,U2,2,GN1_2*%
%TO.N,Net-(D2-K)*%
X170585000Y-69050000D03*
%TO.P,U2,3,SN1_3*%
%TO.N,GND*%
X170585000Y-67780000D03*
%TO.P,U2,4,V-_4*%
X170585000Y-66510000D03*
%TO.P,U2,5,V+_5*%
%TO.N,/5V_SW*%
X165635000Y-66510000D03*
%TO.P,U2,6,SN2_6*%
%TO.N,GND*%
X165635000Y-67780000D03*
%TO.P,U2,7,GN2_7*%
%TO.N,Net-(D2-K)*%
X165635000Y-69050000D03*
%TO.P,U2,8,DN2_8*%
X165635000Y-70320000D03*
%TD*%
%TO.P,U1,1,DN1_1*%
%TO.N,/P1+*%
X170450000Y-54905000D03*
%TO.P,U1,2,GN1_2*%
%TO.N,Net-(D1-K)*%
X170450000Y-53635000D03*
%TO.P,U1,3,SN1_3*%
%TO.N,GND*%
X170450000Y-52365000D03*
%TO.P,U1,4,V-_4*%
X170450000Y-51095000D03*
%TO.P,U1,5,V+_5*%
%TO.N,/5V_SW*%
X165500000Y-51095000D03*
%TO.P,U1,6,SN2_6*%
%TO.N,GND*%
X165500000Y-52365000D03*
%TO.P,U1,7,GN2_7*%
%TO.N,Net-(D1-K)*%
X165500000Y-53635000D03*
%TO.P,U1,8,DN2_8*%
X165500000Y-54905000D03*
%TD*%
D11*
%TO.P,R6,1*%
%TO.N,Net-(CR3-ADJ)*%
X189630000Y-88525000D03*
%TO.P,R6,2*%
%TO.N,Net-(D3-K)*%
X189630000Y-90175000D03*
%TD*%
D14*
%TO.N,GND*%
X161830000Y-67800000D03*
X162800000Y-80700000D03*
X172905000Y-51095000D03*
X174130000Y-79440000D03*
X173170000Y-66500000D03*
X174120000Y-80630000D03*
X172865000Y-52365000D03*
X173170000Y-67810000D03*
X162050000Y-52400000D03*
%TO.N,/P2+*%
X162830000Y-69010000D03*
%TO.N,/P3+*%
X162880000Y-71540000D03*
%TO.N,/P1+*%
X162850000Y-66460000D03*
%TO.N,/5V_SW*%
X189000000Y-66500000D03*
%TD*%
%TO.N,Net-(CR1-V-)*%
D15*
X184770000Y-54717500D02*
X184770000Y-49980000D01*
X187795000Y-53195000D02*
X189840000Y-53195000D01*
X184770000Y-49980000D02*
X183780000Y-48990000D01*
X183780000Y-48990000D02*
X182225000Y-48990000D01*
X184770000Y-54717500D02*
X186272500Y-54717500D01*
X186272500Y-54717500D02*
X187795000Y-53195000D01*
%TO.N,Net-(D1-K)*%
D16*
X165500000Y-54905000D02*
X165500000Y-53635000D01*
D17*
X170585000Y-53500000D02*
X170450000Y-53635000D01*
D15*
X189360000Y-58025000D02*
X184777500Y-58025000D01*
X179297500Y-58017500D02*
X184770000Y-58017500D01*
X170450000Y-53635000D02*
X174915000Y-53635000D01*
D16*
X165500000Y-53635000D02*
X170450000Y-53635000D01*
D15*
X174915000Y-53635000D02*
X179297500Y-58017500D01*
D17*
X184777500Y-58025000D02*
X184770000Y-58017500D01*
%TO.N,Net-(CR2-V-)*%
D15*
X184090000Y-71570000D02*
X186280000Y-71570000D01*
X187595000Y-70255000D02*
X189720000Y-70255000D01*
X183265000Y-66055000D02*
X181605000Y-66055000D01*
X184090000Y-66880000D02*
X183265000Y-66055000D01*
D17*
X181530000Y-65980000D02*
X181605000Y-66055000D01*
D15*
X186280000Y-71570000D02*
X187595000Y-70255000D01*
X184090000Y-71570000D02*
X184090000Y-66880000D01*
%TO.N,Net-(D2-K)*%
D17*
X177020000Y-69040000D02*
X177010000Y-69050000D01*
D15*
X177010000Y-69050000D02*
X170585000Y-69050000D01*
D17*
X165635000Y-70320000D02*
X165635000Y-69050000D01*
D15*
X189760000Y-74885000D02*
X184105000Y-74885000D01*
X184090000Y-74870000D02*
X182850000Y-74870000D01*
D17*
X184105000Y-74885000D02*
X184090000Y-74870000D01*
D16*
X165635000Y-69050000D02*
X170585000Y-69050000D01*
D15*
X182850000Y-74870000D02*
X177020000Y-69040000D01*
%TO.N,Net-(CR3-V-)*%
X186012500Y-86887500D02*
X187925000Y-84975000D01*
X184200000Y-81710000D02*
X184200000Y-86887500D01*
X181465000Y-80815000D02*
X183305000Y-80815000D01*
X183305000Y-80815000D02*
X184200000Y-81710000D01*
X187925000Y-84975000D02*
X189660000Y-84975000D01*
X184200000Y-86887500D02*
X186012500Y-86887500D01*
%TO.N,Net-(D3-K)*%
D17*
X184212500Y-90175000D02*
X184200000Y-90187500D01*
X182060000Y-90190000D02*
X182062500Y-90187500D01*
D15*
X182062500Y-90187500D02*
X184200000Y-90187500D01*
D16*
X166005000Y-81985000D02*
X170955000Y-81985000D01*
D15*
X170955000Y-81985000D02*
X173855000Y-81985000D01*
D17*
X170980000Y-81960000D02*
X170955000Y-81985000D01*
D15*
X189630000Y-90175000D02*
X184212500Y-90175000D01*
D16*
X166005000Y-83255000D02*
X166005000Y-81985000D01*
D15*
X173855000Y-81985000D02*
X182060000Y-90190000D01*
%TO.N,GND*%
D17*
X173160000Y-66510000D02*
X173170000Y-66500000D01*
D16*
X170450000Y-51095000D02*
X172905000Y-51095000D01*
D17*
X174140000Y-79450000D02*
X176850000Y-79450000D01*
X174120000Y-80630000D02*
X174035000Y-80715000D01*
X162050000Y-52400000D02*
X162085000Y-52365000D01*
D16*
X170450000Y-52365000D02*
X172865000Y-52365000D01*
X161850000Y-67780000D02*
X165635000Y-67780000D01*
D17*
X161830000Y-67800000D02*
X161850000Y-67780000D01*
X174130000Y-79440000D02*
X174140000Y-79450000D01*
X173170000Y-66500000D02*
X175650000Y-66500000D01*
D16*
X174125000Y-79445000D02*
X170955000Y-79445000D01*
X162815000Y-80715000D02*
X166005000Y-80715000D01*
X173140000Y-67780000D02*
X170585000Y-67780000D01*
X162085000Y-52365000D02*
X165500000Y-52365000D01*
X174035000Y-80715000D02*
X170955000Y-80715000D01*
X170585000Y-66510000D02*
X173160000Y-66510000D01*
X172905000Y-51095000D02*
X175845000Y-51095000D01*
X175845000Y-51095000D02*
X175850000Y-51100000D01*
D17*
X173170000Y-67810000D02*
X173140000Y-67780000D01*
X174130000Y-79440000D02*
X174125000Y-79445000D01*
%TO.N,/P2+*%
D16*
X170585000Y-70320000D02*
X173670000Y-70320000D01*
X174250000Y-70900000D02*
X174250000Y-72800000D01*
X164490000Y-71720000D02*
X167260000Y-71720000D01*
X168660000Y-70320000D02*
X170585000Y-70320000D01*
X162830000Y-69010000D02*
X164090000Y-70270000D01*
X164090000Y-71320000D02*
X164490000Y-71720000D01*
X164090000Y-70270000D02*
X164090000Y-71320000D01*
X167260000Y-71720000D02*
X168660000Y-70320000D01*
X173670000Y-70320000D02*
X174250000Y-70900000D01*
%TO.N,/P3+*%
D15*
X173900000Y-84500000D02*
X173900000Y-86650000D01*
X162940000Y-84520000D02*
X161820000Y-83400000D01*
X170955000Y-83255000D02*
X168925000Y-83255000D01*
X168925000Y-83255000D02*
X167660000Y-84520000D01*
X161820000Y-72600000D02*
X162880000Y-71540000D01*
X170955000Y-83255000D02*
X172655000Y-83255000D01*
X167660000Y-84520000D02*
X162940000Y-84520000D01*
X161820000Y-83400000D02*
X161820000Y-72600000D01*
X172655000Y-83255000D02*
X173900000Y-84500000D01*
%TO.N,/P1+*%
X167975000Y-54905000D02*
X170450000Y-54905000D01*
X162850000Y-60030000D02*
X167975000Y-54905000D01*
X173450000Y-55450000D02*
X173450000Y-57200000D01*
X173500000Y-55400000D02*
X173450000Y-55450000D01*
X170450000Y-54905000D02*
X173005000Y-54905000D01*
X162850000Y-66460000D02*
X162850000Y-60030000D01*
X173005000Y-54905000D02*
X173500000Y-55400000D01*
%TO.N,Net-(CR1-ADJ)*%
X189360000Y-56375000D02*
X190685000Y-56375000D01*
X189840000Y-51545000D02*
X187190000Y-51545000D01*
X190685000Y-56375000D02*
X191320000Y-55740000D01*
X191320000Y-52010000D02*
X190855000Y-51545000D01*
X191320000Y-55740000D02*
X191320000Y-52010000D01*
X190855000Y-51545000D02*
X189840000Y-51545000D01*
X187190000Y-51545000D02*
X187175000Y-51530000D01*
%TO.N,Net-(CR2-ADJ)*%
X189720000Y-68605000D02*
X190485000Y-68605000D01*
X190775000Y-73235000D02*
X189760000Y-73235000D01*
D17*
X186550000Y-68600000D02*
X186555000Y-68595000D01*
D15*
X191320000Y-69440000D02*
X191320000Y-72690000D01*
X190485000Y-68605000D02*
X191320000Y-69440000D01*
X191320000Y-72690000D02*
X190775000Y-73235000D01*
D17*
X189710000Y-68595000D02*
X189720000Y-68605000D01*
D15*
X186555000Y-68595000D02*
X189710000Y-68595000D01*
%TO.N,Net-(CR3-ADJ)*%
X191490000Y-85770000D02*
X189630000Y-87630000D01*
X191490000Y-83990000D02*
X191490000Y-85770000D01*
X190825000Y-83325000D02*
X191490000Y-83990000D01*
D17*
X189630000Y-83355000D02*
X189660000Y-83325000D01*
D15*
X189630000Y-87630000D02*
X189630000Y-88525000D01*
X189660000Y-83325000D02*
X190825000Y-83325000D01*
X186415000Y-83355000D02*
X189630000Y-83355000D01*
%TD*%
%TA.AperFunction,Conductor*%
%TO.N,/5V_SW*%
G36*
X192442539Y-44520185D02*
G01*
X192488294Y-44572989D01*
X192499500Y-44624500D01*
X192499500Y-93375500D01*
X192479815Y-93442539D01*
X192427011Y-93488294D01*
X192375500Y-93499500D01*
X143624500Y-93499500D01*
X143557461Y-93479815D01*
X143511706Y-93427011D01*
X143500500Y-93375500D01*
X143500500Y-67721153D01*
X161029500Y-67721153D01*
X161029500Y-67878846D01*
X161060261Y-68033489D01*
X161060264Y-68033501D01*
X161120602Y-68179172D01*
X161120609Y-68179185D01*
X161208210Y-68310288D01*
X161208213Y-68310292D01*
X161319707Y-68421786D01*
X161319711Y-68421789D01*
X161450814Y-68509390D01*
X161450827Y-68509397D01*
X161562303Y-68555571D01*
X161596503Y-68569737D01*
X161751153Y-68600499D01*
X161751156Y-68600500D01*
X161751158Y-68600500D01*
X161908844Y-68600500D01*
X161920263Y-68598228D01*
X161925773Y-68597132D01*
X161995365Y-68603356D01*
X162050544Y-68646217D01*
X162073791Y-68712106D01*
X162064531Y-68766198D01*
X162060264Y-68776498D01*
X162060261Y-68776510D01*
X162029500Y-68931153D01*
X162029500Y-69088846D01*
X162060261Y-69243489D01*
X162060264Y-69243501D01*
X162120602Y-69389172D01*
X162120609Y-69389185D01*
X162208210Y-69520288D01*
X162208213Y-69520292D01*
X162319707Y-69631786D01*
X162319711Y-69631789D01*
X162450814Y-69719390D01*
X162450827Y-69719397D01*
X162513086Y-69745185D01*
X162596503Y-69779737D01*
X162619443Y-69784300D01*
X162681353Y-69816682D01*
X162682935Y-69818236D01*
X163378181Y-70513482D01*
X163392884Y-70540409D01*
X163409477Y-70566228D01*
X163410368Y-70572428D01*
X163411666Y-70574805D01*
X163414500Y-70601163D01*
X163414500Y-70709362D01*
X163394815Y-70776401D01*
X163342011Y-70822156D01*
X163272853Y-70832100D01*
X163243048Y-70823924D01*
X163184842Y-70799815D01*
X163113497Y-70770263D01*
X163113492Y-70770262D01*
X163113489Y-70770261D01*
X162958845Y-70739500D01*
X162958842Y-70739500D01*
X162801158Y-70739500D01*
X162801155Y-70739500D01*
X162646510Y-70770261D01*
X162646498Y-70770264D01*
X162500827Y-70830602D01*
X162500814Y-70830609D01*
X162369711Y-70918210D01*
X162369707Y-70918213D01*
X162258213Y-71029707D01*
X162258207Y-71029715D01*
X162170607Y-71160818D01*
X162170606Y-71160819D01*
X162160805Y-71184480D01*
X162133927Y-71224703D01*
X161237047Y-72121584D01*
X161237043Y-72121589D01*
X161191002Y-72190498D01*
X161191001Y-72190500D01*
X161172958Y-72217502D01*
X161154916Y-72244504D01*
X161154912Y-72244511D01*
X161098343Y-72381082D01*
X161098340Y-72381092D01*
X161069500Y-72526079D01*
X161069500Y-72526082D01*
X161069500Y-83473918D01*
X161069500Y-83473920D01*
X161069499Y-83473920D01*
X161098340Y-83618907D01*
X161098343Y-83618917D01*
X161154913Y-83755490D01*
X161154914Y-83755491D01*
X161154916Y-83755495D01*
X161161530Y-83765393D01*
X161165334Y-83771086D01*
X161165335Y-83771089D01*
X161237046Y-83878414D01*
X161237052Y-83878421D01*
X162357049Y-84998416D01*
X162461583Y-85102950D01*
X162461585Y-85102952D01*
X162584498Y-85185080D01*
X162584511Y-85185087D01*
X162696843Y-85231616D01*
X162721087Y-85241658D01*
X162721091Y-85241658D01*
X162721092Y-85241659D01*
X162866079Y-85270500D01*
X162866082Y-85270500D01*
X167733920Y-85270500D01*
X167831462Y-85251096D01*
X167878913Y-85241658D01*
X168015495Y-85185084D01*
X168064729Y-85152186D01*
X168138416Y-85102952D01*
X169199548Y-84041818D01*
X169260871Y-84008334D01*
X169287229Y-84005500D01*
X169847672Y-84005500D01*
X169882267Y-84010424D01*
X170027426Y-84052597D01*
X170027429Y-84052597D01*
X170027431Y-84052598D01*
X170064306Y-84055500D01*
X170064314Y-84055500D01*
X171845686Y-84055500D01*
X171845694Y-84055500D01*
X171882569Y-84052598D01*
X171882571Y-84052597D01*
X171882573Y-84052597D01*
X172027733Y-84010424D01*
X172062328Y-84005500D01*
X172292770Y-84005500D01*
X172359809Y-84025185D01*
X172380451Y-84041819D01*
X173113181Y-84774549D01*
X173146666Y-84835872D01*
X173149500Y-84862230D01*
X173149500Y-85283023D01*
X173129815Y-85350062D01*
X173077011Y-85395817D01*
X173049865Y-85403266D01*
X173050068Y-85404124D01*
X173042520Y-85405907D01*
X172907671Y-85456202D01*
X172907664Y-85456206D01*
X172792455Y-85542452D01*
X172792452Y-85542455D01*
X172706206Y-85657664D01*
X172706202Y-85657671D01*
X172655908Y-85792517D01*
X172650382Y-85843920D01*
X172649501Y-85852123D01*
X172649500Y-85852135D01*
X172649500Y-87447870D01*
X172649501Y-87447876D01*
X172655908Y-87507483D01*
X172706202Y-87642328D01*
X172706206Y-87642335D01*
X172792452Y-87757544D01*
X172792455Y-87757547D01*
X172907664Y-87843793D01*
X172907671Y-87843797D01*
X173042517Y-87894091D01*
X173042516Y-87894091D01*
X173049444Y-87894835D01*
X173102127Y-87900500D01*
X174697872Y-87900499D01*
X174757483Y-87894091D01*
X174892331Y-87843796D01*
X175007546Y-87757546D01*
X175093796Y-87642331D01*
X175144091Y-87507483D01*
X175150500Y-87447873D01*
X175150499Y-85852128D01*
X175144091Y-85792517D01*
X175132641Y-85761819D01*
X175093797Y-85657671D01*
X175093793Y-85657664D01*
X175007547Y-85542455D01*
X175007544Y-85542452D01*
X174892335Y-85456206D01*
X174892328Y-85456202D01*
X174757482Y-85405908D01*
X174749938Y-85404126D01*
X174750474Y-85401853D01*
X174696688Y-85379571D01*
X174656843Y-85322177D01*
X174650500Y-85283024D01*
X174650500Y-84426079D01*
X174621659Y-84281092D01*
X174621658Y-84281091D01*
X174621658Y-84281087D01*
X174598219Y-84224500D01*
X174565087Y-84144511D01*
X174565085Y-84144507D01*
X174565084Y-84144505D01*
X174519750Y-84076658D01*
X174483133Y-84021855D01*
X174462258Y-83955179D01*
X174480744Y-83887799D01*
X174532724Y-83841110D01*
X174601694Y-83829935D01*
X174665757Y-83857822D01*
X174673919Y-83865287D01*
X181581580Y-90772948D01*
X181581584Y-90772951D01*
X181704498Y-90855080D01*
X181704511Y-90855087D01*
X181841082Y-90911656D01*
X181841087Y-90911658D01*
X181841091Y-90911658D01*
X181841092Y-90911659D01*
X181986079Y-90940500D01*
X181986082Y-90940500D01*
X182133917Y-90940500D01*
X182134505Y-90940382D01*
X182158699Y-90938000D01*
X183273126Y-90938000D01*
X183340165Y-90957685D01*
X183360807Y-90974319D01*
X183371955Y-90985467D01*
X183371959Y-90985470D01*
X183516294Y-91074498D01*
X183516297Y-91074499D01*
X183516303Y-91074503D01*
X183677292Y-91127849D01*
X183776655Y-91138000D01*
X184623344Y-91137999D01*
X184623352Y-91137998D01*
X184623355Y-91137998D01*
X184677760Y-91132440D01*
X184722708Y-91127849D01*
X184883697Y-91074503D01*
X185028044Y-90985468D01*
X185051693Y-90961819D01*
X185113016Y-90928334D01*
X185139374Y-90925500D01*
X188877023Y-90925500D01*
X188941171Y-90943382D01*
X189065394Y-91018478D01*
X189227804Y-91069086D01*
X189298384Y-91075500D01*
X189298387Y-91075500D01*
X189961613Y-91075500D01*
X189961616Y-91075500D01*
X190032196Y-91069086D01*
X190194606Y-91018478D01*
X190340185Y-90930472D01*
X190460472Y-90810185D01*
X190548478Y-90664606D01*
X190599086Y-90502196D01*
X190605500Y-90431616D01*
X190605500Y-89918384D01*
X190599086Y-89847804D01*
X190548478Y-89685394D01*
X190460472Y-89539815D01*
X190460470Y-89539813D01*
X190460469Y-89539811D01*
X190358339Y-89437681D01*
X190324854Y-89376358D01*
X190329838Y-89306666D01*
X190358339Y-89262319D01*
X190460468Y-89160189D01*
X190460469Y-89160188D01*
X190460472Y-89160185D01*
X190548478Y-89014606D01*
X190599086Y-88852196D01*
X190605500Y-88781616D01*
X190605500Y-88268384D01*
X190599086Y-88197804D01*
X190548478Y-88035394D01*
X190499833Y-87954926D01*
X190481997Y-87887374D01*
X190503514Y-87820901D01*
X190518264Y-87803102D01*
X192072951Y-86248416D01*
X192155084Y-86125495D01*
X192211658Y-85988913D01*
X192234218Y-85875500D01*
X192240500Y-85843920D01*
X192240500Y-83916079D01*
X192211659Y-83771092D01*
X192211658Y-83771088D01*
X192211658Y-83771087D01*
X192209299Y-83765393D01*
X192155085Y-83634508D01*
X192155084Y-83634505D01*
X192119745Y-83581616D01*
X192119745Y-83581615D01*
X192072950Y-83511581D01*
X191303421Y-82742052D01*
X191303414Y-82742046D01*
X191220908Y-82686918D01*
X191220908Y-82686919D01*
X191180491Y-82659913D01*
X191043917Y-82603343D01*
X191043907Y-82603340D01*
X190898920Y-82574500D01*
X190898918Y-82574500D01*
X190412977Y-82574500D01*
X190348828Y-82556617D01*
X190224606Y-82481522D01*
X190062196Y-82430914D01*
X190062194Y-82430913D01*
X190062192Y-82430913D01*
X190012778Y-82426423D01*
X189991616Y-82424500D01*
X189328384Y-82424500D01*
X189309145Y-82426248D01*
X189257807Y-82430913D01*
X189095393Y-82481522D01*
X188949811Y-82569530D01*
X188943906Y-82574157D01*
X188942800Y-82572746D01*
X188889838Y-82601666D01*
X188863480Y-82604500D01*
X187975200Y-82604500D01*
X187908161Y-82584815D01*
X187862406Y-82532011D01*
X187852462Y-82462853D01*
X187856124Y-82445905D01*
X187887597Y-82337573D01*
X187887598Y-82337567D01*
X187890499Y-82300701D01*
X187890500Y-82300694D01*
X187890500Y-81869306D01*
X187887598Y-81832431D01*
X187869258Y-81769306D01*
X187841745Y-81674606D01*
X187841744Y-81674603D01*
X187841744Y-81674602D01*
X187758081Y-81533135D01*
X187758078Y-81533132D01*
X187753298Y-81526969D01*
X187755750Y-81525066D01*
X187729155Y-81476421D01*
X187734104Y-81406726D01*
X187754940Y-81374304D01*
X187753298Y-81373031D01*
X187758075Y-81366870D01*
X187758081Y-81366865D01*
X187841744Y-81225398D01*
X187887598Y-81067569D01*
X187890500Y-81030694D01*
X187890500Y-80599306D01*
X187887598Y-80562431D01*
X187886178Y-80557544D01*
X187841745Y-80404606D01*
X187841744Y-80404603D01*
X187841744Y-80404602D01*
X187758081Y-80263135D01*
X187758078Y-80263132D01*
X187753298Y-80256969D01*
X187755635Y-80255155D01*
X187728798Y-80206050D01*
X187733756Y-80136356D01*
X187754554Y-80103998D01*
X187752903Y-80102717D01*
X187757686Y-80096550D01*
X187841281Y-79955198D01*
X187887100Y-79797486D01*
X187887295Y-79795001D01*
X187887295Y-79795000D01*
X184942705Y-79795000D01*
X184942704Y-79795001D01*
X184942899Y-79797486D01*
X184988718Y-79955198D01*
X185072314Y-80096552D01*
X185077100Y-80102722D01*
X185074640Y-80104629D01*
X185101210Y-80153288D01*
X185096226Y-80222980D01*
X185075162Y-80255781D01*
X185076699Y-80256974D01*
X185071915Y-80263140D01*
X184988255Y-80404603D01*
X184988254Y-80404606D01*
X184942402Y-80562426D01*
X184942401Y-80562432D01*
X184939500Y-80599298D01*
X184939500Y-81030701D01*
X184942402Y-81067571D01*
X184943260Y-81072269D01*
X184939809Y-81105026D01*
X184937460Y-81137881D01*
X184936167Y-81139608D01*
X184935941Y-81141754D01*
X184915323Y-81167451D01*
X184895589Y-81193814D01*
X184893568Y-81194567D01*
X184892217Y-81196252D01*
X184860980Y-81206723D01*
X184830125Y-81218232D01*
X184828015Y-81217773D01*
X184825970Y-81218459D01*
X184794038Y-81210382D01*
X184761852Y-81203381D01*
X184759552Y-81201659D01*
X184758234Y-81201326D01*
X184733598Y-81182230D01*
X184678417Y-81127050D01*
X184678416Y-81127049D01*
X183783421Y-80232052D01*
X183783414Y-80232046D01*
X183709729Y-80182812D01*
X183709729Y-80182813D01*
X183660491Y-80149913D01*
X183523917Y-80093343D01*
X183523907Y-80093340D01*
X183378920Y-80064500D01*
X183378918Y-80064500D01*
X183025200Y-80064500D01*
X182958161Y-80044815D01*
X182912406Y-79992011D01*
X182902462Y-79922853D01*
X182906124Y-79905905D01*
X182937597Y-79797573D01*
X182937598Y-79797567D01*
X182940500Y-79760694D01*
X182940500Y-79329306D01*
X182937800Y-79294998D01*
X184942704Y-79294998D01*
X184942705Y-79295000D01*
X186165000Y-79295000D01*
X186665000Y-79295000D01*
X187887295Y-79295000D01*
X187887295Y-79294998D01*
X187887100Y-79292513D01*
X187841281Y-79134801D01*
X187757685Y-78993447D01*
X187757678Y-78993438D01*
X187641561Y-78877321D01*
X187641552Y-78877314D01*
X187500196Y-78793717D01*
X187500193Y-78793716D01*
X187342495Y-78747900D01*
X187342489Y-78747899D01*
X187305649Y-78745000D01*
X186665000Y-78745000D01*
X186665000Y-79295000D01*
X186165000Y-79295000D01*
X186165000Y-78745000D01*
X185524350Y-78745000D01*
X185487510Y-78747899D01*
X185487504Y-78747900D01*
X185329806Y-78793716D01*
X185329803Y-78793717D01*
X185188447Y-78877314D01*
X185188438Y-78877321D01*
X185072321Y-78993438D01*
X185072314Y-78993447D01*
X184988718Y-79134801D01*
X184942899Y-79292513D01*
X184942704Y-79294998D01*
X182937800Y-79294998D01*
X182937598Y-79292431D01*
X182919258Y-79229306D01*
X182891745Y-79134606D01*
X182891744Y-79134603D01*
X182891744Y-79134602D01*
X182808081Y-78993135D01*
X182808079Y-78993133D01*
X182808076Y-78993129D01*
X182691870Y-78876923D01*
X182691862Y-78876917D01*
X182592593Y-78818210D01*
X182550398Y-78793256D01*
X182550397Y-78793255D01*
X182550396Y-78793255D01*
X182550393Y-78793254D01*
X182392573Y-78747402D01*
X182392567Y-78747401D01*
X182355701Y-78744500D01*
X182355694Y-78744500D01*
X180574306Y-78744500D01*
X180574298Y-78744500D01*
X180537432Y-78747401D01*
X180537426Y-78747402D01*
X180379606Y-78793254D01*
X180379603Y-78793255D01*
X180238137Y-78876917D01*
X180238129Y-78876923D01*
X180121923Y-78993129D01*
X180121917Y-78993137D01*
X180038255Y-79134603D01*
X180038254Y-79134606D01*
X179992402Y-79292426D01*
X179992401Y-79292432D01*
X179989500Y-79329298D01*
X179989500Y-79760701D01*
X179992401Y-79797567D01*
X179992402Y-79797573D01*
X180038254Y-79955393D01*
X180038255Y-79955396D01*
X180121917Y-80096862D01*
X180126702Y-80103031D01*
X180124256Y-80104927D01*
X180150857Y-80153642D01*
X180145873Y-80223334D01*
X180125069Y-80255703D01*
X180126702Y-80256969D01*
X180121917Y-80263137D01*
X180038255Y-80404603D01*
X180038254Y-80404606D01*
X179992402Y-80562426D01*
X179992401Y-80562432D01*
X179989500Y-80599298D01*
X179989500Y-81030701D01*
X179992401Y-81067567D01*
X179992402Y-81067573D01*
X180038254Y-81225393D01*
X180038255Y-81225396D01*
X180038256Y-81225398D01*
X180045124Y-81237011D01*
X180121917Y-81366862D01*
X180126702Y-81373031D01*
X180124256Y-81374927D01*
X180150857Y-81423642D01*
X180145873Y-81493334D01*
X180125069Y-81525703D01*
X180126702Y-81526969D01*
X180121917Y-81533137D01*
X180038255Y-81674603D01*
X180038254Y-81674606D01*
X179992402Y-81832426D01*
X179992401Y-81832432D01*
X179989500Y-81869298D01*
X179989500Y-82300701D01*
X179992401Y-82337567D01*
X179992402Y-82337573D01*
X180038254Y-82495393D01*
X180038255Y-82495396D01*
X180121917Y-82636862D01*
X180126702Y-82643031D01*
X180124256Y-82644927D01*
X180150857Y-82693642D01*
X180145873Y-82763334D01*
X180125069Y-82795703D01*
X180126702Y-82796969D01*
X180121917Y-82803137D01*
X180038255Y-82944603D01*
X180038254Y-82944606D01*
X179992402Y-83102426D01*
X179992401Y-83102432D01*
X179989500Y-83139298D01*
X179989500Y-83570701D01*
X179992401Y-83607567D01*
X179992402Y-83607573D01*
X180038254Y-83765393D01*
X180038255Y-83765396D01*
X180038256Y-83765398D01*
X180075681Y-83828681D01*
X180121917Y-83906862D01*
X180121923Y-83906870D01*
X180238129Y-84023076D01*
X180238133Y-84023079D01*
X180238135Y-84023081D01*
X180379602Y-84106744D01*
X180421224Y-84118836D01*
X180537426Y-84152597D01*
X180537429Y-84152597D01*
X180537431Y-84152598D01*
X180574306Y-84155500D01*
X180574314Y-84155500D01*
X182355686Y-84155500D01*
X182355694Y-84155500D01*
X182392569Y-84152598D01*
X182392571Y-84152597D01*
X182392573Y-84152597D01*
X182439242Y-84139038D01*
X182550398Y-84106744D01*
X182691865Y-84023081D01*
X182808081Y-83906865D01*
X182891744Y-83765398D01*
X182937598Y-83607569D01*
X182940500Y-83570694D01*
X182940500Y-83139306D01*
X182937598Y-83102431D01*
X182933734Y-83089132D01*
X182891745Y-82944606D01*
X182891744Y-82944603D01*
X182891744Y-82944602D01*
X182808081Y-82803135D01*
X182808078Y-82803132D01*
X182803298Y-82796969D01*
X182805750Y-82795066D01*
X182779155Y-82746421D01*
X182784104Y-82676726D01*
X182804940Y-82644304D01*
X182803298Y-82643031D01*
X182808075Y-82636870D01*
X182808081Y-82636865D01*
X182891744Y-82495398D01*
X182937598Y-82337569D01*
X182940500Y-82300694D01*
X182940500Y-81869306D01*
X182937598Y-81832431D01*
X182937594Y-81832419D01*
X182936740Y-81827739D01*
X182944055Y-81758253D01*
X182987775Y-81703752D01*
X183054020Y-81681540D01*
X183121757Y-81698669D01*
X183146402Y-81717770D01*
X183413181Y-81984548D01*
X183446666Y-82045871D01*
X183449500Y-82072229D01*
X183449500Y-85972495D01*
X183429815Y-86039534D01*
X183390600Y-86078032D01*
X183371954Y-86089533D01*
X183252029Y-86209459D01*
X183163001Y-86353794D01*
X183162996Y-86353805D01*
X183109651Y-86514790D01*
X183099500Y-86614147D01*
X183099500Y-87160837D01*
X183099501Y-87160855D01*
X183109650Y-87260207D01*
X183109651Y-87260210D01*
X183162996Y-87421194D01*
X183163001Y-87421205D01*
X183252029Y-87565540D01*
X183252032Y-87565544D01*
X183371955Y-87685467D01*
X183371959Y-87685470D01*
X183516294Y-87774498D01*
X183516297Y-87774499D01*
X183516303Y-87774503D01*
X183677292Y-87827849D01*
X183776655Y-87838000D01*
X184623344Y-87837999D01*
X184623352Y-87837998D01*
X184623355Y-87837998D01*
X184677760Y-87832440D01*
X184722708Y-87827849D01*
X184883697Y-87774503D01*
X185028044Y-87685468D01*
X185039193Y-87674319D01*
X185100516Y-87640834D01*
X185126874Y-87638000D01*
X186086420Y-87638000D01*
X186183962Y-87618596D01*
X186231413Y-87609158D01*
X186367995Y-87552584D01*
X186435494Y-87507483D01*
X186490916Y-87470452D01*
X188199548Y-85761818D01*
X188260871Y-85728334D01*
X188287229Y-85725500D01*
X188907023Y-85725500D01*
X188971171Y-85743382D01*
X189095394Y-85818478D01*
X189257804Y-85869086D01*
X189328384Y-85875500D01*
X189328387Y-85875500D01*
X189991609Y-85875500D01*
X189991616Y-85875500D01*
X190015200Y-85873356D01*
X190083743Y-85886891D01*
X190134090Y-85935337D01*
X190150253Y-86003311D01*
X190127101Y-86069233D01*
X190114103Y-86084528D01*
X189047050Y-87151580D01*
X189047044Y-87151588D01*
X188997812Y-87225268D01*
X188997813Y-87225269D01*
X188964921Y-87274496D01*
X188964914Y-87274508D01*
X188908342Y-87411086D01*
X188908340Y-87411092D01*
X188879500Y-87556079D01*
X188879500Y-87758480D01*
X188859815Y-87825519D01*
X188843181Y-87846161D01*
X188799531Y-87889810D01*
X188799530Y-87889811D01*
X188711522Y-88035393D01*
X188660913Y-88197807D01*
X188654500Y-88268386D01*
X188654500Y-88781613D01*
X188660913Y-88852192D01*
X188711522Y-89014606D01*
X188799530Y-89160188D01*
X188852161Y-89212819D01*
X188885646Y-89274142D01*
X188880662Y-89343834D01*
X188838790Y-89399767D01*
X188773326Y-89424184D01*
X188764480Y-89424500D01*
X185114374Y-89424500D01*
X185047335Y-89404815D01*
X185033792Y-89393901D01*
X185033707Y-89394010D01*
X185028040Y-89389529D01*
X184883705Y-89300501D01*
X184883699Y-89300498D01*
X184883697Y-89300497D01*
X184823265Y-89280472D01*
X184722709Y-89247151D01*
X184623346Y-89237000D01*
X183776662Y-89237000D01*
X183776644Y-89237001D01*
X183677292Y-89247150D01*
X183677289Y-89247151D01*
X183516305Y-89300496D01*
X183516294Y-89300501D01*
X183371959Y-89389529D01*
X183371955Y-89389532D01*
X183360807Y-89400681D01*
X183299484Y-89434166D01*
X183273126Y-89437000D01*
X182419729Y-89437000D01*
X182352690Y-89417315D01*
X182332048Y-89400681D01*
X174468550Y-81537182D01*
X174435065Y-81475859D01*
X174440049Y-81406167D01*
X174481921Y-81350234D01*
X174497788Y-81340138D01*
X174499179Y-81339394D01*
X174573379Y-81289815D01*
X174630289Y-81251789D01*
X174741789Y-81140289D01*
X174829394Y-81009179D01*
X174889737Y-80863497D01*
X174920500Y-80708842D01*
X174920500Y-80551158D01*
X174920500Y-80551155D01*
X174920499Y-80551153D01*
X174902850Y-80462426D01*
X174889737Y-80396503D01*
X174852864Y-80307482D01*
X174829397Y-80250827D01*
X174829395Y-80250823D01*
X174829394Y-80250821D01*
X174827418Y-80247864D01*
X174824430Y-80243391D01*
X174803552Y-80176714D01*
X174822036Y-80109334D01*
X174874015Y-80062643D01*
X174927532Y-80050500D01*
X175475501Y-80050500D01*
X175542540Y-80070185D01*
X175588295Y-80122989D01*
X175599501Y-80174500D01*
X175599501Y-80247876D01*
X175605908Y-80307483D01*
X175656202Y-80442328D01*
X175656206Y-80442335D01*
X175742452Y-80557544D01*
X175742455Y-80557547D01*
X175857664Y-80643793D01*
X175857671Y-80643797D01*
X175992517Y-80694091D01*
X175992516Y-80694091D01*
X175999444Y-80694835D01*
X176052127Y-80700500D01*
X177647872Y-80700499D01*
X177707483Y-80694091D01*
X177842331Y-80643796D01*
X177957546Y-80557546D01*
X178043796Y-80442331D01*
X178094091Y-80307483D01*
X178100500Y-80247873D01*
X178100499Y-78652128D01*
X178094091Y-78592517D01*
X178043796Y-78457669D01*
X178043795Y-78457668D01*
X178043793Y-78457664D01*
X177957547Y-78342455D01*
X177957544Y-78342452D01*
X177842335Y-78256206D01*
X177842328Y-78256202D01*
X177707482Y-78205908D01*
X177707483Y-78205908D01*
X177647883Y-78199501D01*
X177647881Y-78199500D01*
X177647873Y-78199500D01*
X177647864Y-78199500D01*
X176052129Y-78199500D01*
X176052123Y-78199501D01*
X175992516Y-78205908D01*
X175857671Y-78256202D01*
X175857664Y-78256206D01*
X175742455Y-78342452D01*
X175742452Y-78342455D01*
X175656206Y-78457664D01*
X175656202Y-78457671D01*
X175605908Y-78592517D01*
X175599954Y-78647900D01*
X175599501Y-78652123D01*
X175599500Y-78652135D01*
X175599500Y-78725500D01*
X175579815Y-78792539D01*
X175527011Y-78838294D01*
X175475500Y-78849500D01*
X174722783Y-78849500D01*
X174655744Y-78829815D01*
X174644118Y-78821353D01*
X174640289Y-78818210D01*
X174509185Y-78730609D01*
X174509172Y-78730602D01*
X174363501Y-78670264D01*
X174363489Y-78670261D01*
X174208845Y-78639500D01*
X174208842Y-78639500D01*
X174051158Y-78639500D01*
X174051155Y-78639500D01*
X173896510Y-78670261D01*
X173896498Y-78670264D01*
X173750827Y-78730602D01*
X173750812Y-78730610D01*
X173723889Y-78748601D01*
X173657212Y-78769480D01*
X173654997Y-78769500D01*
X172203242Y-78769500D01*
X172140121Y-78752232D01*
X172040398Y-78693256D01*
X172040397Y-78693255D01*
X172040396Y-78693255D01*
X172040393Y-78693254D01*
X171882573Y-78647402D01*
X171882567Y-78647401D01*
X171845701Y-78644500D01*
X171845694Y-78644500D01*
X170064306Y-78644500D01*
X170064298Y-78644500D01*
X170027432Y-78647401D01*
X170027426Y-78647402D01*
X169869606Y-78693254D01*
X169869603Y-78693255D01*
X169728137Y-78776917D01*
X169728129Y-78776923D01*
X169611923Y-78893129D01*
X169611917Y-78893137D01*
X169528255Y-79034603D01*
X169528254Y-79034606D01*
X169482402Y-79192426D01*
X169482401Y-79192432D01*
X169479500Y-79229298D01*
X169479500Y-79660701D01*
X169482401Y-79697567D01*
X169482402Y-79697573D01*
X169528254Y-79855393D01*
X169528255Y-79855396D01*
X169611917Y-79996862D01*
X169616702Y-80003031D01*
X169614256Y-80004927D01*
X169640857Y-80053642D01*
X169635873Y-80123334D01*
X169615069Y-80155703D01*
X169616702Y-80156969D01*
X169611917Y-80163137D01*
X169528255Y-80304603D01*
X169528254Y-80304606D01*
X169482402Y-80462426D01*
X169482401Y-80462432D01*
X169479500Y-80499298D01*
X169479500Y-80930701D01*
X169482401Y-80967567D01*
X169482402Y-80967573D01*
X169528254Y-81125393D01*
X169531353Y-81132554D01*
X169529279Y-81133451D01*
X169543654Y-81190098D01*
X169521497Y-81256361D01*
X169467033Y-81300127D01*
X169419739Y-81309500D01*
X167540261Y-81309500D01*
X167473222Y-81289815D01*
X167427467Y-81237011D01*
X167417523Y-81167853D01*
X167429776Y-81133042D01*
X167428647Y-81132554D01*
X167431739Y-81125405D01*
X167431744Y-81125398D01*
X167477598Y-80967569D01*
X167480500Y-80930694D01*
X167480500Y-80499306D01*
X167477598Y-80462431D01*
X167471758Y-80442331D01*
X167431745Y-80304606D01*
X167431744Y-80304603D01*
X167431744Y-80304602D01*
X167348081Y-80163135D01*
X167348078Y-80163132D01*
X167343298Y-80156969D01*
X167345635Y-80155155D01*
X167318798Y-80106050D01*
X167323756Y-80036356D01*
X167344554Y-80003998D01*
X167342903Y-80002717D01*
X167347686Y-79996550D01*
X167431281Y-79855198D01*
X167477100Y-79697486D01*
X167477295Y-79695001D01*
X167477295Y-79695000D01*
X164532705Y-79695000D01*
X164532704Y-79695001D01*
X164532899Y-79697486D01*
X164578719Y-79855200D01*
X164581815Y-79862354D01*
X164579802Y-79863224D01*
X164594233Y-79920105D01*
X164572073Y-79986367D01*
X164517606Y-80030129D01*
X164470319Y-80039500D01*
X163289969Y-80039500D01*
X163222930Y-80019815D01*
X163221123Y-80018632D01*
X163179179Y-79990606D01*
X163179172Y-79990602D01*
X163033501Y-79930264D01*
X163033489Y-79930261D01*
X162878845Y-79899500D01*
X162878842Y-79899500D01*
X162721158Y-79899500D01*
X162721157Y-79899500D01*
X162718688Y-79899991D01*
X162717369Y-79899872D01*
X162715095Y-79900097D01*
X162715052Y-79899665D01*
X162649097Y-79893762D01*
X162593921Y-79850897D01*
X162570678Y-79785007D01*
X162570500Y-79778373D01*
X162570500Y-79194998D01*
X164532704Y-79194998D01*
X164532705Y-79195000D01*
X165755000Y-79195000D01*
X166255000Y-79195000D01*
X167477295Y-79195000D01*
X167477295Y-79194998D01*
X167477100Y-79192513D01*
X167431281Y-79034801D01*
X167347685Y-78893447D01*
X167347678Y-78893438D01*
X167231561Y-78777321D01*
X167231552Y-78777314D01*
X167090196Y-78693717D01*
X167090193Y-78693716D01*
X166932495Y-78647900D01*
X166932489Y-78647899D01*
X166895649Y-78645000D01*
X166255000Y-78645000D01*
X166255000Y-79195000D01*
X165755000Y-79195000D01*
X165755000Y-78645000D01*
X165114350Y-78645000D01*
X165077510Y-78647899D01*
X165077504Y-78647900D01*
X164919806Y-78693716D01*
X164919803Y-78693717D01*
X164778447Y-78777314D01*
X164778438Y-78777321D01*
X164662321Y-78893438D01*
X164662314Y-78893447D01*
X164578718Y-79034801D01*
X164532899Y-79192513D01*
X164532704Y-79194998D01*
X162570500Y-79194998D01*
X162570500Y-72962229D01*
X162590185Y-72895190D01*
X162606819Y-72874548D01*
X162881556Y-72599811D01*
X163195297Y-72286069D01*
X163235522Y-72259192D01*
X163259179Y-72249394D01*
X163390289Y-72161789D01*
X163501789Y-72050289D01*
X163563323Y-71958197D01*
X163616935Y-71913392D01*
X163686260Y-71904685D01*
X163749287Y-71934839D01*
X163754106Y-71939407D01*
X163965305Y-72150606D01*
X164059394Y-72244695D01*
X164059397Y-72244697D01*
X164059398Y-72244698D01*
X164170020Y-72318613D01*
X164170023Y-72318614D01*
X164170031Y-72318620D01*
X164170037Y-72318622D01*
X164170038Y-72318623D01*
X164174570Y-72320500D01*
X164289169Y-72367968D01*
X164292964Y-72369540D01*
X164292966Y-72369540D01*
X164292968Y-72369541D01*
X164423466Y-72395500D01*
X164423469Y-72395500D01*
X167326532Y-72395500D01*
X167326533Y-72395499D01*
X167457036Y-72369541D01*
X167579969Y-72318620D01*
X167690606Y-72244695D01*
X168903482Y-71031819D01*
X168964805Y-70998334D01*
X168991163Y-70995500D01*
X169336758Y-70995500D01*
X169399878Y-71012767D01*
X169499602Y-71071744D01*
X169541224Y-71083836D01*
X169657426Y-71117597D01*
X169657429Y-71117597D01*
X169657431Y-71117598D01*
X169694306Y-71120500D01*
X169694314Y-71120500D01*
X171475686Y-71120500D01*
X171475694Y-71120500D01*
X171512569Y-71117598D01*
X171512571Y-71117597D01*
X171512573Y-71117597D01*
X171578383Y-71098477D01*
X171670398Y-71071744D01*
X171770121Y-71012767D01*
X171833242Y-70995500D01*
X173338837Y-70995500D01*
X173368277Y-71004144D01*
X173398264Y-71010668D01*
X173403279Y-71014422D01*
X173405876Y-71015185D01*
X173426518Y-71031819D01*
X173538181Y-71143482D01*
X173571666Y-71204805D01*
X173574500Y-71231163D01*
X173574500Y-71425500D01*
X173554815Y-71492539D01*
X173502011Y-71538294D01*
X173455389Y-71548450D01*
X173455423Y-71549099D01*
X173455429Y-71549146D01*
X173455426Y-71549146D01*
X173455436Y-71549324D01*
X173452123Y-71549501D01*
X173392516Y-71555908D01*
X173257671Y-71606202D01*
X173257664Y-71606206D01*
X173142455Y-71692452D01*
X173142452Y-71692455D01*
X173056206Y-71807664D01*
X173056202Y-71807671D01*
X173005908Y-71942517D01*
X172999501Y-72002116D01*
X172999501Y-72002123D01*
X172999500Y-72002135D01*
X172999500Y-73597870D01*
X172999501Y-73597876D01*
X173005908Y-73657483D01*
X173056202Y-73792328D01*
X173056206Y-73792335D01*
X173142452Y-73907544D01*
X173142455Y-73907547D01*
X173257664Y-73993793D01*
X173257671Y-73993797D01*
X173392517Y-74044091D01*
X173392516Y-74044091D01*
X173399444Y-74044835D01*
X173452127Y-74050500D01*
X175047872Y-74050499D01*
X175107483Y-74044091D01*
X175242331Y-73993796D01*
X175357546Y-73907546D01*
X175443796Y-73792331D01*
X175494091Y-73657483D01*
X175500500Y-73597873D01*
X175500499Y-72002128D01*
X175494112Y-71942708D01*
X175494091Y-71942516D01*
X175443797Y-71807671D01*
X175443793Y-71807664D01*
X175357547Y-71692455D01*
X175357544Y-71692452D01*
X175242335Y-71606206D01*
X175242328Y-71606202D01*
X175107482Y-71555908D01*
X175107483Y-71555908D01*
X175047883Y-71549501D01*
X175047881Y-71549500D01*
X175047873Y-71549500D01*
X175047864Y-71549500D01*
X175044548Y-71549322D01*
X175044615Y-71548065D01*
X174982461Y-71529815D01*
X174936706Y-71477011D01*
X174925500Y-71425500D01*
X174925500Y-70833468D01*
X174925499Y-70833464D01*
X174913280Y-70772034D01*
X174899541Y-70702964D01*
X174848620Y-70580031D01*
X174848618Y-70580028D01*
X174848616Y-70580024D01*
X174774695Y-70469394D01*
X174774692Y-70469390D01*
X174317482Y-70012181D01*
X174283997Y-69950858D01*
X174288981Y-69881167D01*
X174330852Y-69825233D01*
X174396317Y-69800816D01*
X174405163Y-69800500D01*
X176667770Y-69800500D01*
X176734809Y-69820185D01*
X176755451Y-69836819D01*
X182371584Y-75452952D01*
X182420294Y-75485498D01*
X182420296Y-75485500D01*
X182420297Y-75485500D01*
X182494505Y-75535084D01*
X182631087Y-75591658D01*
X182631091Y-75591658D01*
X182631092Y-75591659D01*
X182776079Y-75620500D01*
X182776082Y-75620500D01*
X182776083Y-75620500D01*
X182923917Y-75620500D01*
X183163126Y-75620500D01*
X183230165Y-75640185D01*
X183250807Y-75656819D01*
X183261955Y-75667967D01*
X183261959Y-75667970D01*
X183406294Y-75756998D01*
X183406297Y-75756999D01*
X183406303Y-75757003D01*
X183567292Y-75810349D01*
X183666655Y-75820500D01*
X184513344Y-75820499D01*
X184513352Y-75820498D01*
X184513355Y-75820498D01*
X184567760Y-75814940D01*
X184612708Y-75810349D01*
X184773697Y-75757003D01*
X184918044Y-75667968D01*
X184918049Y-75667962D01*
X184923707Y-75663490D01*
X184925437Y-75665678D01*
X184975516Y-75638334D01*
X185001874Y-75635500D01*
X189007023Y-75635500D01*
X189071171Y-75653382D01*
X189195394Y-75728478D01*
X189357804Y-75779086D01*
X189428384Y-75785500D01*
X189428387Y-75785500D01*
X190091613Y-75785500D01*
X190091616Y-75785500D01*
X190162196Y-75779086D01*
X190324606Y-75728478D01*
X190470185Y-75640472D01*
X190590472Y-75520185D01*
X190678478Y-75374606D01*
X190729086Y-75212196D01*
X190735500Y-75141616D01*
X190735500Y-74628384D01*
X190729086Y-74557804D01*
X190678478Y-74395394D01*
X190590472Y-74249815D01*
X190590470Y-74249813D01*
X190590469Y-74249811D01*
X190537839Y-74197181D01*
X190504354Y-74135858D01*
X190509338Y-74066166D01*
X190551210Y-74010233D01*
X190616674Y-73985816D01*
X190625520Y-73985500D01*
X190848920Y-73985500D01*
X190946462Y-73966096D01*
X190993913Y-73956658D01*
X191130495Y-73900084D01*
X191179729Y-73867186D01*
X191253416Y-73817952D01*
X191902951Y-73168416D01*
X191985084Y-73045495D01*
X192041658Y-72908913D01*
X192070500Y-72763918D01*
X192070500Y-72616083D01*
X192070500Y-69366082D01*
X192070500Y-69366079D01*
X192041659Y-69221092D01*
X192041658Y-69221091D01*
X192041658Y-69221087D01*
X192012990Y-69151876D01*
X191985087Y-69084511D01*
X191985080Y-69084498D01*
X191902952Y-68961585D01*
X191872520Y-68931153D01*
X191798416Y-68857049D01*
X191653473Y-68712106D01*
X190963421Y-68022052D01*
X190963420Y-68022051D01*
X190923973Y-67995694D01*
X190885242Y-67969815D01*
X190885241Y-67969814D01*
X190840501Y-67939919D01*
X190840488Y-67939912D01*
X190703917Y-67883343D01*
X190703907Y-67883340D01*
X190558920Y-67854500D01*
X190558918Y-67854500D01*
X190472977Y-67854500D01*
X190408828Y-67836617D01*
X190284606Y-67761522D01*
X190122196Y-67710914D01*
X190122194Y-67710913D01*
X190122192Y-67710913D01*
X190072778Y-67706423D01*
X190051616Y-67704500D01*
X189388384Y-67704500D01*
X189369145Y-67706248D01*
X189317807Y-67710913D01*
X189155393Y-67761522D01*
X189047714Y-67826617D01*
X188983564Y-67844500D01*
X188115200Y-67844500D01*
X188048161Y-67824815D01*
X188002406Y-67772011D01*
X187992462Y-67702853D01*
X187996124Y-67685905D01*
X188027597Y-67577573D01*
X188027598Y-67577567D01*
X188030499Y-67540701D01*
X188030500Y-67540694D01*
X188030500Y-67109306D01*
X188027598Y-67072431D01*
X188026423Y-67068388D01*
X187993836Y-66956224D01*
X187981744Y-66914602D01*
X187898081Y-66773135D01*
X187898078Y-66773132D01*
X187893298Y-66766969D01*
X187895750Y-66765066D01*
X187869155Y-66716421D01*
X187874104Y-66646726D01*
X187894940Y-66614304D01*
X187893298Y-66613031D01*
X187898075Y-66606870D01*
X187898081Y-66606865D01*
X187981744Y-66465398D01*
X188027598Y-66307569D01*
X188030500Y-66270694D01*
X188030500Y-65839306D01*
X188027598Y-65802431D01*
X188024163Y-65790609D01*
X187981745Y-65644606D01*
X187981744Y-65644603D01*
X187981744Y-65644602D01*
X187898081Y-65503135D01*
X187898078Y-65503132D01*
X187893298Y-65496969D01*
X187895635Y-65495155D01*
X187868798Y-65446050D01*
X187873756Y-65376356D01*
X187894554Y-65343998D01*
X187892903Y-65342717D01*
X187897686Y-65336550D01*
X187981281Y-65195198D01*
X188027100Y-65037486D01*
X188027295Y-65035001D01*
X188027295Y-65035000D01*
X185082705Y-65035000D01*
X185082704Y-65035001D01*
X185082899Y-65037486D01*
X185128718Y-65195198D01*
X185212314Y-65336552D01*
X185217100Y-65342722D01*
X185214640Y-65344629D01*
X185241210Y-65393288D01*
X185236226Y-65462980D01*
X185215162Y-65495781D01*
X185216699Y-65496974D01*
X185211915Y-65503140D01*
X185128255Y-65644603D01*
X185128254Y-65644606D01*
X185082402Y-65802426D01*
X185082401Y-65802432D01*
X185079500Y-65839298D01*
X185079500Y-66270701D01*
X185082401Y-66307567D01*
X185082402Y-66307573D01*
X185128254Y-66465393D01*
X185128255Y-66465396D01*
X185128256Y-66465398D01*
X185163212Y-66524505D01*
X185211917Y-66606862D01*
X185216702Y-66613031D01*
X185214256Y-66614927D01*
X185240857Y-66663642D01*
X185235873Y-66733334D01*
X185215069Y-66765703D01*
X185216702Y-66766969D01*
X185211917Y-66773137D01*
X185128255Y-66914603D01*
X185128254Y-66914606D01*
X185083576Y-67068388D01*
X185045970Y-67127274D01*
X184982497Y-67156480D01*
X184913311Y-67146734D01*
X184860376Y-67101130D01*
X184840501Y-67034147D01*
X184840500Y-67033793D01*
X184840500Y-66806079D01*
X184811659Y-66661092D01*
X184811658Y-66661091D01*
X184811658Y-66661087D01*
X184811656Y-66661082D01*
X184755087Y-66524511D01*
X184755080Y-66524498D01*
X184672952Y-66401585D01*
X184652520Y-66381153D01*
X184568416Y-66297049D01*
X184370969Y-66099602D01*
X183743421Y-65472052D01*
X183743420Y-65472051D01*
X183666152Y-65420423D01*
X183666151Y-65420422D01*
X183620501Y-65389919D01*
X183620488Y-65389912D01*
X183483917Y-65333343D01*
X183483907Y-65333340D01*
X183338920Y-65304500D01*
X183338918Y-65304500D01*
X183165200Y-65304500D01*
X183098161Y-65284815D01*
X183052406Y-65232011D01*
X183042462Y-65162853D01*
X183046124Y-65145905D01*
X183077597Y-65037573D01*
X183077598Y-65037567D01*
X183080500Y-65000694D01*
X183080500Y-64569306D01*
X183077800Y-64534998D01*
X185082704Y-64534998D01*
X185082705Y-64535000D01*
X186305000Y-64535000D01*
X186805000Y-64535000D01*
X188027295Y-64535000D01*
X188027295Y-64534998D01*
X188027100Y-64532513D01*
X187981281Y-64374801D01*
X187897685Y-64233447D01*
X187897678Y-64233438D01*
X187781561Y-64117321D01*
X187781552Y-64117314D01*
X187640196Y-64033717D01*
X187640193Y-64033716D01*
X187482495Y-63987900D01*
X187482489Y-63987899D01*
X187445649Y-63985000D01*
X186805000Y-63985000D01*
X186805000Y-64535000D01*
X186305000Y-64535000D01*
X186305000Y-63985000D01*
X185664350Y-63985000D01*
X185627510Y-63987899D01*
X185627504Y-63987900D01*
X185469806Y-64033716D01*
X185469803Y-64033717D01*
X185328447Y-64117314D01*
X185328438Y-64117321D01*
X185212321Y-64233438D01*
X185212314Y-64233447D01*
X185128718Y-64374801D01*
X185082899Y-64532513D01*
X185082704Y-64534998D01*
X183077800Y-64534998D01*
X183077598Y-64532431D01*
X183031744Y-64374602D01*
X182948081Y-64233135D01*
X182948079Y-64233133D01*
X182948076Y-64233129D01*
X182831870Y-64116923D01*
X182831862Y-64116917D01*
X182753681Y-64070681D01*
X182690398Y-64033256D01*
X182690397Y-64033255D01*
X182690396Y-64033255D01*
X182690393Y-64033254D01*
X182532573Y-63987402D01*
X182532567Y-63987401D01*
X182495701Y-63984500D01*
X182495694Y-63984500D01*
X180714306Y-63984500D01*
X180714298Y-63984500D01*
X180677432Y-63987401D01*
X180677426Y-63987402D01*
X180519606Y-64033254D01*
X180519603Y-64033255D01*
X180378137Y-64116917D01*
X180378129Y-64116923D01*
X180261923Y-64233129D01*
X180261917Y-64233137D01*
X180178255Y-64374603D01*
X180178254Y-64374606D01*
X180132402Y-64532426D01*
X180132401Y-64532432D01*
X180129500Y-64569298D01*
X180129500Y-65000701D01*
X180132401Y-65037567D01*
X180132402Y-65037573D01*
X180178254Y-65195393D01*
X180178255Y-65195396D01*
X180261917Y-65336862D01*
X180266702Y-65343031D01*
X180264256Y-65344927D01*
X180290857Y-65393642D01*
X180285873Y-65463334D01*
X180265069Y-65495703D01*
X180266702Y-65496969D01*
X180261917Y-65503137D01*
X180178255Y-65644603D01*
X180178254Y-65644606D01*
X180132402Y-65802426D01*
X180132401Y-65802432D01*
X180129500Y-65839298D01*
X180129500Y-66270701D01*
X180132401Y-66307567D01*
X180132402Y-66307573D01*
X180178254Y-66465393D01*
X180178255Y-66465396D01*
X180178256Y-66465398D01*
X180213212Y-66524505D01*
X180261917Y-66606862D01*
X180266702Y-66613031D01*
X180264256Y-66614927D01*
X180290857Y-66663642D01*
X180285873Y-66733334D01*
X180265069Y-66765703D01*
X180266702Y-66766969D01*
X180261917Y-66773137D01*
X180178255Y-66914603D01*
X180178254Y-66914606D01*
X180132402Y-67072426D01*
X180132401Y-67072432D01*
X180129500Y-67109298D01*
X180129500Y-67540701D01*
X180132401Y-67577567D01*
X180132402Y-67577573D01*
X180178254Y-67735393D01*
X180178255Y-67735396D01*
X180261917Y-67876862D01*
X180266702Y-67883031D01*
X180264256Y-67884927D01*
X180290857Y-67933642D01*
X180285873Y-68003334D01*
X180265069Y-68035703D01*
X180266702Y-68036969D01*
X180261917Y-68043137D01*
X180178255Y-68184603D01*
X180178254Y-68184606D01*
X180132402Y-68342426D01*
X180132401Y-68342432D01*
X180129500Y-68379298D01*
X180129500Y-68810701D01*
X180132401Y-68847567D01*
X180132402Y-68847573D01*
X180178254Y-69005393D01*
X180178255Y-69005396D01*
X180261917Y-69146862D01*
X180261923Y-69146870D01*
X180378129Y-69263076D01*
X180378133Y-69263079D01*
X180378135Y-69263081D01*
X180519602Y-69346744D01*
X180561224Y-69358836D01*
X180677426Y-69392597D01*
X180677429Y-69392597D01*
X180677431Y-69392598D01*
X180714306Y-69395500D01*
X180714314Y-69395500D01*
X182495686Y-69395500D01*
X182495694Y-69395500D01*
X182532569Y-69392598D01*
X182532571Y-69392597D01*
X182532573Y-69392597D01*
X182574191Y-69380505D01*
X182690398Y-69346744D01*
X182831865Y-69263081D01*
X182948081Y-69146865D01*
X183031744Y-69005398D01*
X183073134Y-68862935D01*
X183077597Y-68847573D01*
X183077598Y-68847567D01*
X183078642Y-68834298D01*
X183080500Y-68810694D01*
X183080500Y-68379306D01*
X183077598Y-68342431D01*
X183076423Y-68338388D01*
X183043836Y-68226224D01*
X183031744Y-68184602D01*
X182948081Y-68043135D01*
X182948078Y-68043132D01*
X182943298Y-68036969D01*
X182945750Y-68035066D01*
X182919155Y-67986421D01*
X182924104Y-67916726D01*
X182944940Y-67884304D01*
X182943298Y-67883031D01*
X182948075Y-67876870D01*
X182948081Y-67876865D01*
X183031744Y-67735398D01*
X183076424Y-67581611D01*
X183077597Y-67577573D01*
X183077598Y-67577567D01*
X183080499Y-67540701D01*
X183080500Y-67540694D01*
X183080500Y-67231229D01*
X183086738Y-67209983D01*
X183088318Y-67187895D01*
X183096390Y-67177111D01*
X183100185Y-67164190D01*
X183116918Y-67149690D01*
X183130190Y-67131962D01*
X183142810Y-67127254D01*
X183152989Y-67118435D01*
X183174906Y-67115283D01*
X183195654Y-67107545D01*
X183208814Y-67110407D01*
X183222147Y-67108491D01*
X183242290Y-67117690D01*
X183263927Y-67122397D01*
X183281652Y-67135665D01*
X183285703Y-67137516D01*
X183292181Y-67143548D01*
X183303181Y-67154548D01*
X183336666Y-67215871D01*
X183339500Y-67242229D01*
X183339500Y-70654995D01*
X183319815Y-70722034D01*
X183280600Y-70760532D01*
X183261954Y-70772033D01*
X183142029Y-70891959D01*
X183053001Y-71036294D01*
X183052996Y-71036305D01*
X182999651Y-71197290D01*
X182989500Y-71296647D01*
X182989500Y-71843337D01*
X182989501Y-71843355D01*
X182999650Y-71942707D01*
X182999651Y-71942710D01*
X183052996Y-72103694D01*
X183053001Y-72103705D01*
X183142029Y-72248040D01*
X183142032Y-72248044D01*
X183261955Y-72367967D01*
X183261959Y-72367970D01*
X183406294Y-72456998D01*
X183406297Y-72456999D01*
X183406303Y-72457003D01*
X183567292Y-72510349D01*
X183666655Y-72520500D01*
X184513344Y-72520499D01*
X184513352Y-72520498D01*
X184513355Y-72520498D01*
X184567760Y-72514940D01*
X184612708Y-72510349D01*
X184773697Y-72457003D01*
X184918044Y-72367968D01*
X184929193Y-72356819D01*
X184990516Y-72323334D01*
X185016874Y-72320500D01*
X186353920Y-72320500D01*
X186451462Y-72301096D01*
X186498913Y-72291658D01*
X186635495Y-72235084D01*
X186702220Y-72190500D01*
X186758416Y-72152952D01*
X187869549Y-71041819D01*
X187930872Y-71008334D01*
X187957230Y-71005500D01*
X188967023Y-71005500D01*
X189031171Y-71023382D01*
X189155394Y-71098478D01*
X189317804Y-71149086D01*
X189388384Y-71155500D01*
X189388387Y-71155500D01*
X190051613Y-71155500D01*
X190051616Y-71155500D01*
X190122196Y-71149086D01*
X190284606Y-71098478D01*
X190381352Y-71039992D01*
X190448904Y-71022157D01*
X190515378Y-71043674D01*
X190559666Y-71097714D01*
X190569500Y-71146110D01*
X190569500Y-72319708D01*
X190549815Y-72386747D01*
X190497011Y-72432502D01*
X190427853Y-72442446D01*
X190381351Y-72425825D01*
X190324608Y-72391523D01*
X190324607Y-72391522D01*
X190324606Y-72391522D01*
X190162196Y-72340914D01*
X190162194Y-72340913D01*
X190162192Y-72340913D01*
X190112778Y-72336423D01*
X190091616Y-72334500D01*
X189428384Y-72334500D01*
X189409145Y-72336248D01*
X189357807Y-72340913D01*
X189195393Y-72391522D01*
X189049811Y-72479530D01*
X188929530Y-72599811D01*
X188841522Y-72745393D01*
X188790913Y-72907807D01*
X188784500Y-72978386D01*
X188784500Y-73491613D01*
X188790913Y-73562192D01*
X188790913Y-73562194D01*
X188790914Y-73562196D01*
X188802030Y-73597870D01*
X188841522Y-73724606D01*
X188929530Y-73870188D01*
X188982161Y-73922819D01*
X189015646Y-73984142D01*
X189010662Y-74053834D01*
X188968790Y-74109767D01*
X188903326Y-74134184D01*
X188894480Y-74134500D01*
X185031874Y-74134500D01*
X184964835Y-74114815D01*
X184944193Y-74098181D01*
X184918044Y-74072032D01*
X184918040Y-74072029D01*
X184773705Y-73983001D01*
X184773699Y-73982998D01*
X184773697Y-73982997D01*
X184773694Y-73982996D01*
X184612709Y-73929651D01*
X184513346Y-73919500D01*
X183666662Y-73919500D01*
X183666644Y-73919501D01*
X183567292Y-73929650D01*
X183567289Y-73929651D01*
X183406305Y-73982996D01*
X183406294Y-73983001D01*
X183255809Y-74075823D01*
X183254475Y-74073660D01*
X183200731Y-74095327D01*
X183132093Y-74082269D01*
X183100966Y-74059598D01*
X177498421Y-68457052D01*
X177498417Y-68457049D01*
X177498416Y-68457048D01*
X177375494Y-68374916D01*
X177375492Y-68374915D01*
X177375490Y-68374914D01*
X177238912Y-68318342D01*
X177238906Y-68318340D01*
X177093919Y-68289500D01*
X177093917Y-68289500D01*
X176946083Y-68289500D01*
X176946082Y-68289500D01*
X176907791Y-68297117D01*
X176883598Y-68299500D01*
X174019277Y-68299500D01*
X173952238Y-68279815D01*
X173906483Y-68227011D01*
X173896539Y-68157853D01*
X173904716Y-68128048D01*
X173939735Y-68043501D01*
X173939737Y-68043497D01*
X173970500Y-67888842D01*
X173970500Y-67731158D01*
X173970500Y-67731155D01*
X173970499Y-67731153D01*
X173963068Y-67693796D01*
X173939737Y-67576503D01*
X173928414Y-67549167D01*
X173879397Y-67430827D01*
X173879390Y-67430814D01*
X173788405Y-67294646D01*
X173790431Y-67293291D01*
X173767311Y-67238858D01*
X173779101Y-67169990D01*
X173826252Y-67118429D01*
X173890477Y-67100500D01*
X174275501Y-67100500D01*
X174342540Y-67120185D01*
X174388295Y-67172989D01*
X174399501Y-67224500D01*
X174399501Y-67297876D01*
X174405908Y-67357483D01*
X174456202Y-67492328D01*
X174456206Y-67492335D01*
X174542452Y-67607544D01*
X174542455Y-67607547D01*
X174657664Y-67693793D01*
X174657671Y-67693797D01*
X174792517Y-67744091D01*
X174792516Y-67744091D01*
X174799444Y-67744835D01*
X174852127Y-67750500D01*
X176447872Y-67750499D01*
X176507483Y-67744091D01*
X176642331Y-67693796D01*
X176757546Y-67607546D01*
X176843796Y-67492331D01*
X176894091Y-67357483D01*
X176900500Y-67297873D01*
X176900499Y-65702128D01*
X176894091Y-65642517D01*
X176843796Y-65507669D01*
X176843795Y-65507668D01*
X176843793Y-65507664D01*
X176757547Y-65392455D01*
X176757544Y-65392452D01*
X176642335Y-65306206D01*
X176642328Y-65306202D01*
X176507482Y-65255908D01*
X176507483Y-65255908D01*
X176447883Y-65249501D01*
X176447881Y-65249500D01*
X176447873Y-65249500D01*
X176447864Y-65249500D01*
X174852129Y-65249500D01*
X174852123Y-65249501D01*
X174792516Y-65255908D01*
X174657671Y-65306202D01*
X174657664Y-65306206D01*
X174542455Y-65392452D01*
X174542452Y-65392455D01*
X174456206Y-65507664D01*
X174456202Y-65507671D01*
X174405908Y-65642517D01*
X174399782Y-65699500D01*
X174399501Y-65702123D01*
X174399500Y-65702135D01*
X174399500Y-65775500D01*
X174379815Y-65842539D01*
X174327011Y-65888294D01*
X174275500Y-65899500D01*
X173749766Y-65899500D01*
X173682727Y-65879815D01*
X173680875Y-65878602D01*
X173549185Y-65790609D01*
X173549172Y-65790602D01*
X173403501Y-65730264D01*
X173403489Y-65730261D01*
X173248845Y-65699500D01*
X173248842Y-65699500D01*
X173091158Y-65699500D01*
X173091155Y-65699500D01*
X172936510Y-65730261D01*
X172936498Y-65730264D01*
X172790827Y-65790602D01*
X172790812Y-65790610D01*
X172756406Y-65813601D01*
X172689729Y-65834480D01*
X172687514Y-65834500D01*
X171833242Y-65834500D01*
X171770121Y-65817232D01*
X171670398Y-65758256D01*
X171670397Y-65758255D01*
X171670396Y-65758255D01*
X171670393Y-65758254D01*
X171512573Y-65712402D01*
X171512567Y-65712401D01*
X171475701Y-65709500D01*
X171475694Y-65709500D01*
X169694306Y-65709500D01*
X169694298Y-65709500D01*
X169657432Y-65712401D01*
X169657426Y-65712402D01*
X169499606Y-65758254D01*
X169499603Y-65758255D01*
X169358137Y-65841917D01*
X169358129Y-65841923D01*
X169241923Y-65958129D01*
X169241917Y-65958137D01*
X169158255Y-66099603D01*
X169158254Y-66099606D01*
X169112402Y-66257426D01*
X169112401Y-66257432D01*
X169109500Y-66294298D01*
X169109500Y-66725701D01*
X169112401Y-66762567D01*
X169112402Y-66762573D01*
X169158254Y-66920393D01*
X169158255Y-66920396D01*
X169241917Y-67061862D01*
X169246702Y-67068031D01*
X169244256Y-67069927D01*
X169270857Y-67118642D01*
X169265873Y-67188334D01*
X169245069Y-67220703D01*
X169246702Y-67221969D01*
X169241917Y-67228137D01*
X169158255Y-67369603D01*
X169158254Y-67369606D01*
X169112402Y-67527426D01*
X169112401Y-67527432D01*
X169109500Y-67564298D01*
X169109500Y-67995701D01*
X169112401Y-68032567D01*
X169112402Y-68032573D01*
X169158254Y-68190393D01*
X169161353Y-68197554D01*
X169159279Y-68198451D01*
X169173654Y-68255098D01*
X169151497Y-68321361D01*
X169097033Y-68365127D01*
X169049739Y-68374500D01*
X167170261Y-68374500D01*
X167103222Y-68354815D01*
X167057467Y-68302011D01*
X167047523Y-68232853D01*
X167059776Y-68198042D01*
X167058647Y-68197554D01*
X167061739Y-68190405D01*
X167061744Y-68190398D01*
X167104423Y-68043497D01*
X167107597Y-68032573D01*
X167107598Y-68032567D01*
X167110500Y-67995694D01*
X167110500Y-67564306D01*
X167107598Y-67527431D01*
X167106163Y-67522493D01*
X167061745Y-67369606D01*
X167061744Y-67369603D01*
X167061744Y-67369602D01*
X166978081Y-67228135D01*
X166978078Y-67228132D01*
X166973298Y-67221969D01*
X166975635Y-67220155D01*
X166948798Y-67171050D01*
X166953756Y-67101356D01*
X166974554Y-67068998D01*
X166972903Y-67067717D01*
X166977686Y-67061550D01*
X167061281Y-66920198D01*
X167107100Y-66762486D01*
X167107295Y-66760001D01*
X167107295Y-66760000D01*
X164162705Y-66760000D01*
X164162704Y-66760001D01*
X164162899Y-66762486D01*
X164208719Y-66920200D01*
X164211815Y-66927354D01*
X164209802Y-66928224D01*
X164224233Y-66985105D01*
X164202073Y-67051367D01*
X164147606Y-67095129D01*
X164100319Y-67104500D01*
X163614100Y-67104500D01*
X163547061Y-67084815D01*
X163501306Y-67032011D01*
X163491362Y-66962853D01*
X163510998Y-66911609D01*
X163559390Y-66839185D01*
X163559390Y-66839184D01*
X163559394Y-66839179D01*
X163619737Y-66693497D01*
X163650500Y-66538842D01*
X163650500Y-66381158D01*
X163650500Y-66381155D01*
X163640614Y-66331458D01*
X163640613Y-66331457D01*
X163626399Y-66259998D01*
X164162704Y-66259998D01*
X164162705Y-66260000D01*
X165385000Y-66260000D01*
X165885000Y-66260000D01*
X167107295Y-66260000D01*
X167107295Y-66259998D01*
X167107100Y-66257513D01*
X167061281Y-66099801D01*
X166977685Y-65958447D01*
X166977678Y-65958438D01*
X166861561Y-65842321D01*
X166861552Y-65842314D01*
X166720196Y-65758717D01*
X166720193Y-65758716D01*
X166562495Y-65712900D01*
X166562489Y-65712899D01*
X166525649Y-65710000D01*
X165885000Y-65710000D01*
X165885000Y-66260000D01*
X165385000Y-66260000D01*
X165385000Y-65710000D01*
X164744350Y-65710000D01*
X164707510Y-65712899D01*
X164707504Y-65712900D01*
X164549806Y-65758716D01*
X164549803Y-65758717D01*
X164408447Y-65842314D01*
X164408438Y-65842321D01*
X164292321Y-65958438D01*
X164292314Y-65958447D01*
X164208718Y-66099801D01*
X164162899Y-66257513D01*
X164162704Y-66259998D01*
X163626399Y-66259998D01*
X163619737Y-66226503D01*
X163606414Y-66194339D01*
X163604186Y-66185404D01*
X163604577Y-66175897D01*
X163600500Y-66155396D01*
X163600500Y-60392229D01*
X163620185Y-60325190D01*
X163636819Y-60304548D01*
X168249548Y-55691819D01*
X168310871Y-55658334D01*
X168337229Y-55655500D01*
X169342672Y-55655500D01*
X169377267Y-55660424D01*
X169522426Y-55702597D01*
X169522429Y-55702597D01*
X169522431Y-55702598D01*
X169559306Y-55705500D01*
X169559314Y-55705500D01*
X171340686Y-55705500D01*
X171340694Y-55705500D01*
X171377569Y-55702598D01*
X171377571Y-55702597D01*
X171377573Y-55702597D01*
X171522733Y-55660424D01*
X171557328Y-55655500D01*
X172575500Y-55655500D01*
X172584185Y-55658050D01*
X172593147Y-55656762D01*
X172617187Y-55667740D01*
X172642539Y-55675185D01*
X172648466Y-55682025D01*
X172656703Y-55685787D01*
X172670992Y-55708021D01*
X172688294Y-55727989D01*
X172690581Y-55738503D01*
X172694477Y-55744565D01*
X172699500Y-55779500D01*
X172699500Y-55833023D01*
X172679815Y-55900062D01*
X172627011Y-55945817D01*
X172599865Y-55953266D01*
X172600068Y-55954124D01*
X172592520Y-55955907D01*
X172457671Y-56006202D01*
X172457664Y-56006206D01*
X172342455Y-56092452D01*
X172342452Y-56092455D01*
X172256206Y-56207664D01*
X172256202Y-56207671D01*
X172205908Y-56342517D01*
X172199501Y-56402116D01*
X172199501Y-56402123D01*
X172199500Y-56402135D01*
X172199500Y-57997870D01*
X172199501Y-57997876D01*
X172205908Y-58057483D01*
X172256202Y-58192328D01*
X172256206Y-58192335D01*
X172342452Y-58307544D01*
X172342455Y-58307547D01*
X172457664Y-58393793D01*
X172457671Y-58393797D01*
X172592517Y-58444091D01*
X172592516Y-58444091D01*
X172599444Y-58444835D01*
X172652127Y-58450500D01*
X174247872Y-58450499D01*
X174307483Y-58444091D01*
X174442331Y-58393796D01*
X174557546Y-58307546D01*
X174643796Y-58192331D01*
X174694091Y-58057483D01*
X174700500Y-57997873D01*
X174700499Y-56402128D01*
X174694091Y-56342517D01*
X174647803Y-56218413D01*
X174643797Y-56207671D01*
X174643793Y-56207664D01*
X174557547Y-56092455D01*
X174557544Y-56092452D01*
X174442335Y-56006206D01*
X174442328Y-56006202D01*
X174307482Y-55955908D01*
X174306858Y-55955761D01*
X174306853Y-55955762D01*
X174306843Y-55955757D01*
X174299938Y-55954126D01*
X174300262Y-55952752D01*
X174277003Y-55942130D01*
X174246688Y-55929571D01*
X174245381Y-55927688D01*
X174243297Y-55926737D01*
X174225560Y-55899138D01*
X174206843Y-55872177D01*
X174206374Y-55869283D01*
X174205523Y-55867959D01*
X174200500Y-55833024D01*
X174200500Y-55694660D01*
X174209939Y-55647207D01*
X174210675Y-55645428D01*
X174221659Y-55618913D01*
X174250500Y-55473918D01*
X174250500Y-55326083D01*
X174237671Y-55261584D01*
X174221659Y-55181087D01*
X174184015Y-55090207D01*
X174165085Y-55044506D01*
X174144551Y-55013774D01*
X174082952Y-54921584D01*
X173978416Y-54817048D01*
X173758549Y-54597181D01*
X173725064Y-54535858D01*
X173730048Y-54466166D01*
X173771920Y-54410233D01*
X173837384Y-54385816D01*
X173846230Y-54385500D01*
X174552770Y-54385500D01*
X174619809Y-54405185D01*
X174640451Y-54421819D01*
X178819086Y-58600454D01*
X178848558Y-58620145D01*
X178892770Y-58649686D01*
X178942005Y-58682584D01*
X178942006Y-58682584D01*
X178942007Y-58682585D01*
X178942009Y-58682586D01*
X179078582Y-58739156D01*
X179078587Y-58739158D01*
X179078591Y-58739158D01*
X179078592Y-58739159D01*
X179223579Y-58768000D01*
X179223582Y-58768000D01*
X179223583Y-58768000D01*
X179371417Y-58768000D01*
X183843126Y-58768000D01*
X183910165Y-58787685D01*
X183930807Y-58804319D01*
X183941955Y-58815467D01*
X183941959Y-58815470D01*
X184086294Y-58904498D01*
X184086297Y-58904499D01*
X184086303Y-58904503D01*
X184247292Y-58957849D01*
X184346655Y-58968000D01*
X185193344Y-58967999D01*
X185193352Y-58967998D01*
X185193355Y-58967998D01*
X185247760Y-58962440D01*
X185292708Y-58957849D01*
X185453697Y-58904503D01*
X185598044Y-58815468D01*
X185601693Y-58811819D01*
X185663016Y-58778334D01*
X185689374Y-58775500D01*
X188607023Y-58775500D01*
X188671171Y-58793382D01*
X188795394Y-58868478D01*
X188957804Y-58919086D01*
X189028384Y-58925500D01*
X189028387Y-58925500D01*
X189691613Y-58925500D01*
X189691616Y-58925500D01*
X189762196Y-58919086D01*
X189924606Y-58868478D01*
X190070185Y-58780472D01*
X190190472Y-58660185D01*
X190278478Y-58514606D01*
X190329086Y-58352196D01*
X190335500Y-58281616D01*
X190335500Y-57768384D01*
X190329086Y-57697804D01*
X190278478Y-57535394D01*
X190190472Y-57389815D01*
X190190470Y-57389813D01*
X190190469Y-57389811D01*
X190137839Y-57337181D01*
X190104354Y-57275858D01*
X190109338Y-57206166D01*
X190151210Y-57150233D01*
X190216674Y-57125816D01*
X190225520Y-57125500D01*
X190758920Y-57125500D01*
X190856462Y-57106096D01*
X190903913Y-57096658D01*
X191040495Y-57040084D01*
X191089729Y-57007186D01*
X191163416Y-56957952D01*
X191902952Y-56218415D01*
X191948331Y-56150500D01*
X191985084Y-56095495D01*
X192016560Y-56019505D01*
X192022071Y-56006202D01*
X192023911Y-56001758D01*
X192041659Y-55958912D01*
X192070500Y-55813917D01*
X192070500Y-55666082D01*
X192070500Y-51936082D01*
X192070500Y-51936079D01*
X192041659Y-51791092D01*
X192041658Y-51791091D01*
X192041658Y-51791087D01*
X192038129Y-51782567D01*
X191985087Y-51654511D01*
X191985080Y-51654498D01*
X191902952Y-51531585D01*
X191876565Y-51505198D01*
X191798416Y-51427049D01*
X191685665Y-51314298D01*
X191333421Y-50962052D01*
X191333414Y-50962046D01*
X191245088Y-50903029D01*
X191244989Y-50902964D01*
X191210495Y-50879916D01*
X191210494Y-50879915D01*
X191210492Y-50879914D01*
X191073917Y-50823343D01*
X191073907Y-50823340D01*
X190928920Y-50794500D01*
X190928918Y-50794500D01*
X190592977Y-50794500D01*
X190528828Y-50776617D01*
X190404606Y-50701522D01*
X190242196Y-50650914D01*
X190242194Y-50650913D01*
X190242192Y-50650913D01*
X190192778Y-50646423D01*
X190171616Y-50644500D01*
X189508384Y-50644500D01*
X189489145Y-50646248D01*
X189437807Y-50650913D01*
X189275393Y-50701522D01*
X189202358Y-50745673D01*
X189151171Y-50776617D01*
X189087023Y-50794500D01*
X188730842Y-50794500D01*
X188663803Y-50774815D01*
X188618048Y-50722011D01*
X188608104Y-50652853D01*
X188611766Y-50635905D01*
X188647597Y-50512573D01*
X188647598Y-50512567D01*
X188650499Y-50475701D01*
X188650500Y-50475694D01*
X188650500Y-50044306D01*
X188647598Y-50007431D01*
X188643246Y-49992452D01*
X188605704Y-49863234D01*
X188601744Y-49849602D01*
X188518081Y-49708135D01*
X188518078Y-49708132D01*
X188513298Y-49701969D01*
X188515750Y-49700066D01*
X188489155Y-49651421D01*
X188494104Y-49581726D01*
X188514940Y-49549304D01*
X188513298Y-49548031D01*
X188518075Y-49541870D01*
X188518081Y-49541865D01*
X188601744Y-49400398D01*
X188647598Y-49242569D01*
X188650500Y-49205694D01*
X188650500Y-48774306D01*
X188647598Y-48737431D01*
X188601744Y-48579602D01*
X188518081Y-48438135D01*
X188518078Y-48438132D01*
X188513298Y-48431969D01*
X188515635Y-48430155D01*
X188488798Y-48381050D01*
X188493756Y-48311356D01*
X188514554Y-48278998D01*
X188512903Y-48277717D01*
X188517686Y-48271550D01*
X188601281Y-48130198D01*
X188647100Y-47972486D01*
X188647295Y-47970001D01*
X188647295Y-47970000D01*
X185702705Y-47970000D01*
X185702704Y-47970001D01*
X185702899Y-47972486D01*
X185748718Y-48130198D01*
X185832314Y-48271552D01*
X185837100Y-48277722D01*
X185834640Y-48279629D01*
X185861210Y-48328288D01*
X185856226Y-48397980D01*
X185835162Y-48430781D01*
X185836699Y-48431974D01*
X185831915Y-48438140D01*
X185748255Y-48579603D01*
X185748254Y-48579606D01*
X185702402Y-48737426D01*
X185702401Y-48737432D01*
X185699500Y-48774298D01*
X185699500Y-49205701D01*
X185702401Y-49242567D01*
X185702402Y-49242573D01*
X185748254Y-49400393D01*
X185748255Y-49400396D01*
X185831917Y-49541862D01*
X185836702Y-49548031D01*
X185834256Y-49549927D01*
X185860857Y-49598642D01*
X185855873Y-49668334D01*
X185846933Y-49687251D01*
X185838810Y-49701243D01*
X185831919Y-49708135D01*
X185748256Y-49849602D01*
X185743811Y-49864900D01*
X185736204Y-49878006D01*
X185721408Y-49892047D01*
X185710431Y-49909236D01*
X185696582Y-49915608D01*
X185685524Y-49926103D01*
X185665487Y-49929916D01*
X185646959Y-49938442D01*
X185631863Y-49936315D01*
X185616886Y-49939166D01*
X185597968Y-49931540D01*
X185577772Y-49928696D01*
X185566222Y-49918745D01*
X185552082Y-49913046D01*
X185540289Y-49896402D01*
X185524838Y-49883091D01*
X185516787Y-49863234D01*
X185511687Y-49856037D01*
X185511412Y-49849979D01*
X185507345Y-49839947D01*
X185491659Y-49761092D01*
X185491658Y-49761091D01*
X185491658Y-49761087D01*
X185491656Y-49761082D01*
X185435087Y-49624511D01*
X185435080Y-49624498D01*
X185352952Y-49501585D01*
X185352951Y-49501584D01*
X185248416Y-49397049D01*
X184588794Y-48737426D01*
X184258421Y-48407052D01*
X184258414Y-48407046D01*
X184184729Y-48357812D01*
X184184729Y-48357813D01*
X184135491Y-48324913D01*
X183998917Y-48268343D01*
X183998907Y-48268340D01*
X183853920Y-48239500D01*
X183853918Y-48239500D01*
X183785200Y-48239500D01*
X183718161Y-48219815D01*
X183672406Y-48167011D01*
X183662462Y-48097853D01*
X183666124Y-48080905D01*
X183697597Y-47972573D01*
X183697598Y-47972567D01*
X183700500Y-47935694D01*
X183700500Y-47504306D01*
X183697800Y-47469998D01*
X185702704Y-47469998D01*
X185702705Y-47470000D01*
X186925000Y-47470000D01*
X187425000Y-47470000D01*
X188647295Y-47470000D01*
X188647295Y-47469998D01*
X188647100Y-47467513D01*
X188601281Y-47309801D01*
X188517685Y-47168447D01*
X188517678Y-47168438D01*
X188401561Y-47052321D01*
X188401552Y-47052314D01*
X188260196Y-46968717D01*
X188260193Y-46968716D01*
X188102495Y-46922900D01*
X188102489Y-46922899D01*
X188065649Y-46920000D01*
X187425000Y-46920000D01*
X187425000Y-47470000D01*
X186925000Y-47470000D01*
X186925000Y-46920000D01*
X186284350Y-46920000D01*
X186247510Y-46922899D01*
X186247504Y-46922900D01*
X186089806Y-46968716D01*
X186089803Y-46968717D01*
X185948447Y-47052314D01*
X185948438Y-47052321D01*
X185832321Y-47168438D01*
X185832314Y-47168447D01*
X185748718Y-47309801D01*
X185702899Y-47467513D01*
X185702704Y-47469998D01*
X183697800Y-47469998D01*
X183697598Y-47467431D01*
X183651744Y-47309602D01*
X183568081Y-47168135D01*
X183568079Y-47168133D01*
X183568076Y-47168129D01*
X183451870Y-47051923D01*
X183451862Y-47051917D01*
X183373681Y-47005681D01*
X183310398Y-46968256D01*
X183310397Y-46968255D01*
X183310396Y-46968255D01*
X183310393Y-46968254D01*
X183152573Y-46922402D01*
X183152567Y-46922401D01*
X183115701Y-46919500D01*
X183115694Y-46919500D01*
X181334306Y-46919500D01*
X181334298Y-46919500D01*
X181297432Y-46922401D01*
X181297426Y-46922402D01*
X181139606Y-46968254D01*
X181139603Y-46968255D01*
X180998137Y-47051917D01*
X180998129Y-47051923D01*
X180881923Y-47168129D01*
X180881917Y-47168137D01*
X180798255Y-47309603D01*
X180798254Y-47309606D01*
X180752402Y-47467426D01*
X180752401Y-47467432D01*
X180749500Y-47504298D01*
X180749500Y-47935701D01*
X180752401Y-47972567D01*
X180752402Y-47972573D01*
X180798254Y-48130393D01*
X180798255Y-48130396D01*
X180881917Y-48271862D01*
X180886702Y-48278031D01*
X180884256Y-48279927D01*
X180910857Y-48328642D01*
X180905873Y-48398334D01*
X180885069Y-48430703D01*
X180886702Y-48431969D01*
X180881917Y-48438137D01*
X180798255Y-48579603D01*
X180798254Y-48579606D01*
X180752402Y-48737426D01*
X180752401Y-48737432D01*
X180749500Y-48774298D01*
X180749500Y-49205701D01*
X180752401Y-49242567D01*
X180752402Y-49242573D01*
X180798254Y-49400393D01*
X180798255Y-49400396D01*
X180881917Y-49541862D01*
X180886702Y-49548031D01*
X180884256Y-49549927D01*
X180910857Y-49598642D01*
X180905873Y-49668334D01*
X180885069Y-49700703D01*
X180886702Y-49701969D01*
X180881917Y-49708137D01*
X180798255Y-49849603D01*
X180798254Y-49849606D01*
X180752402Y-50007426D01*
X180752401Y-50007432D01*
X180749500Y-50044298D01*
X180749500Y-50475701D01*
X180752401Y-50512567D01*
X180752402Y-50512573D01*
X180798254Y-50670393D01*
X180798255Y-50670396D01*
X180881917Y-50811862D01*
X180886702Y-50818031D01*
X180884256Y-50819927D01*
X180910857Y-50868642D01*
X180905873Y-50938334D01*
X180885069Y-50970703D01*
X180886702Y-50971969D01*
X180881917Y-50978137D01*
X180798255Y-51119603D01*
X180798254Y-51119606D01*
X180752402Y-51277426D01*
X180752401Y-51277432D01*
X180749500Y-51314298D01*
X180749500Y-51745701D01*
X180752401Y-51782567D01*
X180752402Y-51782573D01*
X180798254Y-51940393D01*
X180798255Y-51940396D01*
X180798256Y-51940398D01*
X180808360Y-51957483D01*
X180881917Y-52081862D01*
X180881923Y-52081870D01*
X180998129Y-52198076D01*
X180998133Y-52198079D01*
X180998135Y-52198081D01*
X181139602Y-52281744D01*
X181154778Y-52286153D01*
X181297426Y-52327597D01*
X181297429Y-52327597D01*
X181297431Y-52327598D01*
X181334306Y-52330500D01*
X181334314Y-52330500D01*
X183115686Y-52330500D01*
X183115694Y-52330500D01*
X183152569Y-52327598D01*
X183152571Y-52327597D01*
X183152573Y-52327597D01*
X183194191Y-52315505D01*
X183310398Y-52281744D01*
X183451865Y-52198081D01*
X183568081Y-52081865D01*
X183651744Y-51940398D01*
X183697598Y-51782569D01*
X183700500Y-51745694D01*
X183700500Y-51314306D01*
X183697598Y-51277431D01*
X183651744Y-51119602D01*
X183568081Y-50978135D01*
X183568078Y-50978132D01*
X183563298Y-50971969D01*
X183565750Y-50970066D01*
X183539155Y-50921421D01*
X183544104Y-50851726D01*
X183564940Y-50819304D01*
X183563298Y-50818031D01*
X183568075Y-50811870D01*
X183568081Y-50811865D01*
X183651744Y-50670398D01*
X183697598Y-50512569D01*
X183700500Y-50475694D01*
X183700500Y-50271229D01*
X183706738Y-50249983D01*
X183708318Y-50227895D01*
X183716390Y-50217111D01*
X183720185Y-50204190D01*
X183736918Y-50189690D01*
X183750190Y-50171962D01*
X183762810Y-50167254D01*
X183772989Y-50158435D01*
X183794906Y-50155283D01*
X183815654Y-50147545D01*
X183828814Y-50150407D01*
X183842147Y-50148491D01*
X183862290Y-50157690D01*
X183883927Y-50162397D01*
X183901652Y-50175665D01*
X183905703Y-50177516D01*
X183912181Y-50183548D01*
X183983181Y-50254548D01*
X184016666Y-50315871D01*
X184019500Y-50342229D01*
X184019500Y-53802495D01*
X183999815Y-53869534D01*
X183960600Y-53908032D01*
X183941954Y-53919533D01*
X183822029Y-54039459D01*
X183733001Y-54183794D01*
X183732996Y-54183805D01*
X183679651Y-54344790D01*
X183669500Y-54444147D01*
X183669500Y-54990837D01*
X183669501Y-54990855D01*
X183679650Y-55090207D01*
X183679651Y-55090210D01*
X183732996Y-55251194D01*
X183733001Y-55251205D01*
X183822029Y-55395540D01*
X183822032Y-55395544D01*
X183941955Y-55515467D01*
X183941959Y-55515470D01*
X184086294Y-55604498D01*
X184086297Y-55604499D01*
X184086303Y-55604503D01*
X184247292Y-55657849D01*
X184346655Y-55668000D01*
X185193344Y-55667999D01*
X185193352Y-55667998D01*
X185193355Y-55667998D01*
X185263153Y-55660868D01*
X185292708Y-55657849D01*
X185453697Y-55604503D01*
X185598044Y-55515468D01*
X185609193Y-55504319D01*
X185670516Y-55470834D01*
X185696874Y-55468000D01*
X186346420Y-55468000D01*
X186463004Y-55444809D01*
X186491413Y-55439158D01*
X186627995Y-55382584D01*
X186698303Y-55335606D01*
X186698306Y-55335603D01*
X186698308Y-55335603D01*
X186728555Y-55315393D01*
X186750916Y-55300452D01*
X188069548Y-53981818D01*
X188130871Y-53948334D01*
X188157229Y-53945500D01*
X189087023Y-53945500D01*
X189151171Y-53963382D01*
X189275394Y-54038478D01*
X189437804Y-54089086D01*
X189508384Y-54095500D01*
X189508387Y-54095500D01*
X190171613Y-54095500D01*
X190171616Y-54095500D01*
X190242196Y-54089086D01*
X190404606Y-54038478D01*
X190404610Y-54038475D01*
X190408610Y-54037229D01*
X190478470Y-54036079D01*
X190537863Y-54072880D01*
X190567931Y-54135949D01*
X190569500Y-54155615D01*
X190569500Y-55377770D01*
X190560855Y-55407210D01*
X190554332Y-55437197D01*
X190550577Y-55442212D01*
X190549815Y-55444809D01*
X190533181Y-55465451D01*
X190410451Y-55588181D01*
X190349128Y-55621666D01*
X190322770Y-55624500D01*
X190112977Y-55624500D01*
X190048828Y-55606617D01*
X189924606Y-55531522D01*
X189762196Y-55480914D01*
X189762194Y-55480913D01*
X189762192Y-55480913D01*
X189712778Y-55476423D01*
X189691616Y-55474500D01*
X189028384Y-55474500D01*
X189009145Y-55476248D01*
X188957807Y-55480913D01*
X188795393Y-55531522D01*
X188649811Y-55619530D01*
X188529530Y-55739811D01*
X188441522Y-55885393D01*
X188390913Y-56047807D01*
X188384500Y-56118386D01*
X188384500Y-56631613D01*
X188390913Y-56702192D01*
X188441522Y-56864606D01*
X188529530Y-57010188D01*
X188582161Y-57062819D01*
X188615646Y-57124142D01*
X188610662Y-57193834D01*
X188568790Y-57249767D01*
X188503326Y-57274184D01*
X188494480Y-57274500D01*
X185704374Y-57274500D01*
X185637335Y-57254815D01*
X185616693Y-57238181D01*
X185598044Y-57219532D01*
X185598040Y-57219529D01*
X185453705Y-57130501D01*
X185453699Y-57130498D01*
X185453697Y-57130497D01*
X185351571Y-57096656D01*
X185292709Y-57077151D01*
X185193346Y-57067000D01*
X184346662Y-57067000D01*
X184346644Y-57067001D01*
X184247292Y-57077150D01*
X184247289Y-57077151D01*
X184086305Y-57130496D01*
X184086294Y-57130501D01*
X183941959Y-57219529D01*
X183941955Y-57219532D01*
X183930807Y-57230681D01*
X183869484Y-57264166D01*
X183843126Y-57267000D01*
X179659730Y-57267000D01*
X179592691Y-57247315D01*
X179572049Y-57230681D01*
X175393421Y-53052052D01*
X175393414Y-53052046D01*
X175316368Y-53000566D01*
X175316269Y-53000501D01*
X175270495Y-52969916D01*
X175270494Y-52969915D01*
X175270492Y-52969914D01*
X175133917Y-52913343D01*
X175133907Y-52913340D01*
X174988920Y-52884500D01*
X174988918Y-52884500D01*
X173701850Y-52884500D01*
X173634811Y-52864815D01*
X173589056Y-52812011D01*
X173579112Y-52742853D01*
X173587289Y-52713048D01*
X173620238Y-52633501D01*
X173634737Y-52598497D01*
X173665500Y-52443842D01*
X173665500Y-52286158D01*
X173665500Y-52286155D01*
X173665499Y-52286153D01*
X173649863Y-52207546D01*
X173634737Y-52131503D01*
X173618510Y-52092328D01*
X173574397Y-51985827D01*
X173574389Y-51985812D01*
X173559408Y-51963392D01*
X173538529Y-51896715D01*
X173557013Y-51829334D01*
X173608991Y-51782644D01*
X173662509Y-51770500D01*
X174475501Y-51770500D01*
X174542540Y-51790185D01*
X174588295Y-51842989D01*
X174599501Y-51894500D01*
X174599501Y-51897876D01*
X174605908Y-51957483D01*
X174656202Y-52092328D01*
X174656206Y-52092335D01*
X174742452Y-52207544D01*
X174742455Y-52207547D01*
X174857664Y-52293793D01*
X174857671Y-52293797D01*
X174992517Y-52344091D01*
X174992516Y-52344091D01*
X174999444Y-52344835D01*
X175052127Y-52350500D01*
X176647872Y-52350499D01*
X176707483Y-52344091D01*
X176842331Y-52293796D01*
X176957546Y-52207546D01*
X177043796Y-52092331D01*
X177094091Y-51957483D01*
X177100500Y-51897873D01*
X177100499Y-50302128D01*
X177094091Y-50242517D01*
X177088637Y-50227895D01*
X177043797Y-50107671D01*
X177043793Y-50107664D01*
X176957547Y-49992455D01*
X176957544Y-49992452D01*
X176842335Y-49906206D01*
X176842328Y-49906202D01*
X176707482Y-49855908D01*
X176707483Y-49855908D01*
X176647883Y-49849501D01*
X176647881Y-49849500D01*
X176647873Y-49849500D01*
X176647864Y-49849500D01*
X175052129Y-49849500D01*
X175052123Y-49849501D01*
X174992516Y-49855908D01*
X174857671Y-49906202D01*
X174857664Y-49906206D01*
X174742455Y-49992452D01*
X174742452Y-49992455D01*
X174656206Y-50107664D01*
X174656202Y-50107671D01*
X174605908Y-50242517D01*
X174599499Y-50302127D01*
X174599498Y-50302162D01*
X174599495Y-50302169D01*
X174599145Y-50305428D01*
X174598374Y-50305345D01*
X174576240Y-50368047D01*
X174521054Y-50410899D01*
X174475677Y-50419500D01*
X173372520Y-50419500D01*
X173305481Y-50399815D01*
X173303628Y-50398601D01*
X173284186Y-50385610D01*
X173284172Y-50385602D01*
X173138501Y-50325264D01*
X173138489Y-50325261D01*
X172983845Y-50294500D01*
X172983842Y-50294500D01*
X172826158Y-50294500D01*
X172826155Y-50294500D01*
X172671510Y-50325261D01*
X172671498Y-50325264D01*
X172525827Y-50385602D01*
X172525813Y-50385610D01*
X172506372Y-50398601D01*
X172439695Y-50419480D01*
X172437480Y-50419500D01*
X171698242Y-50419500D01*
X171635121Y-50402232D01*
X171631034Y-50399815D01*
X171535398Y-50343256D01*
X171535397Y-50343255D01*
X171535396Y-50343255D01*
X171535393Y-50343254D01*
X171377573Y-50297402D01*
X171377567Y-50297401D01*
X171340701Y-50294500D01*
X171340694Y-50294500D01*
X169559306Y-50294500D01*
X169559298Y-50294500D01*
X169522432Y-50297401D01*
X169522426Y-50297402D01*
X169364606Y-50343254D01*
X169364603Y-50343255D01*
X169223137Y-50426917D01*
X169223129Y-50426923D01*
X169106923Y-50543129D01*
X169106917Y-50543137D01*
X169023255Y-50684603D01*
X169023254Y-50684606D01*
X168977402Y-50842426D01*
X168977401Y-50842432D01*
X168974500Y-50879298D01*
X168974500Y-51310701D01*
X168977401Y-51347567D01*
X168977402Y-51347573D01*
X169023254Y-51505393D01*
X169023255Y-51505396D01*
X169106917Y-51646862D01*
X169111702Y-51653031D01*
X169109256Y-51654927D01*
X169135857Y-51703642D01*
X169130873Y-51773334D01*
X169110069Y-51805703D01*
X169111702Y-51806969D01*
X169106917Y-51813137D01*
X169023255Y-51954603D01*
X169023254Y-51954606D01*
X168977402Y-52112426D01*
X168977401Y-52112432D01*
X168974500Y-52149298D01*
X168974500Y-52580701D01*
X168977401Y-52617567D01*
X168977402Y-52617573D01*
X169023254Y-52775393D01*
X169026353Y-52782554D01*
X169024279Y-52783451D01*
X169038654Y-52840098D01*
X169016497Y-52906361D01*
X168962033Y-52950127D01*
X168914739Y-52959500D01*
X167035261Y-52959500D01*
X166968222Y-52939815D01*
X166922467Y-52887011D01*
X166912523Y-52817853D01*
X166924776Y-52783042D01*
X166923647Y-52782554D01*
X166926739Y-52775405D01*
X166926744Y-52775398D01*
X166967969Y-52633501D01*
X166972597Y-52617573D01*
X166972598Y-52617567D01*
X166973032Y-52612048D01*
X166975500Y-52580694D01*
X166975500Y-52149306D01*
X166972598Y-52112431D01*
X166966758Y-52092331D01*
X166926745Y-51954606D01*
X166926744Y-51954603D01*
X166926744Y-51954602D01*
X166843081Y-51813135D01*
X166843078Y-51813132D01*
X166838298Y-51806969D01*
X166840635Y-51805155D01*
X166813798Y-51756050D01*
X166818756Y-51686356D01*
X166839554Y-51653998D01*
X166837903Y-51652717D01*
X166842686Y-51646550D01*
X166926281Y-51505198D01*
X166972100Y-51347486D01*
X166972295Y-51345001D01*
X166972295Y-51345000D01*
X164027705Y-51345000D01*
X164027704Y-51345001D01*
X164027899Y-51347486D01*
X164073719Y-51505200D01*
X164076815Y-51512354D01*
X164074802Y-51513224D01*
X164089233Y-51570105D01*
X164067073Y-51636367D01*
X164012606Y-51680129D01*
X163965319Y-51689500D01*
X162451173Y-51689500D01*
X162403721Y-51680061D01*
X162283498Y-51630263D01*
X162283488Y-51630260D01*
X162128845Y-51599500D01*
X162128842Y-51599500D01*
X161971158Y-51599500D01*
X161971155Y-51599500D01*
X161816510Y-51630261D01*
X161816498Y-51630264D01*
X161670827Y-51690602D01*
X161670814Y-51690609D01*
X161539711Y-51778210D01*
X161539707Y-51778213D01*
X161428213Y-51889707D01*
X161428210Y-51889711D01*
X161340609Y-52020814D01*
X161340602Y-52020827D01*
X161280264Y-52166498D01*
X161280261Y-52166510D01*
X161249500Y-52321153D01*
X161249500Y-52478846D01*
X161280261Y-52633489D01*
X161280264Y-52633501D01*
X161340602Y-52779172D01*
X161340609Y-52779185D01*
X161428210Y-52910288D01*
X161428213Y-52910292D01*
X161539707Y-53021786D01*
X161539711Y-53021789D01*
X161670814Y-53109390D01*
X161670827Y-53109397D01*
X161816498Y-53169735D01*
X161816503Y-53169737D01*
X161971153Y-53200499D01*
X161971156Y-53200500D01*
X161971158Y-53200500D01*
X162128844Y-53200500D01*
X162128845Y-53200499D01*
X162283497Y-53169737D01*
X162429179Y-53109394D01*
X162501010Y-53061398D01*
X162567687Y-53040520D01*
X162569901Y-53040500D01*
X163964739Y-53040500D01*
X164031778Y-53060185D01*
X164077533Y-53112989D01*
X164087477Y-53182147D01*
X164075223Y-53216957D01*
X164076353Y-53217446D01*
X164073254Y-53224606D01*
X164027402Y-53382426D01*
X164027401Y-53382432D01*
X164024500Y-53419298D01*
X164024500Y-53850701D01*
X164027401Y-53887567D01*
X164027402Y-53887573D01*
X164073254Y-54045393D01*
X164073255Y-54045396D01*
X164156917Y-54186862D01*
X164161702Y-54193031D01*
X164159256Y-54194927D01*
X164185857Y-54243642D01*
X164180873Y-54313334D01*
X164160069Y-54345703D01*
X164161702Y-54346969D01*
X164156917Y-54353137D01*
X164073255Y-54494603D01*
X164073254Y-54494606D01*
X164027402Y-54652426D01*
X164027401Y-54652432D01*
X164024500Y-54689298D01*
X164024500Y-55120701D01*
X164027401Y-55157567D01*
X164027402Y-55157573D01*
X164073254Y-55315393D01*
X164073255Y-55315396D01*
X164156917Y-55456862D01*
X164156923Y-55456870D01*
X164273129Y-55573076D01*
X164273133Y-55573079D01*
X164273135Y-55573081D01*
X164414602Y-55656744D01*
X164420075Y-55658334D01*
X164572426Y-55702597D01*
X164572429Y-55702597D01*
X164572431Y-55702598D01*
X164609306Y-55705500D01*
X165813771Y-55705500D01*
X165880810Y-55725185D01*
X165926565Y-55777989D01*
X165936509Y-55847147D01*
X165907484Y-55910703D01*
X165901452Y-55917181D01*
X162267050Y-59551580D01*
X162267044Y-59551588D01*
X162217812Y-59625268D01*
X162217813Y-59625269D01*
X162184921Y-59674496D01*
X162184914Y-59674508D01*
X162128342Y-59811086D01*
X162128340Y-59811092D01*
X162099500Y-59956079D01*
X162099500Y-66155396D01*
X162090062Y-66202844D01*
X162080263Y-66226503D01*
X162080262Y-66226506D01*
X162080260Y-66226511D01*
X162049500Y-66381153D01*
X162049500Y-66538846D01*
X162080261Y-66693489D01*
X162080264Y-66693501D01*
X162142937Y-66844808D01*
X162141799Y-66845279D01*
X162154718Y-66907355D01*
X162129712Y-66972596D01*
X162073403Y-67013961D01*
X162006928Y-67019010D01*
X161908845Y-66999500D01*
X161908842Y-66999500D01*
X161751158Y-66999500D01*
X161751155Y-66999500D01*
X161596510Y-67030261D01*
X161596498Y-67030264D01*
X161450827Y-67090602D01*
X161450814Y-67090609D01*
X161319711Y-67178210D01*
X161319707Y-67178213D01*
X161208213Y-67289707D01*
X161208210Y-67289711D01*
X161120609Y-67420814D01*
X161120602Y-67420827D01*
X161060264Y-67566498D01*
X161060261Y-67566510D01*
X161029500Y-67721153D01*
X143500500Y-67721153D01*
X143500500Y-50844998D01*
X164027704Y-50844998D01*
X164027705Y-50845000D01*
X165250000Y-50845000D01*
X165750000Y-50845000D01*
X166972295Y-50845000D01*
X166972295Y-50844998D01*
X166972100Y-50842513D01*
X166926281Y-50684801D01*
X166842685Y-50543447D01*
X166842678Y-50543438D01*
X166726561Y-50427321D01*
X166726552Y-50427314D01*
X166585196Y-50343717D01*
X166585193Y-50343716D01*
X166427495Y-50297900D01*
X166427489Y-50297899D01*
X166390649Y-50295000D01*
X165750000Y-50295000D01*
X165750000Y-50845000D01*
X165250000Y-50845000D01*
X165250000Y-50295000D01*
X164609350Y-50295000D01*
X164572510Y-50297899D01*
X164572504Y-50297900D01*
X164414806Y-50343716D01*
X164414803Y-50343717D01*
X164273447Y-50427314D01*
X164273438Y-50427321D01*
X164157321Y-50543438D01*
X164157314Y-50543447D01*
X164073718Y-50684801D01*
X164027899Y-50842513D01*
X164027704Y-50844998D01*
X143500500Y-50844998D01*
X143500500Y-44624500D01*
X143520185Y-44557461D01*
X143572989Y-44511706D01*
X143624500Y-44500500D01*
X192375500Y-44500500D01*
X192442539Y-44520185D01*
G37*
%TD.AperFunction*%
%TD*%
M02*
