%TF.GenerationSoftware,KiCad,Pcbnew,10.0.4*%
%TF.CreationDate,2026-07-01T17:27:19-04:00*%
%TF.ProjectId,pulsed_current_test_circuit,70756c73-6564-45f6-9375-7272656e745f,rev?*%
%TF.SameCoordinates,Original*%
%TF.FileFunction,Copper,L2,Bot*%
%TF.FilePolarity,Positive*%
%FSLAX46Y46*%
G04 Gerber Fmt 4.6, Leading zero omitted, Abs format (unit mm)*
G04 Created by KiCad (PCBNEW 10.0.4) date 2026-07-01 17:27:19*
%MOMM*%
%LPD*%
G01*
G04 APERTURE LIST*
%TA.AperFunction,SMDPad,CuDef*%
%ADD10R,3.150000X1.000000*%
%TD*%
%TA.AperFunction,ViaPad*%
%ADD11C,0.600000*%
%TD*%
%TA.AperFunction,Conductor*%
%ADD12C,0.500000*%
%TD*%
%TA.AperFunction,Conductor*%
%ADD13C,0.200000*%
%TD*%
G04 APERTURE END LIST*
D10*
%TO.P,J2,1,Pin_1_1*%
%TO.N,/5V_SW*%
X183325000Y-66500000D03*
%TO.P,J2,2,Pin_2_2*%
%TO.N,GND*%
X178275000Y-66500000D03*
%TO.P,J2,3,Pin_3_3*%
%TO.N,/IN3*%
X183325000Y-69040000D03*
%TO.P,J2,4,Pin_4_4*%
%TO.N,/IN4*%
X178275000Y-69040000D03*
%TO.P,J2,5,Pin_5_5*%
%TO.N,/IN5*%
X183325000Y-71580000D03*
%TO.P,J2,6,Pin_6_6*%
%TO.N,/IN6*%
X178275000Y-71580000D03*
%TD*%
%TO.P,J1,1,Pin_1_1*%
%TO.N,/P1+*%
X157025000Y-66460000D03*
%TO.P,J1,2,Pin_2_2*%
%TO.N,GND*%
X151975000Y-66460000D03*
%TO.P,J1,3,Pin_3_3*%
%TO.N,/P2+*%
X157025000Y-69000000D03*
%TO.P,J1,4,Pin_4_4*%
%TO.N,GND*%
X151975000Y-69000000D03*
%TO.P,J1,5,Pin_5_5*%
%TO.N,/P3+*%
X157025000Y-71540000D03*
%TO.P,J1,6,Pin_6_6*%
%TO.N,GND*%
X151975000Y-71540000D03*
%TD*%
D11*
%TO.N,GND*%
X161830000Y-67800000D03*
X162800000Y-80700000D03*
X172905000Y-51095000D03*
X174130000Y-79440000D03*
X173170000Y-66500000D03*
X174120000Y-80630000D03*
X172865000Y-52365000D03*
X173170000Y-67810000D03*
X162050000Y-52400000D03*
%TO.N,/P2+*%
X162830000Y-69010000D03*
%TO.N,/P3+*%
X162880000Y-71540000D03*
%TO.N,/P1+*%
X162850000Y-66460000D03*
%TO.N,/5V_SW*%
X189000000Y-66500000D03*
%TD*%
%TO.N,/P2+*%
D12*
X162820000Y-69000000D02*
X158300000Y-69000000D01*
D13*
X162830000Y-69010000D02*
X162820000Y-69000000D01*
%TO.N,/P3+*%
D12*
X162880000Y-71540000D02*
X158300000Y-71540000D01*
%TO.N,/P1+*%
X162850000Y-66460000D02*
X158300000Y-66460000D01*
%TO.N,/5V_SW*%
X184600000Y-66500000D02*
X189000000Y-66500000D01*
%TD*%
%TA.AperFunction,Conductor*%
%TO.N,GND*%
G36*
X192442539Y-44520185D02*
G01*
X192488294Y-44572989D01*
X192499500Y-44624500D01*
X192499500Y-93375500D01*
X192479815Y-93442539D01*
X192427011Y-93488294D01*
X192375500Y-93499500D01*
X143624500Y-93499500D01*
X143557461Y-93479815D01*
X143511706Y-93427011D01*
X143500500Y-93375500D01*
X143500500Y-72087844D01*
X149900000Y-72087844D01*
X149906401Y-72147372D01*
X149906403Y-72147379D01*
X149956645Y-72282086D01*
X149956649Y-72282093D01*
X150042809Y-72397187D01*
X150042812Y-72397190D01*
X150157906Y-72483350D01*
X150157913Y-72483354D01*
X150292620Y-72533596D01*
X150292627Y-72533598D01*
X150352155Y-72539999D01*
X150352172Y-72540000D01*
X151725000Y-72540000D01*
X152225000Y-72540000D01*
X153597828Y-72540000D01*
X153597844Y-72539999D01*
X153657372Y-72533598D01*
X153657379Y-72533596D01*
X153792086Y-72483354D01*
X153792093Y-72483350D01*
X153907187Y-72397190D01*
X153907190Y-72397187D01*
X153993350Y-72282093D01*
X153993354Y-72282086D01*
X154043596Y-72147379D01*
X154043598Y-72147372D01*
X154049999Y-72087844D01*
X154050000Y-72087827D01*
X154050000Y-71790000D01*
X152225000Y-71790000D01*
X152225000Y-72540000D01*
X151725000Y-72540000D01*
X151725000Y-71790000D01*
X149900000Y-71790000D01*
X149900000Y-72087844D01*
X143500500Y-72087844D01*
X143500500Y-70992155D01*
X149900000Y-70992155D01*
X149900000Y-71290000D01*
X151725000Y-71290000D01*
X152225000Y-71290000D01*
X154050000Y-71290000D01*
X154050000Y-70992164D01*
X154049997Y-70992135D01*
X154949500Y-70992135D01*
X154949500Y-72087870D01*
X154949501Y-72087876D01*
X154955908Y-72147483D01*
X155006202Y-72282328D01*
X155006206Y-72282335D01*
X155092452Y-72397544D01*
X155092455Y-72397547D01*
X155207664Y-72483793D01*
X155207671Y-72483797D01*
X155342517Y-72534091D01*
X155342516Y-72534091D01*
X155349444Y-72534835D01*
X155402127Y-72540500D01*
X158647872Y-72540499D01*
X158707483Y-72534091D01*
X158842331Y-72483796D01*
X158957546Y-72397546D01*
X159000252Y-72340499D01*
X159000485Y-72340188D01*
X159056419Y-72298318D01*
X159099751Y-72290500D01*
X162575396Y-72290500D01*
X162622844Y-72299937D01*
X162646503Y-72309737D01*
X162646508Y-72309738D01*
X162646511Y-72309739D01*
X162801153Y-72340499D01*
X162801156Y-72340500D01*
X162801158Y-72340500D01*
X162958844Y-72340500D01*
X162958845Y-72340499D01*
X163113497Y-72309737D01*
X163259179Y-72249394D01*
X163390289Y-72161789D01*
X163501789Y-72050289D01*
X163589394Y-71919179D01*
X163649737Y-71773497D01*
X163680500Y-71618842D01*
X163680500Y-71461158D01*
X163680500Y-71461155D01*
X163680499Y-71461153D01*
X163649738Y-71306510D01*
X163649737Y-71306503D01*
X163642901Y-71290000D01*
X163589397Y-71160827D01*
X163589395Y-71160823D01*
X163589394Y-71160821D01*
X163503409Y-71032135D01*
X176199500Y-71032135D01*
X176199500Y-72127870D01*
X176199501Y-72127876D01*
X176205908Y-72187483D01*
X176256202Y-72322328D01*
X176256206Y-72322335D01*
X176342452Y-72437544D01*
X176342455Y-72437547D01*
X176457664Y-72523793D01*
X176457671Y-72523797D01*
X176592517Y-72574091D01*
X176592516Y-72574091D01*
X176599444Y-72574835D01*
X176652127Y-72580500D01*
X179897872Y-72580499D01*
X179957483Y-72574091D01*
X180092331Y-72523796D01*
X180207546Y-72437546D01*
X180293796Y-72322331D01*
X180344091Y-72187483D01*
X180350500Y-72127873D01*
X180350499Y-71032135D01*
X181249500Y-71032135D01*
X181249500Y-72127870D01*
X181249501Y-72127876D01*
X181255908Y-72187483D01*
X181306202Y-72322328D01*
X181306206Y-72322335D01*
X181392452Y-72437544D01*
X181392455Y-72437547D01*
X181507664Y-72523793D01*
X181507671Y-72523797D01*
X181642517Y-72574091D01*
X181642516Y-72574091D01*
X181649444Y-72574835D01*
X181702127Y-72580500D01*
X184947872Y-72580499D01*
X185007483Y-72574091D01*
X185142331Y-72523796D01*
X185257546Y-72437546D01*
X185343796Y-72322331D01*
X185394091Y-72187483D01*
X185400500Y-72127873D01*
X185400499Y-71032128D01*
X185394091Y-70972517D01*
X185379210Y-70932620D01*
X185343797Y-70837671D01*
X185343793Y-70837664D01*
X185257547Y-70722455D01*
X185257544Y-70722452D01*
X185142335Y-70636206D01*
X185142328Y-70636202D01*
X185007482Y-70585908D01*
X185007483Y-70585908D01*
X184947883Y-70579501D01*
X184947881Y-70579500D01*
X184947873Y-70579500D01*
X184947864Y-70579500D01*
X181702129Y-70579500D01*
X181702123Y-70579501D01*
X181642516Y-70585908D01*
X181507671Y-70636202D01*
X181507664Y-70636206D01*
X181392455Y-70722452D01*
X181392452Y-70722455D01*
X181306206Y-70837664D01*
X181306202Y-70837671D01*
X181255908Y-70972517D01*
X181249760Y-71029710D01*
X181249501Y-71032123D01*
X181249500Y-71032135D01*
X180350499Y-71032135D01*
X180350499Y-71032128D01*
X180344091Y-70972517D01*
X180329210Y-70932620D01*
X180293797Y-70837671D01*
X180293793Y-70837664D01*
X180207547Y-70722455D01*
X180207544Y-70722452D01*
X180092335Y-70636206D01*
X180092328Y-70636202D01*
X179957482Y-70585908D01*
X179957483Y-70585908D01*
X179897883Y-70579501D01*
X179897881Y-70579500D01*
X179897873Y-70579500D01*
X179897864Y-70579500D01*
X176652129Y-70579500D01*
X176652123Y-70579501D01*
X176592516Y-70585908D01*
X176457671Y-70636202D01*
X176457664Y-70636206D01*
X176342455Y-70722452D01*
X176342452Y-70722455D01*
X176256206Y-70837664D01*
X176256202Y-70837671D01*
X176205908Y-70972517D01*
X176199760Y-71029710D01*
X176199501Y-71032123D01*
X176199500Y-71032135D01*
X163503409Y-71032135D01*
X163501789Y-71029710D01*
X163390292Y-70918213D01*
X163390288Y-70918210D01*
X163259185Y-70830609D01*
X163259172Y-70830602D01*
X163113501Y-70770264D01*
X163113489Y-70770261D01*
X162958845Y-70739500D01*
X162958842Y-70739500D01*
X162801158Y-70739500D01*
X162801155Y-70739500D01*
X162646511Y-70770260D01*
X162646506Y-70770262D01*
X162646504Y-70770262D01*
X162646503Y-70770263D01*
X162622844Y-70780062D01*
X162575396Y-70789500D01*
X159099751Y-70789500D01*
X159032712Y-70769815D01*
X159000485Y-70739812D01*
X158957548Y-70682457D01*
X158957546Y-70682454D01*
X158895767Y-70636206D01*
X158842335Y-70596206D01*
X158842328Y-70596202D01*
X158707482Y-70545908D01*
X158707483Y-70545908D01*
X158647883Y-70539501D01*
X158647881Y-70539500D01*
X158647873Y-70539500D01*
X158647864Y-70539500D01*
X155402129Y-70539500D01*
X155402123Y-70539501D01*
X155342516Y-70545908D01*
X155207671Y-70596202D01*
X155207664Y-70596206D01*
X155092455Y-70682452D01*
X155092452Y-70682455D01*
X155006206Y-70797664D01*
X155006202Y-70797671D01*
X154955908Y-70932517D01*
X154949501Y-70992116D01*
X154949500Y-70992135D01*
X154049997Y-70992135D01*
X154043598Y-70932627D01*
X154043596Y-70932620D01*
X153993354Y-70797913D01*
X153993350Y-70797906D01*
X153907190Y-70682812D01*
X153907187Y-70682809D01*
X153792093Y-70596649D01*
X153792086Y-70596645D01*
X153657379Y-70546403D01*
X153657372Y-70546401D01*
X153597844Y-70540000D01*
X152225000Y-70540000D01*
X152225000Y-71290000D01*
X151725000Y-71290000D01*
X151725000Y-70540000D01*
X150352155Y-70540000D01*
X150292627Y-70546401D01*
X150292620Y-70546403D01*
X150157913Y-70596645D01*
X150157906Y-70596649D01*
X150042812Y-70682809D01*
X150042809Y-70682812D01*
X149956649Y-70797906D01*
X149956645Y-70797913D01*
X149906403Y-70932620D01*
X149906401Y-70932627D01*
X149900000Y-70992155D01*
X143500500Y-70992155D01*
X143500500Y-69547844D01*
X149900000Y-69547844D01*
X149906401Y-69607372D01*
X149906403Y-69607379D01*
X149956645Y-69742086D01*
X149956649Y-69742093D01*
X150042809Y-69857187D01*
X150042812Y-69857190D01*
X150157906Y-69943350D01*
X150157913Y-69943354D01*
X150292620Y-69993596D01*
X150292627Y-69993598D01*
X150352155Y-69999999D01*
X150352172Y-70000000D01*
X151725000Y-70000000D01*
X152225000Y-70000000D01*
X153597828Y-70000000D01*
X153597844Y-69999999D01*
X153657372Y-69993598D01*
X153657379Y-69993596D01*
X153792086Y-69943354D01*
X153792093Y-69943350D01*
X153907187Y-69857190D01*
X153907190Y-69857187D01*
X153993350Y-69742093D01*
X153993354Y-69742086D01*
X154043596Y-69607379D01*
X154043598Y-69607372D01*
X154049999Y-69547844D01*
X154050000Y-69547827D01*
X154050000Y-69250000D01*
X152225000Y-69250000D01*
X152225000Y-70000000D01*
X151725000Y-70000000D01*
X151725000Y-69250000D01*
X149900000Y-69250000D01*
X149900000Y-69547844D01*
X143500500Y-69547844D01*
X143500500Y-68452155D01*
X149900000Y-68452155D01*
X149900000Y-68750000D01*
X151725000Y-68750000D01*
X152225000Y-68750000D01*
X154050000Y-68750000D01*
X154050000Y-68452164D01*
X154049997Y-68452135D01*
X154949500Y-68452135D01*
X154949500Y-69547870D01*
X154949501Y-69547876D01*
X154955908Y-69607483D01*
X155006202Y-69742328D01*
X155006206Y-69742335D01*
X155092452Y-69857544D01*
X155092455Y-69857547D01*
X155207664Y-69943793D01*
X155207671Y-69943797D01*
X155342517Y-69994091D01*
X155342516Y-69994091D01*
X155349444Y-69994835D01*
X155402127Y-70000500D01*
X158647872Y-70000499D01*
X158707483Y-69994091D01*
X158842331Y-69943796D01*
X158957546Y-69857546D01*
X158992766Y-69810499D01*
X159000485Y-69800188D01*
X159056419Y-69758318D01*
X159099751Y-69750500D01*
X162501254Y-69750500D01*
X162548705Y-69759938D01*
X162596503Y-69779737D01*
X162596506Y-69779737D01*
X162596511Y-69779739D01*
X162751153Y-69810499D01*
X162751156Y-69810500D01*
X162751158Y-69810500D01*
X162908844Y-69810500D01*
X162908845Y-69810499D01*
X163063497Y-69779737D01*
X163209179Y-69719394D01*
X163340289Y-69631789D01*
X163451789Y-69520289D01*
X163539394Y-69389179D01*
X163599737Y-69243497D01*
X163630500Y-69088842D01*
X163630500Y-68931158D01*
X163630500Y-68931155D01*
X163630499Y-68931153D01*
X163599738Y-68776510D01*
X163599737Y-68776503D01*
X163588759Y-68750000D01*
X163539397Y-68630827D01*
X163539390Y-68630814D01*
X163490535Y-68557697D01*
X163451789Y-68499711D01*
X163451786Y-68499707D01*
X163444214Y-68492135D01*
X176199500Y-68492135D01*
X176199500Y-69587870D01*
X176199501Y-69587876D01*
X176205908Y-69647483D01*
X176256202Y-69782328D01*
X176256206Y-69782335D01*
X176342452Y-69897544D01*
X176342455Y-69897547D01*
X176457664Y-69983793D01*
X176457671Y-69983797D01*
X176592517Y-70034091D01*
X176592516Y-70034091D01*
X176599444Y-70034835D01*
X176652127Y-70040500D01*
X179897872Y-70040499D01*
X179957483Y-70034091D01*
X180092331Y-69983796D01*
X180207546Y-69897546D01*
X180293796Y-69782331D01*
X180344091Y-69647483D01*
X180350500Y-69587873D01*
X180350499Y-68492135D01*
X181249500Y-68492135D01*
X181249500Y-69587870D01*
X181249501Y-69587876D01*
X181255908Y-69647483D01*
X181306202Y-69782328D01*
X181306206Y-69782335D01*
X181392452Y-69897544D01*
X181392455Y-69897547D01*
X181507664Y-69983793D01*
X181507671Y-69983797D01*
X181642517Y-70034091D01*
X181642516Y-70034091D01*
X181649444Y-70034835D01*
X181702127Y-70040500D01*
X184947872Y-70040499D01*
X185007483Y-70034091D01*
X185142331Y-69983796D01*
X185257546Y-69897546D01*
X185343796Y-69782331D01*
X185394091Y-69647483D01*
X185400500Y-69587873D01*
X185400499Y-68492128D01*
X185394091Y-68432517D01*
X185379210Y-68392620D01*
X185343797Y-68297671D01*
X185343793Y-68297664D01*
X185257547Y-68182455D01*
X185257544Y-68182452D01*
X185142335Y-68096206D01*
X185142328Y-68096202D01*
X185007482Y-68045908D01*
X185007483Y-68045908D01*
X184947883Y-68039501D01*
X184947881Y-68039500D01*
X184947873Y-68039500D01*
X184947864Y-68039500D01*
X181702129Y-68039500D01*
X181702123Y-68039501D01*
X181642516Y-68045908D01*
X181507671Y-68096202D01*
X181507664Y-68096206D01*
X181392455Y-68182452D01*
X181392452Y-68182455D01*
X181306206Y-68297664D01*
X181306202Y-68297671D01*
X181255908Y-68432517D01*
X181249501Y-68492116D01*
X181249501Y-68492123D01*
X181249500Y-68492135D01*
X180350499Y-68492135D01*
X180350499Y-68492128D01*
X180344091Y-68432517D01*
X180329210Y-68392620D01*
X180293797Y-68297671D01*
X180293793Y-68297664D01*
X180207547Y-68182455D01*
X180207544Y-68182452D01*
X180092335Y-68096206D01*
X180092328Y-68096202D01*
X179957482Y-68045908D01*
X179957483Y-68045908D01*
X179897883Y-68039501D01*
X179897881Y-68039500D01*
X179897873Y-68039500D01*
X179897864Y-68039500D01*
X176652129Y-68039500D01*
X176652123Y-68039501D01*
X176592516Y-68045908D01*
X176457671Y-68096202D01*
X176457664Y-68096206D01*
X176342455Y-68182452D01*
X176342452Y-68182455D01*
X176256206Y-68297664D01*
X176256202Y-68297671D01*
X176205908Y-68432517D01*
X176199501Y-68492116D01*
X176199501Y-68492123D01*
X176199500Y-68492135D01*
X163444214Y-68492135D01*
X163340292Y-68388213D01*
X163340288Y-68388210D01*
X163209185Y-68300609D01*
X163209172Y-68300602D01*
X163063501Y-68240264D01*
X163063489Y-68240261D01*
X162908845Y-68209500D01*
X162908842Y-68209500D01*
X162751158Y-68209500D01*
X162751155Y-68209500D01*
X162596510Y-68240261D01*
X162590676Y-68242031D01*
X162590471Y-68241358D01*
X162549538Y-68249500D01*
X159099751Y-68249500D01*
X159032712Y-68229815D01*
X159000485Y-68199812D01*
X158957548Y-68142457D01*
X158957546Y-68142454D01*
X158895767Y-68096206D01*
X158842335Y-68056206D01*
X158842328Y-68056202D01*
X158707482Y-68005908D01*
X158707483Y-68005908D01*
X158647883Y-67999501D01*
X158647881Y-67999500D01*
X158647873Y-67999500D01*
X158647864Y-67999500D01*
X155402129Y-67999500D01*
X155402123Y-67999501D01*
X155342516Y-68005908D01*
X155207671Y-68056202D01*
X155207664Y-68056206D01*
X155092455Y-68142452D01*
X155092452Y-68142455D01*
X155006206Y-68257664D01*
X155006202Y-68257671D01*
X154955908Y-68392517D01*
X154949501Y-68452116D01*
X154949500Y-68452135D01*
X154049997Y-68452135D01*
X154043598Y-68392627D01*
X154043596Y-68392620D01*
X153993354Y-68257913D01*
X153993350Y-68257906D01*
X153907190Y-68142812D01*
X153907187Y-68142809D01*
X153792093Y-68056649D01*
X153792086Y-68056645D01*
X153657379Y-68006403D01*
X153657372Y-68006401D01*
X153597844Y-68000000D01*
X152225000Y-68000000D01*
X152225000Y-68750000D01*
X151725000Y-68750000D01*
X151725000Y-68000000D01*
X150352155Y-68000000D01*
X150292627Y-68006401D01*
X150292620Y-68006403D01*
X150157913Y-68056645D01*
X150157906Y-68056649D01*
X150042812Y-68142809D01*
X150042809Y-68142812D01*
X149956649Y-68257906D01*
X149956645Y-68257913D01*
X149906403Y-68392620D01*
X149906401Y-68392627D01*
X149900000Y-68452155D01*
X143500500Y-68452155D01*
X143500500Y-67007844D01*
X149900000Y-67007844D01*
X149906401Y-67067372D01*
X149906403Y-67067379D01*
X149956645Y-67202086D01*
X149956649Y-67202093D01*
X150042809Y-67317187D01*
X150042812Y-67317190D01*
X150157906Y-67403350D01*
X150157913Y-67403354D01*
X150292620Y-67453596D01*
X150292627Y-67453598D01*
X150352155Y-67459999D01*
X150352172Y-67460000D01*
X151725000Y-67460000D01*
X152225000Y-67460000D01*
X153597828Y-67460000D01*
X153597844Y-67459999D01*
X153657372Y-67453598D01*
X153657379Y-67453596D01*
X153792086Y-67403354D01*
X153792093Y-67403350D01*
X153907187Y-67317190D01*
X153907190Y-67317187D01*
X153993350Y-67202093D01*
X153993354Y-67202086D01*
X154043596Y-67067379D01*
X154043598Y-67067372D01*
X154049999Y-67007844D01*
X154050000Y-67007827D01*
X154050000Y-66710000D01*
X152225000Y-66710000D01*
X152225000Y-67460000D01*
X151725000Y-67460000D01*
X151725000Y-66710000D01*
X149900000Y-66710000D01*
X149900000Y-67007844D01*
X143500500Y-67007844D01*
X143500500Y-65912155D01*
X149900000Y-65912155D01*
X149900000Y-66210000D01*
X151725000Y-66210000D01*
X152225000Y-66210000D01*
X154050000Y-66210000D01*
X154050000Y-65912164D01*
X154049997Y-65912135D01*
X154949500Y-65912135D01*
X154949500Y-67007870D01*
X154949501Y-67007876D01*
X154955908Y-67067483D01*
X155006202Y-67202328D01*
X155006206Y-67202335D01*
X155092452Y-67317544D01*
X155092455Y-67317547D01*
X155207664Y-67403793D01*
X155207671Y-67403797D01*
X155342517Y-67454091D01*
X155342516Y-67454091D01*
X155349444Y-67454835D01*
X155402127Y-67460500D01*
X158647872Y-67460499D01*
X158707483Y-67454091D01*
X158842331Y-67403796D01*
X158957546Y-67317546D01*
X158984227Y-67281903D01*
X159000485Y-67260188D01*
X159056419Y-67218318D01*
X159099751Y-67210500D01*
X162545396Y-67210500D01*
X162592844Y-67219937D01*
X162616503Y-67229737D01*
X162616508Y-67229738D01*
X162616511Y-67229739D01*
X162771153Y-67260499D01*
X162771156Y-67260500D01*
X162771158Y-67260500D01*
X162928844Y-67260500D01*
X162928845Y-67260499D01*
X163083497Y-67229737D01*
X163229179Y-67169394D01*
X163360289Y-67081789D01*
X163394234Y-67047844D01*
X176200000Y-67047844D01*
X176206401Y-67107372D01*
X176206403Y-67107379D01*
X176256645Y-67242086D01*
X176256649Y-67242093D01*
X176342809Y-67357187D01*
X176342812Y-67357190D01*
X176457906Y-67443350D01*
X176457913Y-67443354D01*
X176592620Y-67493596D01*
X176592627Y-67493598D01*
X176652155Y-67499999D01*
X176652172Y-67500000D01*
X178025000Y-67500000D01*
X178525000Y-67500000D01*
X179897828Y-67500000D01*
X179897844Y-67499999D01*
X179957372Y-67493598D01*
X179957379Y-67493596D01*
X180092086Y-67443354D01*
X180092093Y-67443350D01*
X180207187Y-67357190D01*
X180207190Y-67357187D01*
X180293350Y-67242093D01*
X180293354Y-67242086D01*
X180343596Y-67107379D01*
X180343598Y-67107372D01*
X180349999Y-67047844D01*
X180350000Y-67047827D01*
X180350000Y-66750000D01*
X178525000Y-66750000D01*
X178525000Y-67500000D01*
X178025000Y-67500000D01*
X178025000Y-66750000D01*
X176200000Y-66750000D01*
X176200000Y-67047844D01*
X163394234Y-67047844D01*
X163471789Y-66970289D01*
X163559394Y-66839179D01*
X163619737Y-66693497D01*
X163650500Y-66538842D01*
X163650500Y-66381158D01*
X163650500Y-66381155D01*
X163650499Y-66381153D01*
X163627695Y-66266510D01*
X163619737Y-66226503D01*
X163575965Y-66120827D01*
X163559397Y-66080827D01*
X163559395Y-66080823D01*
X163559394Y-66080821D01*
X163517246Y-66017742D01*
X163473423Y-65952155D01*
X176200000Y-65952155D01*
X176200000Y-66250000D01*
X178025000Y-66250000D01*
X178525000Y-66250000D01*
X180350000Y-66250000D01*
X180350000Y-65952164D01*
X180349997Y-65952135D01*
X181249500Y-65952135D01*
X181249500Y-67047870D01*
X181249501Y-67047876D01*
X181255908Y-67107483D01*
X181306202Y-67242328D01*
X181306206Y-67242335D01*
X181392452Y-67357544D01*
X181392455Y-67357547D01*
X181507664Y-67443793D01*
X181507671Y-67443797D01*
X181642517Y-67494091D01*
X181642516Y-67494091D01*
X181649444Y-67494835D01*
X181702127Y-67500500D01*
X184947872Y-67500499D01*
X185007483Y-67494091D01*
X185142331Y-67443796D01*
X185257546Y-67357546D01*
X185287489Y-67317548D01*
X185300485Y-67300188D01*
X185356419Y-67258318D01*
X185399751Y-67250500D01*
X188695396Y-67250500D01*
X188742844Y-67259937D01*
X188766503Y-67269737D01*
X188766508Y-67269738D01*
X188766511Y-67269739D01*
X188921153Y-67300499D01*
X188921156Y-67300500D01*
X188921158Y-67300500D01*
X189078844Y-67300500D01*
X189078845Y-67300499D01*
X189233497Y-67269737D01*
X189379179Y-67209394D01*
X189510289Y-67121789D01*
X189621789Y-67010289D01*
X189709394Y-66879179D01*
X189769737Y-66733497D01*
X189800500Y-66578842D01*
X189800500Y-66421158D01*
X189800500Y-66421155D01*
X189800499Y-66421153D01*
X189769738Y-66266510D01*
X189769737Y-66266503D01*
X189762901Y-66250000D01*
X189709397Y-66120827D01*
X189709390Y-66120814D01*
X189621789Y-65989711D01*
X189621786Y-65989707D01*
X189510292Y-65878213D01*
X189510288Y-65878210D01*
X189379185Y-65790609D01*
X189379172Y-65790602D01*
X189233501Y-65730264D01*
X189233489Y-65730261D01*
X189078845Y-65699500D01*
X189078842Y-65699500D01*
X188921158Y-65699500D01*
X188921155Y-65699500D01*
X188766511Y-65730260D01*
X188766506Y-65730262D01*
X188766504Y-65730262D01*
X188766503Y-65730263D01*
X188742844Y-65740062D01*
X188695396Y-65749500D01*
X185399751Y-65749500D01*
X185332712Y-65729815D01*
X185300485Y-65699812D01*
X185257548Y-65642457D01*
X185257546Y-65642454D01*
X185257542Y-65642451D01*
X185142335Y-65556206D01*
X185142328Y-65556202D01*
X185007482Y-65505908D01*
X185007483Y-65505908D01*
X184947883Y-65499501D01*
X184947881Y-65499500D01*
X184947873Y-65499500D01*
X184947864Y-65499500D01*
X181702129Y-65499500D01*
X181702123Y-65499501D01*
X181642516Y-65505908D01*
X181507671Y-65556202D01*
X181507664Y-65556206D01*
X181392455Y-65642452D01*
X181392452Y-65642455D01*
X181306206Y-65757664D01*
X181306202Y-65757671D01*
X181255908Y-65892517D01*
X181249501Y-65952116D01*
X181249500Y-65952135D01*
X180349997Y-65952135D01*
X180343598Y-65892627D01*
X180343596Y-65892620D01*
X180293354Y-65757913D01*
X180293350Y-65757906D01*
X180207190Y-65642812D01*
X180207187Y-65642809D01*
X180092093Y-65556649D01*
X180092086Y-65556645D01*
X179957379Y-65506403D01*
X179957372Y-65506401D01*
X179897844Y-65500000D01*
X178525000Y-65500000D01*
X178525000Y-66250000D01*
X178025000Y-66250000D01*
X178025000Y-65500000D01*
X176652155Y-65500000D01*
X176592627Y-65506401D01*
X176592620Y-65506403D01*
X176457913Y-65556645D01*
X176457906Y-65556649D01*
X176342812Y-65642809D01*
X176342809Y-65642812D01*
X176256649Y-65757906D01*
X176256645Y-65757913D01*
X176206403Y-65892620D01*
X176206401Y-65892627D01*
X176200000Y-65952155D01*
X163473423Y-65952155D01*
X163471789Y-65949710D01*
X163360292Y-65838213D01*
X163360288Y-65838210D01*
X163229185Y-65750609D01*
X163229172Y-65750602D01*
X163083501Y-65690264D01*
X163083489Y-65690261D01*
X162928845Y-65659500D01*
X162928842Y-65659500D01*
X162771158Y-65659500D01*
X162771155Y-65659500D01*
X162616511Y-65690260D01*
X162616506Y-65690262D01*
X162616504Y-65690262D01*
X162616503Y-65690263D01*
X162592844Y-65700062D01*
X162545396Y-65709500D01*
X159099751Y-65709500D01*
X159032712Y-65689815D01*
X159000485Y-65659812D01*
X158957548Y-65602457D01*
X158957546Y-65602454D01*
X158957542Y-65602451D01*
X158842335Y-65516206D01*
X158842328Y-65516202D01*
X158707482Y-65465908D01*
X158707483Y-65465908D01*
X158647883Y-65459501D01*
X158647881Y-65459500D01*
X158647873Y-65459500D01*
X158647864Y-65459500D01*
X155402129Y-65459500D01*
X155402123Y-65459501D01*
X155342516Y-65465908D01*
X155207671Y-65516202D01*
X155207664Y-65516206D01*
X155092455Y-65602452D01*
X155092452Y-65602455D01*
X155006206Y-65717664D01*
X155006202Y-65717671D01*
X154955908Y-65852517D01*
X154949501Y-65912116D01*
X154949500Y-65912135D01*
X154049997Y-65912135D01*
X154043598Y-65852627D01*
X154043596Y-65852620D01*
X153993354Y-65717913D01*
X153993350Y-65717906D01*
X153907190Y-65602812D01*
X153907187Y-65602809D01*
X153792093Y-65516649D01*
X153792086Y-65516645D01*
X153657379Y-65466403D01*
X153657372Y-65466401D01*
X153597844Y-65460000D01*
X152225000Y-65460000D01*
X152225000Y-66210000D01*
X151725000Y-66210000D01*
X151725000Y-65460000D01*
X150352155Y-65460000D01*
X150292627Y-65466401D01*
X150292620Y-65466403D01*
X150157913Y-65516645D01*
X150157906Y-65516649D01*
X150042812Y-65602809D01*
X150042809Y-65602812D01*
X149956649Y-65717906D01*
X149956645Y-65717913D01*
X149906403Y-65852620D01*
X149906401Y-65852627D01*
X149900000Y-65912155D01*
X143500500Y-65912155D01*
X143500500Y-44624500D01*
X143520185Y-44557461D01*
X143572989Y-44511706D01*
X143624500Y-44500500D01*
X192375500Y-44500500D01*
X192442539Y-44520185D01*
G37*
%TD.AperFunction*%
%TD*%
M02*
