%TF.GenerationSoftware,KiCad,Pcbnew,10.0.4*%
%TF.CreationDate,2026-07-01T17:27:19-04:00*%
%TF.ProjectId,pulsed_current_test_circuit,70756c73-6564-45f6-9375-7272656e745f,rev?*%
%TF.SameCoordinates,Original*%
%TF.FileFunction,Legend,Top*%
%TF.FilePolarity,Positive*%
%FSLAX46Y46*%
G04 Gerber Fmt 4.6, Leading zero omitted, Abs format (unit mm)*
G04 Created by KiCad (PCBNEW 10.0.4) date 2026-07-01 17:27:19*
%MOMM*%
%LPD*%
G01*
G04 APERTURE LIST*
%ADD10C,0.200000*%
%ADD11C,0.250000*%
%ADD12C,0.300000*%
%ADD13C,0.150000*%
%ADD14C,0.120000*%
G04 APERTURE END LIST*
D10*
G36*
X151451101Y-85389974D02*
G01*
X151451101Y-85837796D01*
X151432256Y-85847219D01*
X151288994Y-85847219D01*
X151229384Y-85817414D01*
X151204717Y-85792746D01*
X151174911Y-85733134D01*
X151174911Y-85494635D01*
X151204716Y-85435025D01*
X151229384Y-85410356D01*
X151288994Y-85380552D01*
X151432256Y-85380552D01*
X151451101Y-85389974D01*
G37*
G36*
X148306605Y-85082240D02*
G01*
X148373678Y-85149313D01*
X148409130Y-85220218D01*
X148451101Y-85388099D01*
X148451101Y-85506337D01*
X148409130Y-85674218D01*
X148373677Y-85745124D01*
X148306606Y-85812197D01*
X148201541Y-85847219D01*
X148079673Y-85847219D01*
X148079673Y-85047219D01*
X148201541Y-85047219D01*
X148306605Y-85082240D01*
G37*
G36*
X149286089Y-85402707D02*
G01*
X149303539Y-85437607D01*
X149032054Y-85491904D01*
X149032054Y-85447016D01*
X149054209Y-85402706D01*
X149098518Y-85380552D01*
X149241780Y-85380552D01*
X149286089Y-85402707D01*
G37*
G36*
X153238470Y-85402707D02*
G01*
X153255920Y-85437607D01*
X152984435Y-85491904D01*
X152984435Y-85447016D01*
X153006590Y-85402706D01*
X153050899Y-85380552D01*
X153194161Y-85380552D01*
X153238470Y-85402707D01*
G37*
G36*
X154117768Y-85389974D02*
G01*
X154117768Y-85837796D01*
X154098923Y-85847219D01*
X153955661Y-85847219D01*
X153896051Y-85817414D01*
X153871384Y-85792746D01*
X153841578Y-85733134D01*
X153841578Y-85494635D01*
X153871383Y-85435025D01*
X153896051Y-85410356D01*
X153955661Y-85380552D01*
X154098923Y-85380552D01*
X154117768Y-85389974D01*
G37*
G36*
X155777580Y-85410357D02*
G01*
X155802249Y-85435025D01*
X155832054Y-85494635D01*
X155832054Y-85733135D01*
X155802249Y-85792743D01*
X155777580Y-85817413D01*
X155717971Y-85847219D01*
X155574709Y-85847219D01*
X155555864Y-85837796D01*
X155555864Y-85389974D01*
X155574709Y-85380552D01*
X155717971Y-85380552D01*
X155777580Y-85410357D01*
G37*
G36*
X156951616Y-86491663D02*
G01*
X147768562Y-86491663D01*
X147768562Y-84947219D01*
X147879673Y-84947219D01*
X147879673Y-85947219D01*
X147881594Y-85966728D01*
X147896526Y-86002776D01*
X147924116Y-86030366D01*
X147960164Y-86045298D01*
X147979673Y-86047219D01*
X148217768Y-86047219D01*
X148227641Y-86046246D01*
X148230275Y-86046434D01*
X148233738Y-86045646D01*
X148237277Y-86045298D01*
X148239719Y-86044286D01*
X148249391Y-86042087D01*
X148392247Y-85994468D01*
X148410148Y-85986477D01*
X148412863Y-85984122D01*
X148416183Y-85982747D01*
X148431336Y-85970310D01*
X148526574Y-85875071D01*
X148532866Y-85867404D01*
X148534863Y-85865673D01*
X148536756Y-85862665D01*
X148539011Y-85859918D01*
X148540022Y-85857476D01*
X148545306Y-85849082D01*
X148592925Y-85753845D01*
X148593471Y-85752416D01*
X148593901Y-85751837D01*
X148596822Y-85743660D01*
X148599931Y-85735536D01*
X148599982Y-85734815D01*
X148600496Y-85733377D01*
X148648115Y-85542901D01*
X148648615Y-85539519D01*
X148649180Y-85538156D01*
X148649903Y-85530805D01*
X148650983Y-85523508D01*
X148650765Y-85522049D01*
X148651101Y-85518647D01*
X148651101Y-85423409D01*
X148832054Y-85423409D01*
X148832054Y-85804361D01*
X148833975Y-85823870D01*
X148835350Y-85827190D01*
X148835605Y-85830773D01*
X148842611Y-85849082D01*
X148890230Y-85944321D01*
X148892283Y-85947584D01*
X148892797Y-85949123D01*
X148894459Y-85951039D01*
X148900673Y-85960911D01*
X148910144Y-85969125D01*
X148918361Y-85978600D01*
X148928231Y-85984812D01*
X148930149Y-85986476D01*
X148931689Y-85986989D01*
X148934952Y-85989043D01*
X149030189Y-86036662D01*
X149048498Y-86043668D01*
X149052081Y-86043922D01*
X149055402Y-86045298D01*
X149074911Y-86047219D01*
X149265387Y-86047219D01*
X149284896Y-86045298D01*
X149288216Y-86043922D01*
X149291800Y-86043668D01*
X149310108Y-86036662D01*
X149405346Y-85989043D01*
X149421936Y-85978600D01*
X149447501Y-85949123D01*
X149459839Y-85912107D01*
X149457074Y-85873187D01*
X149439625Y-85838289D01*
X149410148Y-85812724D01*
X149373132Y-85800385D01*
X149334212Y-85803151D01*
X149315903Y-85810157D01*
X149241780Y-85847219D01*
X149098518Y-85847219D01*
X149054208Y-85825064D01*
X149032054Y-85780754D01*
X149032054Y-85695865D01*
X149427750Y-85616726D01*
X149427753Y-85616726D01*
X149427755Y-85616724D01*
X149427855Y-85616705D01*
X149446609Y-85610995D01*
X149454749Y-85605543D01*
X149463801Y-85601794D01*
X149470802Y-85594792D01*
X149479028Y-85589284D01*
X149484462Y-85581132D01*
X149491391Y-85574204D01*
X149495181Y-85565055D01*
X149500672Y-85556819D01*
X149502573Y-85547208D01*
X149506323Y-85538156D01*
X149508244Y-85518647D01*
X149508244Y-85423409D01*
X149689197Y-85423409D01*
X149689197Y-85471028D01*
X149691118Y-85490537D01*
X149692493Y-85493857D01*
X149692748Y-85497441D01*
X149699754Y-85515749D01*
X149747373Y-85610987D01*
X149749426Y-85614250D01*
X149749940Y-85615789D01*
X149751602Y-85617705D01*
X149757816Y-85627577D01*
X149767286Y-85635790D01*
X149775504Y-85645266D01*
X149785377Y-85651480D01*
X149787293Y-85653142D01*
X149788831Y-85653654D01*
X149792095Y-85655709D01*
X149887332Y-85703328D01*
X149905641Y-85710334D01*
X149909224Y-85710588D01*
X149912545Y-85711964D01*
X149932054Y-85713885D01*
X150051304Y-85713885D01*
X150095613Y-85736040D01*
X150117768Y-85780349D01*
X150117768Y-85780754D01*
X150095613Y-85825063D01*
X150051304Y-85847219D01*
X149908042Y-85847219D01*
X149833918Y-85810157D01*
X149815610Y-85803151D01*
X149776690Y-85800385D01*
X149739674Y-85812724D01*
X149710197Y-85838288D01*
X149692748Y-85873187D01*
X149689982Y-85912107D01*
X149702321Y-85949123D01*
X149727885Y-85978600D01*
X149744476Y-85989043D01*
X149839713Y-86036662D01*
X149858022Y-86043668D01*
X149861605Y-86043922D01*
X149864926Y-86045298D01*
X149884435Y-86047219D01*
X150074911Y-86047219D01*
X150094420Y-86045298D01*
X150097740Y-86043922D01*
X150101324Y-86043668D01*
X150119632Y-86036662D01*
X150214870Y-85989043D01*
X150218132Y-85986989D01*
X150219672Y-85986476D01*
X150221588Y-85984813D01*
X150231460Y-85978600D01*
X150239675Y-85969126D01*
X150249149Y-85960911D01*
X150255362Y-85951039D01*
X150257025Y-85949123D01*
X150257537Y-85947584D01*
X150259592Y-85944321D01*
X150307211Y-85849082D01*
X150314217Y-85830774D01*
X150314471Y-85827190D01*
X150315847Y-85823870D01*
X150317768Y-85804361D01*
X150317768Y-85756742D01*
X150315847Y-85737233D01*
X150314471Y-85733912D01*
X150314217Y-85730329D01*
X150307211Y-85712020D01*
X150259592Y-85616783D01*
X150257537Y-85613519D01*
X150257025Y-85611981D01*
X150255363Y-85610065D01*
X150249149Y-85600192D01*
X150239673Y-85591974D01*
X150231460Y-85582504D01*
X150221588Y-85576290D01*
X150219672Y-85574628D01*
X150218133Y-85574114D01*
X150214870Y-85572061D01*
X150119632Y-85524442D01*
X150101324Y-85517436D01*
X150097740Y-85517181D01*
X150094420Y-85515806D01*
X150074911Y-85513885D01*
X149955661Y-85513885D01*
X149911352Y-85491730D01*
X149889197Y-85447420D01*
X149889197Y-85447016D01*
X149911352Y-85402706D01*
X149955661Y-85380552D01*
X150051304Y-85380552D01*
X150125427Y-85417614D01*
X150143736Y-85424620D01*
X150182656Y-85427386D01*
X150219672Y-85415047D01*
X150249149Y-85389482D01*
X150266598Y-85354584D01*
X150269363Y-85315664D01*
X150257660Y-85280552D01*
X150546340Y-85280552D01*
X150546340Y-85947219D01*
X150548261Y-85966728D01*
X150563193Y-86002776D01*
X150590783Y-86030366D01*
X150626831Y-86045298D01*
X150665849Y-86045298D01*
X150701897Y-86030366D01*
X150729487Y-86002776D01*
X150744419Y-85966728D01*
X150746340Y-85947219D01*
X150746340Y-85471028D01*
X150974911Y-85471028D01*
X150974911Y-85756742D01*
X150976832Y-85776251D01*
X150978207Y-85779571D01*
X150978462Y-85783155D01*
X150985468Y-85801463D01*
X151033087Y-85896701D01*
X151038370Y-85905093D01*
X151039382Y-85907537D01*
X151041638Y-85910286D01*
X151043530Y-85913291D01*
X151045524Y-85915020D01*
X151051819Y-85922690D01*
X151099437Y-85970310D01*
X151107105Y-85976603D01*
X151108837Y-85978600D01*
X151111845Y-85980493D01*
X151114591Y-85982747D01*
X151117031Y-85983757D01*
X151125428Y-85989043D01*
X151220665Y-86036662D01*
X151238974Y-86043668D01*
X151242557Y-86043922D01*
X151245878Y-86045298D01*
X151265387Y-86047219D01*
X151451101Y-86047219D01*
X151451101Y-86066469D01*
X151421296Y-86126078D01*
X151396627Y-86150746D01*
X151337018Y-86180552D01*
X151241375Y-86180552D01*
X151167251Y-86143490D01*
X151148943Y-86136484D01*
X151110023Y-86133718D01*
X151073007Y-86146057D01*
X151043530Y-86171621D01*
X151026081Y-86206520D01*
X151023315Y-86245440D01*
X151035654Y-86282456D01*
X151061218Y-86311933D01*
X151077809Y-86322376D01*
X151173046Y-86369995D01*
X151191355Y-86377001D01*
X151194938Y-86377255D01*
X151198259Y-86378631D01*
X151217768Y-86380552D01*
X151360625Y-86380552D01*
X151380134Y-86378631D01*
X151383454Y-86377255D01*
X151387038Y-86377001D01*
X151405346Y-86369995D01*
X151500584Y-86322376D01*
X151508980Y-86317090D01*
X151511420Y-86316080D01*
X151514166Y-86313826D01*
X151517174Y-86311933D01*
X151518903Y-86309938D01*
X151526574Y-86303644D01*
X151562172Y-86268045D01*
X156166173Y-86268045D01*
X156168939Y-86306965D01*
X156186388Y-86341864D01*
X156215865Y-86367428D01*
X156252881Y-86379767D01*
X156291801Y-86377001D01*
X156310109Y-86369995D01*
X156405347Y-86322376D01*
X156413743Y-86317090D01*
X156416183Y-86316080D01*
X156418929Y-86313826D01*
X156421937Y-86311933D01*
X156423666Y-86309938D01*
X156431337Y-86303644D01*
X156478955Y-86256025D01*
X156491392Y-86240872D01*
X156491629Y-86240297D01*
X156492064Y-86239853D01*
X156501093Y-86222453D01*
X156596331Y-85984358D01*
X156596855Y-85982551D01*
X156597657Y-85980853D01*
X156835752Y-85314186D01*
X156840505Y-85295167D01*
X156838567Y-85256197D01*
X156821864Y-85220935D01*
X156792938Y-85194749D01*
X156756193Y-85181626D01*
X156717223Y-85183563D01*
X156681961Y-85200267D01*
X156655774Y-85229192D01*
X156647404Y-85246919D01*
X156503483Y-85649897D01*
X156359562Y-85246918D01*
X156351192Y-85229192D01*
X156325005Y-85200266D01*
X156289743Y-85183563D01*
X156250773Y-85181625D01*
X156214028Y-85194748D01*
X156185102Y-85220935D01*
X156168399Y-85256197D01*
X156166461Y-85295167D01*
X156171214Y-85314186D01*
X156396581Y-85945214D01*
X156323019Y-86129117D01*
X156301390Y-86150746D01*
X156220667Y-86191109D01*
X156204076Y-86201552D01*
X156178512Y-86231029D01*
X156166173Y-86268045D01*
X151562172Y-86268045D01*
X151574192Y-86256025D01*
X151580484Y-86248358D01*
X151582482Y-86246626D01*
X151584375Y-86243617D01*
X151586629Y-86240872D01*
X151587639Y-86238431D01*
X151592925Y-86230035D01*
X151640544Y-86134798D01*
X151647550Y-86116489D01*
X151647804Y-86112905D01*
X151649180Y-86109585D01*
X151651101Y-86090076D01*
X151651101Y-85280552D01*
X151927292Y-85280552D01*
X151927292Y-85947219D01*
X151929213Y-85966728D01*
X151944145Y-86002776D01*
X151971735Y-86030366D01*
X152007783Y-86045298D01*
X152046801Y-86045298D01*
X152082849Y-86030366D01*
X152110439Y-86002776D01*
X152125371Y-85966728D01*
X152127292Y-85947219D01*
X152127292Y-85417211D01*
X152134146Y-85410356D01*
X152193756Y-85380552D01*
X152289399Y-85380552D01*
X152333708Y-85402707D01*
X152355863Y-85447016D01*
X152355863Y-85947219D01*
X152357784Y-85966728D01*
X152372716Y-86002776D01*
X152400306Y-86030366D01*
X152436354Y-86045298D01*
X152475372Y-86045298D01*
X152511420Y-86030366D01*
X152539010Y-86002776D01*
X152553942Y-85966728D01*
X152555863Y-85947219D01*
X152555863Y-85423409D01*
X152784435Y-85423409D01*
X152784435Y-85804361D01*
X152786356Y-85823870D01*
X152787731Y-85827190D01*
X152787986Y-85830773D01*
X152794992Y-85849082D01*
X152842611Y-85944321D01*
X152844664Y-85947584D01*
X152845178Y-85949123D01*
X152846840Y-85951039D01*
X152853054Y-85960911D01*
X152862525Y-85969125D01*
X152870742Y-85978600D01*
X152880612Y-85984812D01*
X152882530Y-85986476D01*
X152884070Y-85986989D01*
X152887333Y-85989043D01*
X152982570Y-86036662D01*
X153000879Y-86043668D01*
X153004462Y-86043922D01*
X153007783Y-86045298D01*
X153027292Y-86047219D01*
X153217768Y-86047219D01*
X153237277Y-86045298D01*
X153240597Y-86043922D01*
X153244181Y-86043668D01*
X153262489Y-86036662D01*
X153357727Y-85989043D01*
X153374317Y-85978600D01*
X153399882Y-85949123D01*
X153412220Y-85912107D01*
X153409455Y-85873187D01*
X153392006Y-85838289D01*
X153362529Y-85812724D01*
X153325513Y-85800385D01*
X153286593Y-85803151D01*
X153268284Y-85810157D01*
X153194161Y-85847219D01*
X153050899Y-85847219D01*
X153006589Y-85825064D01*
X152984435Y-85780754D01*
X152984435Y-85695865D01*
X153380131Y-85616726D01*
X153380134Y-85616726D01*
X153380136Y-85616724D01*
X153380236Y-85616705D01*
X153398990Y-85610995D01*
X153407130Y-85605543D01*
X153416182Y-85601794D01*
X153423183Y-85594792D01*
X153431409Y-85589284D01*
X153436843Y-85581132D01*
X153443772Y-85574204D01*
X153447562Y-85565055D01*
X153453053Y-85556819D01*
X153454954Y-85547208D01*
X153458704Y-85538156D01*
X153460625Y-85518647D01*
X153460625Y-85471028D01*
X153641578Y-85471028D01*
X153641578Y-85756742D01*
X153643499Y-85776251D01*
X153644874Y-85779571D01*
X153645129Y-85783155D01*
X153652135Y-85801463D01*
X153699754Y-85896701D01*
X153705037Y-85905093D01*
X153706049Y-85907537D01*
X153708305Y-85910286D01*
X153710197Y-85913291D01*
X153712191Y-85915020D01*
X153718486Y-85922690D01*
X153766104Y-85970310D01*
X153773772Y-85976603D01*
X153775504Y-85978600D01*
X153778512Y-85980493D01*
X153781258Y-85982747D01*
X153783698Y-85983757D01*
X153792095Y-85989043D01*
X153887332Y-86036662D01*
X153905641Y-86043668D01*
X153909224Y-86043922D01*
X153912545Y-86045298D01*
X153932054Y-86047219D01*
X154122530Y-86047219D01*
X154142039Y-86045298D01*
X154145359Y-86043922D01*
X154148943Y-86043668D01*
X154167251Y-86036662D01*
X154171854Y-86034360D01*
X154198259Y-86045298D01*
X154237277Y-86045298D01*
X154273325Y-86030366D01*
X154300915Y-86002776D01*
X154315847Y-85966728D01*
X154317768Y-85947219D01*
X154317768Y-84947219D01*
X155355864Y-84947219D01*
X155355864Y-85947219D01*
X155357785Y-85966728D01*
X155372717Y-86002776D01*
X155400307Y-86030366D01*
X155436355Y-86045298D01*
X155475373Y-86045298D01*
X155501777Y-86034360D01*
X155506380Y-86036662D01*
X155524689Y-86043668D01*
X155528272Y-86043922D01*
X155531593Y-86045298D01*
X155551102Y-86047219D01*
X155741578Y-86047219D01*
X155761087Y-86045298D01*
X155764407Y-86043922D01*
X155767991Y-86043668D01*
X155786299Y-86036662D01*
X155881537Y-85989043D01*
X155889932Y-85983758D01*
X155892374Y-85982747D01*
X155895121Y-85980491D01*
X155898127Y-85978600D01*
X155899857Y-85976605D01*
X155907527Y-85970310D01*
X155955146Y-85922690D01*
X155961438Y-85915023D01*
X155963435Y-85913292D01*
X155965328Y-85910284D01*
X155967583Y-85907537D01*
X155968594Y-85905095D01*
X155973878Y-85896701D01*
X156021497Y-85801464D01*
X156028503Y-85783155D01*
X156028757Y-85779571D01*
X156030133Y-85776251D01*
X156032054Y-85756742D01*
X156032054Y-85471028D01*
X156030133Y-85451519D01*
X156028757Y-85448198D01*
X156028503Y-85444615D01*
X156021497Y-85426306D01*
X155973878Y-85331069D01*
X155968592Y-85322672D01*
X155967582Y-85320232D01*
X155965328Y-85317486D01*
X155963435Y-85314478D01*
X155961437Y-85312745D01*
X155955145Y-85305079D01*
X155907527Y-85257460D01*
X155899856Y-85251165D01*
X155898127Y-85249171D01*
X155895119Y-85247277D01*
X155892373Y-85245024D01*
X155889933Y-85244013D01*
X155881537Y-85238728D01*
X155786299Y-85191109D01*
X155767991Y-85184103D01*
X155764407Y-85183848D01*
X155761087Y-85182473D01*
X155741578Y-85180552D01*
X155555864Y-85180552D01*
X155555864Y-84947219D01*
X155553943Y-84927710D01*
X155539011Y-84891662D01*
X155511421Y-84864072D01*
X155475373Y-84849140D01*
X155436355Y-84849140D01*
X155400307Y-84864072D01*
X155372717Y-84891662D01*
X155357785Y-84927710D01*
X155355864Y-84947219D01*
X154317768Y-84947219D01*
X154315847Y-84927710D01*
X154300915Y-84891662D01*
X154273325Y-84864072D01*
X154237277Y-84849140D01*
X154198259Y-84849140D01*
X154162211Y-84864072D01*
X154134621Y-84891662D01*
X154119689Y-84927710D01*
X154117768Y-84947219D01*
X154117768Y-85180552D01*
X153932054Y-85180552D01*
X153912545Y-85182473D01*
X153909224Y-85183848D01*
X153905641Y-85184103D01*
X153887332Y-85191109D01*
X153792095Y-85238728D01*
X153783698Y-85244013D01*
X153781258Y-85245024D01*
X153778512Y-85247277D01*
X153775504Y-85249171D01*
X153773771Y-85251168D01*
X153766105Y-85257461D01*
X153718486Y-85305079D01*
X153712191Y-85312749D01*
X153710197Y-85314479D01*
X153708303Y-85317486D01*
X153706050Y-85320233D01*
X153705039Y-85322672D01*
X153699754Y-85331069D01*
X153652135Y-85426307D01*
X153645129Y-85444615D01*
X153644874Y-85448198D01*
X153643499Y-85451519D01*
X153641578Y-85471028D01*
X153460625Y-85471028D01*
X153460625Y-85423409D01*
X153458704Y-85403900D01*
X153457328Y-85400579D01*
X153457074Y-85396996D01*
X153450068Y-85378687D01*
X153402449Y-85283450D01*
X153400394Y-85280186D01*
X153399882Y-85278648D01*
X153398220Y-85276732D01*
X153392006Y-85266859D01*
X153382530Y-85258641D01*
X153374317Y-85249171D01*
X153364445Y-85242957D01*
X153362529Y-85241295D01*
X153360990Y-85240781D01*
X153357727Y-85238728D01*
X153262489Y-85191109D01*
X153244181Y-85184103D01*
X153240597Y-85183848D01*
X153237277Y-85182473D01*
X153217768Y-85180552D01*
X153027292Y-85180552D01*
X153007783Y-85182473D01*
X153004462Y-85183848D01*
X153000879Y-85184103D01*
X152982570Y-85191109D01*
X152887333Y-85238728D01*
X152884069Y-85240782D01*
X152882531Y-85241295D01*
X152880615Y-85242956D01*
X152870742Y-85249171D01*
X152862524Y-85258646D01*
X152853054Y-85266860D01*
X152846840Y-85276731D01*
X152845178Y-85278648D01*
X152844664Y-85280186D01*
X152842611Y-85283450D01*
X152794992Y-85378688D01*
X152787986Y-85396996D01*
X152787731Y-85400579D01*
X152786356Y-85403900D01*
X152784435Y-85423409D01*
X152555863Y-85423409D01*
X152553942Y-85403900D01*
X152552566Y-85400579D01*
X152552312Y-85396996D01*
X152545306Y-85378687D01*
X152497687Y-85283450D01*
X152495632Y-85280186D01*
X152495120Y-85278648D01*
X152493458Y-85276732D01*
X152487244Y-85266859D01*
X152477768Y-85258641D01*
X152469555Y-85249171D01*
X152459683Y-85242957D01*
X152457767Y-85241295D01*
X152456228Y-85240781D01*
X152452965Y-85238728D01*
X152357727Y-85191109D01*
X152339419Y-85184103D01*
X152335835Y-85183848D01*
X152332515Y-85182473D01*
X152313006Y-85180552D01*
X152170149Y-85180552D01*
X152150640Y-85182473D01*
X152147319Y-85183848D01*
X152143736Y-85184103D01*
X152125427Y-85191109D01*
X152092844Y-85207400D01*
X152082849Y-85197405D01*
X152046801Y-85182473D01*
X152007783Y-85182473D01*
X151971735Y-85197405D01*
X151944145Y-85224995D01*
X151929213Y-85261043D01*
X151927292Y-85280552D01*
X151651101Y-85280552D01*
X151649180Y-85261043D01*
X151634248Y-85224995D01*
X151606658Y-85197405D01*
X151570610Y-85182473D01*
X151531592Y-85182473D01*
X151505187Y-85193410D01*
X151500584Y-85191109D01*
X151482276Y-85184103D01*
X151478692Y-85183848D01*
X151475372Y-85182473D01*
X151455863Y-85180552D01*
X151265387Y-85180552D01*
X151245878Y-85182473D01*
X151242557Y-85183848D01*
X151238974Y-85184103D01*
X151220665Y-85191109D01*
X151125428Y-85238728D01*
X151117031Y-85244013D01*
X151114591Y-85245024D01*
X151111845Y-85247277D01*
X151108837Y-85249171D01*
X151107104Y-85251168D01*
X151099438Y-85257461D01*
X151051819Y-85305079D01*
X151045524Y-85312749D01*
X151043530Y-85314479D01*
X151041636Y-85317486D01*
X151039383Y-85320233D01*
X151038372Y-85322672D01*
X151033087Y-85331069D01*
X150985468Y-85426307D01*
X150978462Y-85444615D01*
X150978207Y-85448198D01*
X150976832Y-85451519D01*
X150974911Y-85471028D01*
X150746340Y-85471028D01*
X150746340Y-85280552D01*
X150744419Y-85261043D01*
X150729487Y-85224995D01*
X150701897Y-85197405D01*
X150665849Y-85182473D01*
X150626831Y-85182473D01*
X150590783Y-85197405D01*
X150563193Y-85224995D01*
X150548261Y-85261043D01*
X150546340Y-85280552D01*
X150257660Y-85280552D01*
X150257025Y-85278648D01*
X150231460Y-85249171D01*
X150214870Y-85238728D01*
X150119632Y-85191109D01*
X150101324Y-85184103D01*
X150097740Y-85183848D01*
X150094420Y-85182473D01*
X150074911Y-85180552D01*
X149932054Y-85180552D01*
X149912545Y-85182473D01*
X149909224Y-85183848D01*
X149905641Y-85184103D01*
X149887332Y-85191109D01*
X149792095Y-85238728D01*
X149788831Y-85240782D01*
X149787293Y-85241295D01*
X149785377Y-85242956D01*
X149775504Y-85249171D01*
X149767286Y-85258646D01*
X149757816Y-85266860D01*
X149751602Y-85276731D01*
X149749940Y-85278648D01*
X149749426Y-85280186D01*
X149747373Y-85283450D01*
X149699754Y-85378688D01*
X149692748Y-85396996D01*
X149692493Y-85400579D01*
X149691118Y-85403900D01*
X149689197Y-85423409D01*
X149508244Y-85423409D01*
X149506323Y-85403900D01*
X149504947Y-85400579D01*
X149504693Y-85396996D01*
X149497687Y-85378687D01*
X149450068Y-85283450D01*
X149448013Y-85280186D01*
X149447501Y-85278648D01*
X149445839Y-85276732D01*
X149439625Y-85266859D01*
X149430149Y-85258641D01*
X149421936Y-85249171D01*
X149412064Y-85242957D01*
X149410148Y-85241295D01*
X149408609Y-85240781D01*
X149405346Y-85238728D01*
X149310108Y-85191109D01*
X149291800Y-85184103D01*
X149288216Y-85183848D01*
X149284896Y-85182473D01*
X149265387Y-85180552D01*
X149074911Y-85180552D01*
X149055402Y-85182473D01*
X149052081Y-85183848D01*
X149048498Y-85184103D01*
X149030189Y-85191109D01*
X148934952Y-85238728D01*
X148931688Y-85240782D01*
X148930150Y-85241295D01*
X148928234Y-85242956D01*
X148918361Y-85249171D01*
X148910143Y-85258646D01*
X148900673Y-85266860D01*
X148894459Y-85276731D01*
X148892797Y-85278648D01*
X148892283Y-85280186D01*
X148890230Y-85283450D01*
X148842611Y-85378688D01*
X148835605Y-85396996D01*
X148835350Y-85400579D01*
X148833975Y-85403900D01*
X148832054Y-85423409D01*
X148651101Y-85423409D01*
X148651101Y-85375790D01*
X148650765Y-85372387D01*
X148650983Y-85370929D01*
X148649903Y-85363631D01*
X148649180Y-85356281D01*
X148648615Y-85354917D01*
X148648115Y-85351536D01*
X148600496Y-85161060D01*
X148599982Y-85159621D01*
X148599931Y-85158901D01*
X148596822Y-85150776D01*
X148593901Y-85142600D01*
X148593471Y-85142020D01*
X148592925Y-85140592D01*
X148545306Y-85045355D01*
X148540019Y-85036956D01*
X148539010Y-85034519D01*
X148536758Y-85031775D01*
X148534863Y-85028764D01*
X148532865Y-85027031D01*
X148526574Y-85019365D01*
X148482538Y-84975329D01*
X150500642Y-84975329D01*
X150500642Y-85014347D01*
X150515574Y-85050395D01*
X150528010Y-85065549D01*
X150575629Y-85113167D01*
X150590782Y-85125604D01*
X150601340Y-85129977D01*
X150626831Y-85140536D01*
X150665849Y-85140536D01*
X150701897Y-85125604D01*
X150717051Y-85113168D01*
X150764669Y-85065549D01*
X150777106Y-85050396D01*
X150792037Y-85014347D01*
X150792037Y-84975329D01*
X150789177Y-84968425D01*
X150777106Y-84939280D01*
X150764669Y-84924127D01*
X150717051Y-84876508D01*
X150701897Y-84864072D01*
X150665849Y-84849140D01*
X150626831Y-84849140D01*
X150601340Y-84859698D01*
X150590782Y-84864072D01*
X150575629Y-84876509D01*
X150528010Y-84924127D01*
X150515575Y-84939280D01*
X150515574Y-84939281D01*
X150500642Y-84975329D01*
X148482538Y-84975329D01*
X148431336Y-84924127D01*
X148416182Y-84911691D01*
X148412863Y-84910316D01*
X148410148Y-84907961D01*
X148392247Y-84899970D01*
X148249391Y-84852351D01*
X148239719Y-84850151D01*
X148237277Y-84849140D01*
X148233738Y-84848791D01*
X148230275Y-84848004D01*
X148227641Y-84848191D01*
X148217768Y-84847219D01*
X147979673Y-84847219D01*
X147960164Y-84849140D01*
X147924116Y-84864072D01*
X147896526Y-84891662D01*
X147881594Y-84927710D01*
X147879673Y-84947219D01*
X147768562Y-84947219D01*
X147768562Y-84736108D01*
X156951616Y-84736108D01*
X156951616Y-86491663D01*
G37*
D11*
X147922092Y-87529261D02*
X148338758Y-87529261D01*
X148517330Y-88184023D02*
X147922092Y-88184023D01*
X147922092Y-88184023D02*
X147922092Y-86934023D01*
X147922092Y-86934023D02*
X148517330Y-86934023D01*
X149231615Y-88184023D02*
X149112567Y-88124500D01*
X149112567Y-88124500D02*
X149053044Y-88005452D01*
X149053044Y-88005452D02*
X149053044Y-86934023D01*
X149707806Y-88184023D02*
X149707806Y-87350690D01*
X149707806Y-86934023D02*
X149648282Y-86993547D01*
X149648282Y-86993547D02*
X149707806Y-87053071D01*
X149707806Y-87053071D02*
X149767329Y-86993547D01*
X149767329Y-86993547D02*
X149707806Y-86934023D01*
X149707806Y-86934023D02*
X149707806Y-87053071D01*
X150183996Y-87350690D02*
X150838758Y-87350690D01*
X150838758Y-87350690D02*
X150183996Y-88184023D01*
X150183996Y-88184023D02*
X150838758Y-88184023D01*
X151850663Y-88184023D02*
X151850663Y-87529261D01*
X151850663Y-87529261D02*
X151791139Y-87410214D01*
X151791139Y-87410214D02*
X151672091Y-87350690D01*
X151672091Y-87350690D02*
X151433996Y-87350690D01*
X151433996Y-87350690D02*
X151314949Y-87410214D01*
X151850663Y-88124500D02*
X151731615Y-88184023D01*
X151731615Y-88184023D02*
X151433996Y-88184023D01*
X151433996Y-88184023D02*
X151314949Y-88124500D01*
X151314949Y-88124500D02*
X151255425Y-88005452D01*
X151255425Y-88005452D02*
X151255425Y-87886404D01*
X151255425Y-87886404D02*
X151314949Y-87767357D01*
X151314949Y-87767357D02*
X151433996Y-87707833D01*
X151433996Y-87707833D02*
X151731615Y-87707833D01*
X151731615Y-87707833D02*
X151850663Y-87648309D01*
X152445901Y-88184023D02*
X152445901Y-86934023D01*
X152445901Y-87410214D02*
X152564948Y-87350690D01*
X152564948Y-87350690D02*
X152803043Y-87350690D01*
X152803043Y-87350690D02*
X152922091Y-87410214D01*
X152922091Y-87410214D02*
X152981615Y-87469738D01*
X152981615Y-87469738D02*
X153041139Y-87588785D01*
X153041139Y-87588785D02*
X153041139Y-87945928D01*
X153041139Y-87945928D02*
X152981615Y-88064976D01*
X152981615Y-88064976D02*
X152922091Y-88124500D01*
X152922091Y-88124500D02*
X152803043Y-88184023D01*
X152803043Y-88184023D02*
X152564948Y-88184023D01*
X152564948Y-88184023D02*
X152445901Y-88124500D01*
X154053043Y-88124500D02*
X153933995Y-88184023D01*
X153933995Y-88184023D02*
X153695900Y-88184023D01*
X153695900Y-88184023D02*
X153576853Y-88124500D01*
X153576853Y-88124500D02*
X153517329Y-88005452D01*
X153517329Y-88005452D02*
X153517329Y-87529261D01*
X153517329Y-87529261D02*
X153576853Y-87410214D01*
X153576853Y-87410214D02*
X153695900Y-87350690D01*
X153695900Y-87350690D02*
X153933995Y-87350690D01*
X153933995Y-87350690D02*
X154053043Y-87410214D01*
X154053043Y-87410214D02*
X154112567Y-87529261D01*
X154112567Y-87529261D02*
X154112567Y-87648309D01*
X154112567Y-87648309D02*
X153517329Y-87767357D01*
X154469710Y-87350690D02*
X154945901Y-87350690D01*
X154648282Y-86934023D02*
X154648282Y-88005452D01*
X154648282Y-88005452D02*
X154707805Y-88124500D01*
X154707805Y-88124500D02*
X154826853Y-88184023D01*
X154826853Y-88184023D02*
X154945901Y-88184023D01*
X155362568Y-88184023D02*
X155362568Y-86934023D01*
X155898282Y-88184023D02*
X155898282Y-87529261D01*
X155898282Y-87529261D02*
X155838758Y-87410214D01*
X155838758Y-87410214D02*
X155719710Y-87350690D01*
X155719710Y-87350690D02*
X155541139Y-87350690D01*
X155541139Y-87350690D02*
X155422091Y-87410214D01*
X155422091Y-87410214D02*
X155362568Y-87469738D01*
X157267329Y-86934023D02*
X157683996Y-88184023D01*
X157683996Y-88184023D02*
X158100662Y-86934023D01*
X158517330Y-88064976D02*
X158576853Y-88124500D01*
X158576853Y-88124500D02*
X158517330Y-88184023D01*
X158517330Y-88184023D02*
X158457806Y-88124500D01*
X158457806Y-88124500D02*
X158517330Y-88064976D01*
X158517330Y-88064976D02*
X158517330Y-88184023D01*
X160005425Y-88124500D02*
X160183996Y-88184023D01*
X160183996Y-88184023D02*
X160481615Y-88184023D01*
X160481615Y-88184023D02*
X160600663Y-88124500D01*
X160600663Y-88124500D02*
X160660187Y-88064976D01*
X160660187Y-88064976D02*
X160719710Y-87945928D01*
X160719710Y-87945928D02*
X160719710Y-87826880D01*
X160719710Y-87826880D02*
X160660187Y-87707833D01*
X160660187Y-87707833D02*
X160600663Y-87648309D01*
X160600663Y-87648309D02*
X160481615Y-87588785D01*
X160481615Y-87588785D02*
X160243520Y-87529261D01*
X160243520Y-87529261D02*
X160124472Y-87469738D01*
X160124472Y-87469738D02*
X160064949Y-87410214D01*
X160064949Y-87410214D02*
X160005425Y-87291166D01*
X160005425Y-87291166D02*
X160005425Y-87172119D01*
X160005425Y-87172119D02*
X160064949Y-87053071D01*
X160064949Y-87053071D02*
X160124472Y-86993547D01*
X160124472Y-86993547D02*
X160243520Y-86934023D01*
X160243520Y-86934023D02*
X160541139Y-86934023D01*
X160541139Y-86934023D02*
X160719710Y-86993547D01*
X161791139Y-88124500D02*
X161672091Y-88184023D01*
X161672091Y-88184023D02*
X161433996Y-88184023D01*
X161433996Y-88184023D02*
X161314948Y-88124500D01*
X161314948Y-88124500D02*
X161255425Y-88064976D01*
X161255425Y-88064976D02*
X161195901Y-87945928D01*
X161195901Y-87945928D02*
X161195901Y-87588785D01*
X161195901Y-87588785D02*
X161255425Y-87469738D01*
X161255425Y-87469738D02*
X161314948Y-87410214D01*
X161314948Y-87410214D02*
X161433996Y-87350690D01*
X161433996Y-87350690D02*
X161672091Y-87350690D01*
X161672091Y-87350690D02*
X161791139Y-87410214D01*
X162326854Y-88184023D02*
X162326854Y-86934023D01*
X162862568Y-88184023D02*
X162862568Y-87529261D01*
X162862568Y-87529261D02*
X162803044Y-87410214D01*
X162803044Y-87410214D02*
X162683996Y-87350690D01*
X162683996Y-87350690D02*
X162505425Y-87350690D01*
X162505425Y-87350690D02*
X162386377Y-87410214D01*
X162386377Y-87410214D02*
X162326854Y-87469738D01*
X163933996Y-88124500D02*
X163814948Y-88184023D01*
X163814948Y-88184023D02*
X163576853Y-88184023D01*
X163576853Y-88184023D02*
X163457806Y-88124500D01*
X163457806Y-88124500D02*
X163398282Y-88005452D01*
X163398282Y-88005452D02*
X163398282Y-87529261D01*
X163398282Y-87529261D02*
X163457806Y-87410214D01*
X163457806Y-87410214D02*
X163576853Y-87350690D01*
X163576853Y-87350690D02*
X163814948Y-87350690D01*
X163814948Y-87350690D02*
X163933996Y-87410214D01*
X163933996Y-87410214D02*
X163993520Y-87529261D01*
X163993520Y-87529261D02*
X163993520Y-87648309D01*
X163993520Y-87648309D02*
X163398282Y-87767357D01*
X164707806Y-88184023D02*
X164588758Y-88124500D01*
X164588758Y-88124500D02*
X164529235Y-88005452D01*
X164529235Y-88005452D02*
X164529235Y-86934023D01*
X165362568Y-88184023D02*
X165243520Y-88124500D01*
X165243520Y-88124500D02*
X165183997Y-88005452D01*
X165183997Y-88005452D02*
X165183997Y-86934023D01*
X148398758Y-89479261D02*
X147982092Y-89479261D01*
X147982092Y-90134023D02*
X147982092Y-88884023D01*
X147982092Y-88884023D02*
X148577330Y-88884023D01*
X149589235Y-90134023D02*
X149589235Y-89479261D01*
X149589235Y-89479261D02*
X149529711Y-89360214D01*
X149529711Y-89360214D02*
X149410663Y-89300690D01*
X149410663Y-89300690D02*
X149172568Y-89300690D01*
X149172568Y-89300690D02*
X149053521Y-89360214D01*
X149589235Y-90074500D02*
X149470187Y-90134023D01*
X149470187Y-90134023D02*
X149172568Y-90134023D01*
X149172568Y-90134023D02*
X149053521Y-90074500D01*
X149053521Y-90074500D02*
X148993997Y-89955452D01*
X148993997Y-89955452D02*
X148993997Y-89836404D01*
X148993997Y-89836404D02*
X149053521Y-89717357D01*
X149053521Y-89717357D02*
X149172568Y-89657833D01*
X149172568Y-89657833D02*
X149470187Y-89657833D01*
X149470187Y-89657833D02*
X149589235Y-89598309D01*
X150184473Y-90134023D02*
X150184473Y-88884023D01*
X150184473Y-89360214D02*
X150303520Y-89300690D01*
X150303520Y-89300690D02*
X150541615Y-89300690D01*
X150541615Y-89300690D02*
X150660663Y-89360214D01*
X150660663Y-89360214D02*
X150720187Y-89419738D01*
X150720187Y-89419738D02*
X150779711Y-89538785D01*
X150779711Y-89538785D02*
X150779711Y-89895928D01*
X150779711Y-89895928D02*
X150720187Y-90014976D01*
X150720187Y-90014976D02*
X150660663Y-90074500D01*
X150660663Y-90074500D02*
X150541615Y-90134023D01*
X150541615Y-90134023D02*
X150303520Y-90134023D01*
X150303520Y-90134023D02*
X150184473Y-90074500D01*
X151315425Y-90134023D02*
X151315425Y-89300690D01*
X151315425Y-88884023D02*
X151255901Y-88943547D01*
X151255901Y-88943547D02*
X151315425Y-89003071D01*
X151315425Y-89003071D02*
X151374948Y-88943547D01*
X151374948Y-88943547D02*
X151315425Y-88884023D01*
X151315425Y-88884023D02*
X151315425Y-89003071D01*
X152089234Y-90134023D02*
X151970186Y-90074500D01*
X151970186Y-90074500D02*
X151910663Y-90014976D01*
X151910663Y-90014976D02*
X151851139Y-89895928D01*
X151851139Y-89895928D02*
X151851139Y-89538785D01*
X151851139Y-89538785D02*
X151910663Y-89419738D01*
X151910663Y-89419738D02*
X151970186Y-89360214D01*
X151970186Y-89360214D02*
X152089234Y-89300690D01*
X152089234Y-89300690D02*
X152267805Y-89300690D01*
X152267805Y-89300690D02*
X152386853Y-89360214D01*
X152386853Y-89360214D02*
X152446377Y-89419738D01*
X152446377Y-89419738D02*
X152505901Y-89538785D01*
X152505901Y-89538785D02*
X152505901Y-89895928D01*
X152505901Y-89895928D02*
X152446377Y-90014976D01*
X152446377Y-90014976D02*
X152386853Y-90074500D01*
X152386853Y-90074500D02*
X152267805Y-90134023D01*
X152267805Y-90134023D02*
X152089234Y-90134023D01*
X153934472Y-89776880D02*
X154529710Y-89776880D01*
X153815424Y-90134023D02*
X154232091Y-88884023D01*
X154232091Y-88884023D02*
X154648757Y-90134023D01*
X155065425Y-90014976D02*
X155124948Y-90074500D01*
X155124948Y-90074500D02*
X155065425Y-90134023D01*
X155065425Y-90134023D02*
X155005901Y-90074500D01*
X155005901Y-90074500D02*
X155065425Y-90014976D01*
X155065425Y-90014976D02*
X155065425Y-90134023D01*
X157327329Y-90014976D02*
X157267805Y-90074500D01*
X157267805Y-90074500D02*
X157089234Y-90134023D01*
X157089234Y-90134023D02*
X156970186Y-90134023D01*
X156970186Y-90134023D02*
X156791615Y-90074500D01*
X156791615Y-90074500D02*
X156672567Y-89955452D01*
X156672567Y-89955452D02*
X156613044Y-89836404D01*
X156613044Y-89836404D02*
X156553520Y-89598309D01*
X156553520Y-89598309D02*
X156553520Y-89419738D01*
X156553520Y-89419738D02*
X156613044Y-89181642D01*
X156613044Y-89181642D02*
X156672567Y-89062595D01*
X156672567Y-89062595D02*
X156791615Y-88943547D01*
X156791615Y-88943547D02*
X156970186Y-88884023D01*
X156970186Y-88884023D02*
X157089234Y-88884023D01*
X157089234Y-88884023D02*
X157267805Y-88943547D01*
X157267805Y-88943547D02*
X157327329Y-89003071D01*
X158398758Y-90134023D02*
X158398758Y-89479261D01*
X158398758Y-89479261D02*
X158339234Y-89360214D01*
X158339234Y-89360214D02*
X158220186Y-89300690D01*
X158220186Y-89300690D02*
X157982091Y-89300690D01*
X157982091Y-89300690D02*
X157863044Y-89360214D01*
X158398758Y-90074500D02*
X158279710Y-90134023D01*
X158279710Y-90134023D02*
X157982091Y-90134023D01*
X157982091Y-90134023D02*
X157863044Y-90074500D01*
X157863044Y-90074500D02*
X157803520Y-89955452D01*
X157803520Y-89955452D02*
X157803520Y-89836404D01*
X157803520Y-89836404D02*
X157863044Y-89717357D01*
X157863044Y-89717357D02*
X157982091Y-89657833D01*
X157982091Y-89657833D02*
X158279710Y-89657833D01*
X158279710Y-89657833D02*
X158398758Y-89598309D01*
X158934472Y-90074500D02*
X159053519Y-90134023D01*
X159053519Y-90134023D02*
X159291615Y-90134023D01*
X159291615Y-90134023D02*
X159410662Y-90074500D01*
X159410662Y-90074500D02*
X159470186Y-89955452D01*
X159470186Y-89955452D02*
X159470186Y-89895928D01*
X159470186Y-89895928D02*
X159410662Y-89776880D01*
X159410662Y-89776880D02*
X159291615Y-89717357D01*
X159291615Y-89717357D02*
X159113043Y-89717357D01*
X159113043Y-89717357D02*
X158993996Y-89657833D01*
X158993996Y-89657833D02*
X158934472Y-89538785D01*
X158934472Y-89538785D02*
X158934472Y-89479261D01*
X158934472Y-89479261D02*
X158993996Y-89360214D01*
X158993996Y-89360214D02*
X159113043Y-89300690D01*
X159113043Y-89300690D02*
X159291615Y-89300690D01*
X159291615Y-89300690D02*
X159410662Y-89360214D01*
X159827329Y-89300690D02*
X160303520Y-89300690D01*
X160005901Y-88884023D02*
X160005901Y-89955452D01*
X160005901Y-89955452D02*
X160065424Y-90074500D01*
X160065424Y-90074500D02*
X160184472Y-90134023D01*
X160184472Y-90134023D02*
X160303520Y-90134023D01*
X160720187Y-90134023D02*
X160720187Y-89300690D01*
X160720187Y-88884023D02*
X160660663Y-88943547D01*
X160660663Y-88943547D02*
X160720187Y-89003071D01*
X160720187Y-89003071D02*
X160779710Y-88943547D01*
X160779710Y-88943547D02*
X160720187Y-88884023D01*
X160720187Y-88884023D02*
X160720187Y-89003071D01*
X161315425Y-90134023D02*
X161315425Y-88884023D01*
X161315425Y-89360214D02*
X161434472Y-89300690D01*
X161434472Y-89300690D02*
X161672567Y-89300690D01*
X161672567Y-89300690D02*
X161791615Y-89360214D01*
X161791615Y-89360214D02*
X161851139Y-89419738D01*
X161851139Y-89419738D02*
X161910663Y-89538785D01*
X161910663Y-89538785D02*
X161910663Y-89895928D01*
X161910663Y-89895928D02*
X161851139Y-90014976D01*
X161851139Y-90014976D02*
X161791615Y-90074500D01*
X161791615Y-90074500D02*
X161672567Y-90134023D01*
X161672567Y-90134023D02*
X161434472Y-90134023D01*
X161434472Y-90134023D02*
X161315425Y-90074500D01*
X162624948Y-90134023D02*
X162505900Y-90074500D01*
X162505900Y-90074500D02*
X162446377Y-89955452D01*
X162446377Y-89955452D02*
X162446377Y-88884023D01*
X163636853Y-90134023D02*
X163636853Y-89479261D01*
X163636853Y-89479261D02*
X163577329Y-89360214D01*
X163577329Y-89360214D02*
X163458281Y-89300690D01*
X163458281Y-89300690D02*
X163220186Y-89300690D01*
X163220186Y-89300690D02*
X163101139Y-89360214D01*
X163636853Y-90074500D02*
X163517805Y-90134023D01*
X163517805Y-90134023D02*
X163220186Y-90134023D01*
X163220186Y-90134023D02*
X163101139Y-90074500D01*
X163101139Y-90074500D02*
X163041615Y-89955452D01*
X163041615Y-89955452D02*
X163041615Y-89836404D01*
X163041615Y-89836404D02*
X163101139Y-89717357D01*
X163101139Y-89717357D02*
X163220186Y-89657833D01*
X163220186Y-89657833D02*
X163517805Y-89657833D01*
X163517805Y-89657833D02*
X163636853Y-89598309D01*
X164232091Y-89300690D02*
X164232091Y-90134023D01*
X164232091Y-89419738D02*
X164291614Y-89360214D01*
X164291614Y-89360214D02*
X164410662Y-89300690D01*
X164410662Y-89300690D02*
X164589233Y-89300690D01*
X164589233Y-89300690D02*
X164708281Y-89360214D01*
X164708281Y-89360214D02*
X164767805Y-89479261D01*
X164767805Y-89479261D02*
X164767805Y-90134023D01*
X165898757Y-90074500D02*
X165779709Y-90134023D01*
X165779709Y-90134023D02*
X165541614Y-90134023D01*
X165541614Y-90134023D02*
X165422566Y-90074500D01*
X165422566Y-90074500D02*
X165363043Y-90014976D01*
X165363043Y-90014976D02*
X165303519Y-89895928D01*
X165303519Y-89895928D02*
X165303519Y-89538785D01*
X165303519Y-89538785D02*
X165363043Y-89419738D01*
X165363043Y-89419738D02*
X165422566Y-89360214D01*
X165422566Y-89360214D02*
X165541614Y-89300690D01*
X165541614Y-89300690D02*
X165779709Y-89300690D01*
X165779709Y-89300690D02*
X165898757Y-89360214D01*
X166613043Y-90134023D02*
X166493995Y-90074500D01*
X166493995Y-90074500D02*
X166434472Y-90014976D01*
X166434472Y-90014976D02*
X166374948Y-89895928D01*
X166374948Y-89895928D02*
X166374948Y-89538785D01*
X166374948Y-89538785D02*
X166434472Y-89419738D01*
X166434472Y-89419738D02*
X166493995Y-89360214D01*
X166493995Y-89360214D02*
X166613043Y-89300690D01*
X166613043Y-89300690D02*
X166791614Y-89300690D01*
X166791614Y-89300690D02*
X166910662Y-89360214D01*
X166910662Y-89360214D02*
X166970186Y-89419738D01*
X166970186Y-89419738D02*
X167029710Y-89538785D01*
X167029710Y-89538785D02*
X167029710Y-89895928D01*
X167029710Y-89895928D02*
X166970186Y-90014976D01*
X166970186Y-90014976D02*
X166910662Y-90074500D01*
X166910662Y-90074500D02*
X166791614Y-90134023D01*
X166791614Y-90134023D02*
X166613043Y-90134023D01*
D12*
X148047142Y-47375571D02*
X148261428Y-47437476D01*
X148261428Y-47437476D02*
X148332857Y-47499380D01*
X148332857Y-47499380D02*
X148404285Y-47623190D01*
X148404285Y-47623190D02*
X148404285Y-47808904D01*
X148404285Y-47808904D02*
X148332857Y-47932714D01*
X148332857Y-47932714D02*
X148261428Y-47994619D01*
X148261428Y-47994619D02*
X148118571Y-48056523D01*
X148118571Y-48056523D02*
X147547142Y-48056523D01*
X147547142Y-48056523D02*
X147547142Y-46756523D01*
X147547142Y-46756523D02*
X148047142Y-46756523D01*
X148047142Y-46756523D02*
X148190000Y-46818428D01*
X148190000Y-46818428D02*
X148261428Y-46880333D01*
X148261428Y-46880333D02*
X148332857Y-47004142D01*
X148332857Y-47004142D02*
X148332857Y-47127952D01*
X148332857Y-47127952D02*
X148261428Y-47251761D01*
X148261428Y-47251761D02*
X148190000Y-47313666D01*
X148190000Y-47313666D02*
X148047142Y-47375571D01*
X148047142Y-47375571D02*
X147547142Y-47375571D01*
X149047142Y-48056523D02*
X149047142Y-47189857D01*
X149047142Y-46756523D02*
X148975714Y-46818428D01*
X148975714Y-46818428D02*
X149047142Y-46880333D01*
X149047142Y-46880333D02*
X149118571Y-46818428D01*
X149118571Y-46818428D02*
X149047142Y-46756523D01*
X149047142Y-46756523D02*
X149047142Y-46880333D01*
X149975714Y-48056523D02*
X149832857Y-47994619D01*
X149832857Y-47994619D02*
X149761428Y-47932714D01*
X149761428Y-47932714D02*
X149690000Y-47808904D01*
X149690000Y-47808904D02*
X149690000Y-47437476D01*
X149690000Y-47437476D02*
X149761428Y-47313666D01*
X149761428Y-47313666D02*
X149832857Y-47251761D01*
X149832857Y-47251761D02*
X149975714Y-47189857D01*
X149975714Y-47189857D02*
X150190000Y-47189857D01*
X150190000Y-47189857D02*
X150332857Y-47251761D01*
X150332857Y-47251761D02*
X150404286Y-47313666D01*
X150404286Y-47313666D02*
X150475714Y-47437476D01*
X150475714Y-47437476D02*
X150475714Y-47808904D01*
X150475714Y-47808904D02*
X150404286Y-47932714D01*
X150404286Y-47932714D02*
X150332857Y-47994619D01*
X150332857Y-47994619D02*
X150190000Y-48056523D01*
X150190000Y-48056523D02*
X149975714Y-48056523D01*
X151118571Y-48056523D02*
X151118571Y-46756523D01*
X151118571Y-47251761D02*
X151261429Y-47189857D01*
X151261429Y-47189857D02*
X151547143Y-47189857D01*
X151547143Y-47189857D02*
X151690000Y-47251761D01*
X151690000Y-47251761D02*
X151761429Y-47313666D01*
X151761429Y-47313666D02*
X151832857Y-47437476D01*
X151832857Y-47437476D02*
X151832857Y-47808904D01*
X151832857Y-47808904D02*
X151761429Y-47932714D01*
X151761429Y-47932714D02*
X151690000Y-47994619D01*
X151690000Y-47994619D02*
X151547143Y-48056523D01*
X151547143Y-48056523D02*
X151261429Y-48056523D01*
X151261429Y-48056523D02*
X151118571Y-47994619D01*
X153118572Y-48056523D02*
X153118572Y-47375571D01*
X153118572Y-47375571D02*
X153047143Y-47251761D01*
X153047143Y-47251761D02*
X152904286Y-47189857D01*
X152904286Y-47189857D02*
X152618572Y-47189857D01*
X152618572Y-47189857D02*
X152475714Y-47251761D01*
X153118572Y-47994619D02*
X152975714Y-48056523D01*
X152975714Y-48056523D02*
X152618572Y-48056523D01*
X152618572Y-48056523D02*
X152475714Y-47994619D01*
X152475714Y-47994619D02*
X152404286Y-47870809D01*
X152404286Y-47870809D02*
X152404286Y-47746999D01*
X152404286Y-47746999D02*
X152475714Y-47623190D01*
X152475714Y-47623190D02*
X152618572Y-47561285D01*
X152618572Y-47561285D02*
X152975714Y-47561285D01*
X152975714Y-47561285D02*
X153118572Y-47499380D01*
X153618572Y-47189857D02*
X154190000Y-47189857D01*
X153832857Y-46756523D02*
X153832857Y-47870809D01*
X153832857Y-47870809D02*
X153904286Y-47994619D01*
X153904286Y-47994619D02*
X154047143Y-48056523D01*
X154047143Y-48056523D02*
X154190000Y-48056523D01*
X154475715Y-47189857D02*
X155047143Y-47189857D01*
X154690000Y-46756523D02*
X154690000Y-47870809D01*
X154690000Y-47870809D02*
X154761429Y-47994619D01*
X154761429Y-47994619D02*
X154904286Y-48056523D01*
X154904286Y-48056523D02*
X155047143Y-48056523D01*
X156118572Y-47994619D02*
X155975715Y-48056523D01*
X155975715Y-48056523D02*
X155690001Y-48056523D01*
X155690001Y-48056523D02*
X155547143Y-47994619D01*
X155547143Y-47994619D02*
X155475715Y-47870809D01*
X155475715Y-47870809D02*
X155475715Y-47375571D01*
X155475715Y-47375571D02*
X155547143Y-47251761D01*
X155547143Y-47251761D02*
X155690001Y-47189857D01*
X155690001Y-47189857D02*
X155975715Y-47189857D01*
X155975715Y-47189857D02*
X156118572Y-47251761D01*
X156118572Y-47251761D02*
X156190001Y-47375571D01*
X156190001Y-47375571D02*
X156190001Y-47499380D01*
X156190001Y-47499380D02*
X155475715Y-47623190D01*
X156832857Y-48056523D02*
X156832857Y-47189857D01*
X156832857Y-47437476D02*
X156904286Y-47313666D01*
X156904286Y-47313666D02*
X156975715Y-47251761D01*
X156975715Y-47251761D02*
X157118572Y-47189857D01*
X157118572Y-47189857D02*
X157261429Y-47189857D01*
X157618571Y-47189857D02*
X157975714Y-48056523D01*
X158332857Y-47189857D02*
X157975714Y-48056523D01*
X157975714Y-48056523D02*
X157832857Y-48366047D01*
X157832857Y-48366047D02*
X157761428Y-48427952D01*
X157761428Y-48427952D02*
X157618571Y-48489857D01*
X145368571Y-50149450D02*
X145368571Y-48849450D01*
X145368571Y-48849450D02*
X145940000Y-48849450D01*
X145940000Y-48849450D02*
X146082857Y-48911355D01*
X146082857Y-48911355D02*
X146154286Y-48973260D01*
X146154286Y-48973260D02*
X146225714Y-49097069D01*
X146225714Y-49097069D02*
X146225714Y-49282784D01*
X146225714Y-49282784D02*
X146154286Y-49406593D01*
X146154286Y-49406593D02*
X146082857Y-49468498D01*
X146082857Y-49468498D02*
X145940000Y-49530403D01*
X145940000Y-49530403D02*
X145368571Y-49530403D01*
X147511429Y-49282784D02*
X147511429Y-50149450D01*
X146868571Y-49282784D02*
X146868571Y-49963736D01*
X146868571Y-49963736D02*
X146940000Y-50087546D01*
X146940000Y-50087546D02*
X147082857Y-50149450D01*
X147082857Y-50149450D02*
X147297143Y-50149450D01*
X147297143Y-50149450D02*
X147440000Y-50087546D01*
X147440000Y-50087546D02*
X147511429Y-50025641D01*
X148440000Y-50149450D02*
X148297143Y-50087546D01*
X148297143Y-50087546D02*
X148225714Y-49963736D01*
X148225714Y-49963736D02*
X148225714Y-48849450D01*
X148940000Y-50087546D02*
X149082857Y-50149450D01*
X149082857Y-50149450D02*
X149368571Y-50149450D01*
X149368571Y-50149450D02*
X149511428Y-50087546D01*
X149511428Y-50087546D02*
X149582857Y-49963736D01*
X149582857Y-49963736D02*
X149582857Y-49901831D01*
X149582857Y-49901831D02*
X149511428Y-49778022D01*
X149511428Y-49778022D02*
X149368571Y-49716117D01*
X149368571Y-49716117D02*
X149154286Y-49716117D01*
X149154286Y-49716117D02*
X149011428Y-49654212D01*
X149011428Y-49654212D02*
X148940000Y-49530403D01*
X148940000Y-49530403D02*
X148940000Y-49468498D01*
X148940000Y-49468498D02*
X149011428Y-49344688D01*
X149011428Y-49344688D02*
X149154286Y-49282784D01*
X149154286Y-49282784D02*
X149368571Y-49282784D01*
X149368571Y-49282784D02*
X149511428Y-49344688D01*
X150797143Y-50087546D02*
X150654286Y-50149450D01*
X150654286Y-50149450D02*
X150368572Y-50149450D01*
X150368572Y-50149450D02*
X150225714Y-50087546D01*
X150225714Y-50087546D02*
X150154286Y-49963736D01*
X150154286Y-49963736D02*
X150154286Y-49468498D01*
X150154286Y-49468498D02*
X150225714Y-49344688D01*
X150225714Y-49344688D02*
X150368572Y-49282784D01*
X150368572Y-49282784D02*
X150654286Y-49282784D01*
X150654286Y-49282784D02*
X150797143Y-49344688D01*
X150797143Y-49344688D02*
X150868572Y-49468498D01*
X150868572Y-49468498D02*
X150868572Y-49592307D01*
X150868572Y-49592307D02*
X150154286Y-49716117D01*
X152154286Y-50149450D02*
X152154286Y-48849450D01*
X152154286Y-50087546D02*
X152011428Y-50149450D01*
X152011428Y-50149450D02*
X151725714Y-50149450D01*
X151725714Y-50149450D02*
X151582857Y-50087546D01*
X151582857Y-50087546D02*
X151511428Y-50025641D01*
X151511428Y-50025641D02*
X151440000Y-49901831D01*
X151440000Y-49901831D02*
X151440000Y-49530403D01*
X151440000Y-49530403D02*
X151511428Y-49406593D01*
X151511428Y-49406593D02*
X151582857Y-49344688D01*
X151582857Y-49344688D02*
X151725714Y-49282784D01*
X151725714Y-49282784D02*
X152011428Y-49282784D01*
X152011428Y-49282784D02*
X152154286Y-49344688D01*
X154868571Y-50025641D02*
X154797143Y-50087546D01*
X154797143Y-50087546D02*
X154582857Y-50149450D01*
X154582857Y-50149450D02*
X154440000Y-50149450D01*
X154440000Y-50149450D02*
X154225714Y-50087546D01*
X154225714Y-50087546D02*
X154082857Y-49963736D01*
X154082857Y-49963736D02*
X154011428Y-49839926D01*
X154011428Y-49839926D02*
X153940000Y-49592307D01*
X153940000Y-49592307D02*
X153940000Y-49406593D01*
X153940000Y-49406593D02*
X154011428Y-49158974D01*
X154011428Y-49158974D02*
X154082857Y-49035165D01*
X154082857Y-49035165D02*
X154225714Y-48911355D01*
X154225714Y-48911355D02*
X154440000Y-48849450D01*
X154440000Y-48849450D02*
X154582857Y-48849450D01*
X154582857Y-48849450D02*
X154797143Y-48911355D01*
X154797143Y-48911355D02*
X154868571Y-48973260D01*
X156154286Y-49282784D02*
X156154286Y-50149450D01*
X155511428Y-49282784D02*
X155511428Y-49963736D01*
X155511428Y-49963736D02*
X155582857Y-50087546D01*
X155582857Y-50087546D02*
X155725714Y-50149450D01*
X155725714Y-50149450D02*
X155940000Y-50149450D01*
X155940000Y-50149450D02*
X156082857Y-50087546D01*
X156082857Y-50087546D02*
X156154286Y-50025641D01*
X156868571Y-50149450D02*
X156868571Y-49282784D01*
X156868571Y-49530403D02*
X156940000Y-49406593D01*
X156940000Y-49406593D02*
X157011429Y-49344688D01*
X157011429Y-49344688D02*
X157154286Y-49282784D01*
X157154286Y-49282784D02*
X157297143Y-49282784D01*
X157797142Y-50149450D02*
X157797142Y-49282784D01*
X157797142Y-49530403D02*
X157868571Y-49406593D01*
X157868571Y-49406593D02*
X157940000Y-49344688D01*
X157940000Y-49344688D02*
X158082857Y-49282784D01*
X158082857Y-49282784D02*
X158225714Y-49282784D01*
X159297142Y-50087546D02*
X159154285Y-50149450D01*
X159154285Y-50149450D02*
X158868571Y-50149450D01*
X158868571Y-50149450D02*
X158725713Y-50087546D01*
X158725713Y-50087546D02*
X158654285Y-49963736D01*
X158654285Y-49963736D02*
X158654285Y-49468498D01*
X158654285Y-49468498D02*
X158725713Y-49344688D01*
X158725713Y-49344688D02*
X158868571Y-49282784D01*
X158868571Y-49282784D02*
X159154285Y-49282784D01*
X159154285Y-49282784D02*
X159297142Y-49344688D01*
X159297142Y-49344688D02*
X159368571Y-49468498D01*
X159368571Y-49468498D02*
X159368571Y-49592307D01*
X159368571Y-49592307D02*
X158654285Y-49716117D01*
X160011427Y-49282784D02*
X160011427Y-50149450D01*
X160011427Y-49406593D02*
X160082856Y-49344688D01*
X160082856Y-49344688D02*
X160225713Y-49282784D01*
X160225713Y-49282784D02*
X160439999Y-49282784D01*
X160439999Y-49282784D02*
X160582856Y-49344688D01*
X160582856Y-49344688D02*
X160654285Y-49468498D01*
X160654285Y-49468498D02*
X160654285Y-50149450D01*
X161154285Y-49282784D02*
X161725713Y-49282784D01*
X161368570Y-48849450D02*
X161368570Y-49963736D01*
X161368570Y-49963736D02*
X161439999Y-50087546D01*
X161439999Y-50087546D02*
X161582856Y-50149450D01*
X161582856Y-50149450D02*
X161725713Y-50149450D01*
X144618572Y-50942377D02*
X145475715Y-50942377D01*
X145047143Y-52242377D02*
X145047143Y-50942377D01*
X146547143Y-52180473D02*
X146404286Y-52242377D01*
X146404286Y-52242377D02*
X146118572Y-52242377D01*
X146118572Y-52242377D02*
X145975714Y-52180473D01*
X145975714Y-52180473D02*
X145904286Y-52056663D01*
X145904286Y-52056663D02*
X145904286Y-51561425D01*
X145904286Y-51561425D02*
X145975714Y-51437615D01*
X145975714Y-51437615D02*
X146118572Y-51375711D01*
X146118572Y-51375711D02*
X146404286Y-51375711D01*
X146404286Y-51375711D02*
X146547143Y-51437615D01*
X146547143Y-51437615D02*
X146618572Y-51561425D01*
X146618572Y-51561425D02*
X146618572Y-51685234D01*
X146618572Y-51685234D02*
X145904286Y-51809044D01*
X147190000Y-52180473D02*
X147332857Y-52242377D01*
X147332857Y-52242377D02*
X147618571Y-52242377D01*
X147618571Y-52242377D02*
X147761428Y-52180473D01*
X147761428Y-52180473D02*
X147832857Y-52056663D01*
X147832857Y-52056663D02*
X147832857Y-51994758D01*
X147832857Y-51994758D02*
X147761428Y-51870949D01*
X147761428Y-51870949D02*
X147618571Y-51809044D01*
X147618571Y-51809044D02*
X147404286Y-51809044D01*
X147404286Y-51809044D02*
X147261428Y-51747139D01*
X147261428Y-51747139D02*
X147190000Y-51623330D01*
X147190000Y-51623330D02*
X147190000Y-51561425D01*
X147190000Y-51561425D02*
X147261428Y-51437615D01*
X147261428Y-51437615D02*
X147404286Y-51375711D01*
X147404286Y-51375711D02*
X147618571Y-51375711D01*
X147618571Y-51375711D02*
X147761428Y-51437615D01*
X148261429Y-51375711D02*
X148832857Y-51375711D01*
X148475714Y-50942377D02*
X148475714Y-52056663D01*
X148475714Y-52056663D02*
X148547143Y-52180473D01*
X148547143Y-52180473D02*
X148690000Y-52242377D01*
X148690000Y-52242377D02*
X148832857Y-52242377D01*
X151190000Y-52242377D02*
X150475714Y-52242377D01*
X150475714Y-52242377D02*
X150475714Y-50942377D01*
X151904286Y-52242377D02*
X151761429Y-52180473D01*
X151761429Y-52180473D02*
X151690000Y-52118568D01*
X151690000Y-52118568D02*
X151618572Y-51994758D01*
X151618572Y-51994758D02*
X151618572Y-51623330D01*
X151618572Y-51623330D02*
X151690000Y-51499520D01*
X151690000Y-51499520D02*
X151761429Y-51437615D01*
X151761429Y-51437615D02*
X151904286Y-51375711D01*
X151904286Y-51375711D02*
X152118572Y-51375711D01*
X152118572Y-51375711D02*
X152261429Y-51437615D01*
X152261429Y-51437615D02*
X152332858Y-51499520D01*
X152332858Y-51499520D02*
X152404286Y-51623330D01*
X152404286Y-51623330D02*
X152404286Y-51994758D01*
X152404286Y-51994758D02*
X152332858Y-52118568D01*
X152332858Y-52118568D02*
X152261429Y-52180473D01*
X152261429Y-52180473D02*
X152118572Y-52242377D01*
X152118572Y-52242377D02*
X151904286Y-52242377D01*
X153690001Y-52242377D02*
X153690001Y-51561425D01*
X153690001Y-51561425D02*
X153618572Y-51437615D01*
X153618572Y-51437615D02*
X153475715Y-51375711D01*
X153475715Y-51375711D02*
X153190001Y-51375711D01*
X153190001Y-51375711D02*
X153047143Y-51437615D01*
X153690001Y-52180473D02*
X153547143Y-52242377D01*
X153547143Y-52242377D02*
X153190001Y-52242377D01*
X153190001Y-52242377D02*
X153047143Y-52180473D01*
X153047143Y-52180473D02*
X152975715Y-52056663D01*
X152975715Y-52056663D02*
X152975715Y-51932853D01*
X152975715Y-51932853D02*
X153047143Y-51809044D01*
X153047143Y-51809044D02*
X153190001Y-51747139D01*
X153190001Y-51747139D02*
X153547143Y-51747139D01*
X153547143Y-51747139D02*
X153690001Y-51685234D01*
X155047144Y-52242377D02*
X155047144Y-50942377D01*
X155047144Y-52180473D02*
X154904286Y-52242377D01*
X154904286Y-52242377D02*
X154618572Y-52242377D01*
X154618572Y-52242377D02*
X154475715Y-52180473D01*
X154475715Y-52180473D02*
X154404286Y-52118568D01*
X154404286Y-52118568D02*
X154332858Y-51994758D01*
X154332858Y-51994758D02*
X154332858Y-51623330D01*
X154332858Y-51623330D02*
X154404286Y-51499520D01*
X154404286Y-51499520D02*
X154475715Y-51437615D01*
X154475715Y-51437615D02*
X154618572Y-51375711D01*
X154618572Y-51375711D02*
X154904286Y-51375711D01*
X154904286Y-51375711D02*
X155047144Y-51437615D01*
X156761429Y-51375711D02*
X157118572Y-52242377D01*
X157118572Y-52242377D02*
X157475715Y-51375711D01*
X158832858Y-52242377D02*
X157975715Y-52242377D01*
X158404286Y-52242377D02*
X158404286Y-50942377D01*
X158404286Y-50942377D02*
X158261429Y-51128092D01*
X158261429Y-51128092D02*
X158118572Y-51251901D01*
X158118572Y-51251901D02*
X157975715Y-51313806D01*
X159475714Y-52118568D02*
X159547143Y-52180473D01*
X159547143Y-52180473D02*
X159475714Y-52242377D01*
X159475714Y-52242377D02*
X159404286Y-52180473D01*
X159404286Y-52180473D02*
X159475714Y-52118568D01*
X159475714Y-52118568D02*
X159475714Y-52242377D01*
X160975715Y-52242377D02*
X160118572Y-52242377D01*
X160547143Y-52242377D02*
X160547143Y-50942377D01*
X160547143Y-50942377D02*
X160404286Y-51128092D01*
X160404286Y-51128092D02*
X160261429Y-51251901D01*
X160261429Y-51251901D02*
X160118572Y-51313806D01*
X145940001Y-54830542D02*
X145868572Y-54768638D01*
X145868572Y-54768638D02*
X145725715Y-54582923D01*
X145725715Y-54582923D02*
X145654287Y-54459114D01*
X145654287Y-54459114D02*
X145582858Y-54273400D01*
X145582858Y-54273400D02*
X145511429Y-53963876D01*
X145511429Y-53963876D02*
X145511429Y-53716257D01*
X145511429Y-53716257D02*
X145582858Y-53406733D01*
X145582858Y-53406733D02*
X145654287Y-53221019D01*
X145654287Y-53221019D02*
X145725715Y-53097209D01*
X145725715Y-53097209D02*
X145868572Y-52911495D01*
X145868572Y-52911495D02*
X145940001Y-52849590D01*
X146440001Y-53159114D02*
X146511429Y-53097209D01*
X146511429Y-53097209D02*
X146654287Y-53035304D01*
X146654287Y-53035304D02*
X147011429Y-53035304D01*
X147011429Y-53035304D02*
X147154287Y-53097209D01*
X147154287Y-53097209D02*
X147225715Y-53159114D01*
X147225715Y-53159114D02*
X147297144Y-53282923D01*
X147297144Y-53282923D02*
X147297144Y-53406733D01*
X147297144Y-53406733D02*
X147225715Y-53592447D01*
X147225715Y-53592447D02*
X146368572Y-54335304D01*
X146368572Y-54335304D02*
X147297144Y-54335304D01*
X148225715Y-53035304D02*
X148368572Y-53035304D01*
X148368572Y-53035304D02*
X148511429Y-53097209D01*
X148511429Y-53097209D02*
X148582858Y-53159114D01*
X148582858Y-53159114D02*
X148654286Y-53282923D01*
X148654286Y-53282923D02*
X148725715Y-53530542D01*
X148725715Y-53530542D02*
X148725715Y-53840066D01*
X148725715Y-53840066D02*
X148654286Y-54087685D01*
X148654286Y-54087685D02*
X148582858Y-54211495D01*
X148582858Y-54211495D02*
X148511429Y-54273400D01*
X148511429Y-54273400D02*
X148368572Y-54335304D01*
X148368572Y-54335304D02*
X148225715Y-54335304D01*
X148225715Y-54335304D02*
X148082858Y-54273400D01*
X148082858Y-54273400D02*
X148011429Y-54211495D01*
X148011429Y-54211495D02*
X147940000Y-54087685D01*
X147940000Y-54087685D02*
X147868572Y-53840066D01*
X147868572Y-53840066D02*
X147868572Y-53530542D01*
X147868572Y-53530542D02*
X147940000Y-53282923D01*
X147940000Y-53282923D02*
X148011429Y-53159114D01*
X148011429Y-53159114D02*
X148082858Y-53097209D01*
X148082858Y-53097209D02*
X148225715Y-53035304D01*
X149297143Y-53159114D02*
X149368571Y-53097209D01*
X149368571Y-53097209D02*
X149511429Y-53035304D01*
X149511429Y-53035304D02*
X149868571Y-53035304D01*
X149868571Y-53035304D02*
X150011429Y-53097209D01*
X150011429Y-53097209D02*
X150082857Y-53159114D01*
X150082857Y-53159114D02*
X150154286Y-53282923D01*
X150154286Y-53282923D02*
X150154286Y-53406733D01*
X150154286Y-53406733D02*
X150082857Y-53592447D01*
X150082857Y-53592447D02*
X149225714Y-54335304D01*
X149225714Y-54335304D02*
X150154286Y-54335304D01*
X151440000Y-53035304D02*
X151154285Y-53035304D01*
X151154285Y-53035304D02*
X151011428Y-53097209D01*
X151011428Y-53097209D02*
X150940000Y-53159114D01*
X150940000Y-53159114D02*
X150797142Y-53344828D01*
X150797142Y-53344828D02*
X150725714Y-53592447D01*
X150725714Y-53592447D02*
X150725714Y-54087685D01*
X150725714Y-54087685D02*
X150797142Y-54211495D01*
X150797142Y-54211495D02*
X150868571Y-54273400D01*
X150868571Y-54273400D02*
X151011428Y-54335304D01*
X151011428Y-54335304D02*
X151297142Y-54335304D01*
X151297142Y-54335304D02*
X151440000Y-54273400D01*
X151440000Y-54273400D02*
X151511428Y-54211495D01*
X151511428Y-54211495D02*
X151582857Y-54087685D01*
X151582857Y-54087685D02*
X151582857Y-53778161D01*
X151582857Y-53778161D02*
X151511428Y-53654352D01*
X151511428Y-53654352D02*
X151440000Y-53592447D01*
X151440000Y-53592447D02*
X151297142Y-53530542D01*
X151297142Y-53530542D02*
X151011428Y-53530542D01*
X151011428Y-53530542D02*
X150868571Y-53592447D01*
X150868571Y-53592447D02*
X150797142Y-53654352D01*
X150797142Y-53654352D02*
X150725714Y-53778161D01*
X153297142Y-52973400D02*
X152011428Y-54644828D01*
X154082857Y-53035304D02*
X154225714Y-53035304D01*
X154225714Y-53035304D02*
X154368571Y-53097209D01*
X154368571Y-53097209D02*
X154440000Y-53159114D01*
X154440000Y-53159114D02*
X154511428Y-53282923D01*
X154511428Y-53282923D02*
X154582857Y-53530542D01*
X154582857Y-53530542D02*
X154582857Y-53840066D01*
X154582857Y-53840066D02*
X154511428Y-54087685D01*
X154511428Y-54087685D02*
X154440000Y-54211495D01*
X154440000Y-54211495D02*
X154368571Y-54273400D01*
X154368571Y-54273400D02*
X154225714Y-54335304D01*
X154225714Y-54335304D02*
X154082857Y-54335304D01*
X154082857Y-54335304D02*
X153940000Y-54273400D01*
X153940000Y-54273400D02*
X153868571Y-54211495D01*
X153868571Y-54211495D02*
X153797142Y-54087685D01*
X153797142Y-54087685D02*
X153725714Y-53840066D01*
X153725714Y-53840066D02*
X153725714Y-53530542D01*
X153725714Y-53530542D02*
X153797142Y-53282923D01*
X153797142Y-53282923D02*
X153868571Y-53159114D01*
X153868571Y-53159114D02*
X153940000Y-53097209D01*
X153940000Y-53097209D02*
X154082857Y-53035304D01*
X155082856Y-53035304D02*
X156082856Y-53035304D01*
X156082856Y-53035304D02*
X155439999Y-54335304D01*
X157725713Y-52973400D02*
X156439999Y-54644828D01*
X158511428Y-53035304D02*
X158654285Y-53035304D01*
X158654285Y-53035304D02*
X158797142Y-53097209D01*
X158797142Y-53097209D02*
X158868571Y-53159114D01*
X158868571Y-53159114D02*
X158939999Y-53282923D01*
X158939999Y-53282923D02*
X159011428Y-53530542D01*
X159011428Y-53530542D02*
X159011428Y-53840066D01*
X159011428Y-53840066D02*
X158939999Y-54087685D01*
X158939999Y-54087685D02*
X158868571Y-54211495D01*
X158868571Y-54211495D02*
X158797142Y-54273400D01*
X158797142Y-54273400D02*
X158654285Y-54335304D01*
X158654285Y-54335304D02*
X158511428Y-54335304D01*
X158511428Y-54335304D02*
X158368571Y-54273400D01*
X158368571Y-54273400D02*
X158297142Y-54211495D01*
X158297142Y-54211495D02*
X158225713Y-54087685D01*
X158225713Y-54087685D02*
X158154285Y-53840066D01*
X158154285Y-53840066D02*
X158154285Y-53530542D01*
X158154285Y-53530542D02*
X158225713Y-53282923D01*
X158225713Y-53282923D02*
X158297142Y-53159114D01*
X158297142Y-53159114D02*
X158368571Y-53097209D01*
X158368571Y-53097209D02*
X158511428Y-53035304D01*
X160439999Y-54335304D02*
X159582856Y-54335304D01*
X160011427Y-54335304D02*
X160011427Y-53035304D01*
X160011427Y-53035304D02*
X159868570Y-53221019D01*
X159868570Y-53221019D02*
X159725713Y-53344828D01*
X159725713Y-53344828D02*
X159582856Y-53406733D01*
X160939998Y-54830542D02*
X161011427Y-54768638D01*
X161011427Y-54768638D02*
X161154284Y-54582923D01*
X161154284Y-54582923D02*
X161225713Y-54459114D01*
X161225713Y-54459114D02*
X161297141Y-54273400D01*
X161297141Y-54273400D02*
X161368570Y-53963876D01*
X161368570Y-53963876D02*
X161368570Y-53716257D01*
X161368570Y-53716257D02*
X161297141Y-53406733D01*
X161297141Y-53406733D02*
X161225713Y-53221019D01*
X161225713Y-53221019D02*
X161154284Y-53097209D01*
X161154284Y-53097209D02*
X161011427Y-52911495D01*
X161011427Y-52911495D02*
X160939998Y-52849590D01*
D13*
X184033333Y-53384580D02*
X183985714Y-53432200D01*
X183985714Y-53432200D02*
X183842857Y-53479819D01*
X183842857Y-53479819D02*
X183747619Y-53479819D01*
X183747619Y-53479819D02*
X183604762Y-53432200D01*
X183604762Y-53432200D02*
X183509524Y-53336961D01*
X183509524Y-53336961D02*
X183461905Y-53241723D01*
X183461905Y-53241723D02*
X183414286Y-53051247D01*
X183414286Y-53051247D02*
X183414286Y-52908390D01*
X183414286Y-52908390D02*
X183461905Y-52717914D01*
X183461905Y-52717914D02*
X183509524Y-52622676D01*
X183509524Y-52622676D02*
X183604762Y-52527438D01*
X183604762Y-52527438D02*
X183747619Y-52479819D01*
X183747619Y-52479819D02*
X183842857Y-52479819D01*
X183842857Y-52479819D02*
X183985714Y-52527438D01*
X183985714Y-52527438D02*
X184033333Y-52575057D01*
X185033333Y-53479819D02*
X184700000Y-53003628D01*
X184461905Y-53479819D02*
X184461905Y-52479819D01*
X184461905Y-52479819D02*
X184842857Y-52479819D01*
X184842857Y-52479819D02*
X184938095Y-52527438D01*
X184938095Y-52527438D02*
X184985714Y-52575057D01*
X184985714Y-52575057D02*
X185033333Y-52670295D01*
X185033333Y-52670295D02*
X185033333Y-52813152D01*
X185033333Y-52813152D02*
X184985714Y-52908390D01*
X184985714Y-52908390D02*
X184938095Y-52956009D01*
X184938095Y-52956009D02*
X184842857Y-53003628D01*
X184842857Y-53003628D02*
X184461905Y-53003628D01*
X185985714Y-53479819D02*
X185414286Y-53479819D01*
X185700000Y-53479819D02*
X185700000Y-52479819D01*
X185700000Y-52479819D02*
X185604762Y-52622676D01*
X185604762Y-52622676D02*
X185509524Y-52717914D01*
X185509524Y-52717914D02*
X185414286Y-52765533D01*
X191244819Y-57366666D02*
X190768628Y-57699999D01*
X191244819Y-57938094D02*
X190244819Y-57938094D01*
X190244819Y-57938094D02*
X190244819Y-57557142D01*
X190244819Y-57557142D02*
X190292438Y-57461904D01*
X190292438Y-57461904D02*
X190340057Y-57414285D01*
X190340057Y-57414285D02*
X190435295Y-57366666D01*
X190435295Y-57366666D02*
X190578152Y-57366666D01*
X190578152Y-57366666D02*
X190673390Y-57414285D01*
X190673390Y-57414285D02*
X190721009Y-57461904D01*
X190721009Y-57461904D02*
X190768628Y-57557142D01*
X190768628Y-57557142D02*
X190768628Y-57938094D01*
X190340057Y-56985713D02*
X190292438Y-56938094D01*
X190292438Y-56938094D02*
X190244819Y-56842856D01*
X190244819Y-56842856D02*
X190244819Y-56604761D01*
X190244819Y-56604761D02*
X190292438Y-56509523D01*
X190292438Y-56509523D02*
X190340057Y-56461904D01*
X190340057Y-56461904D02*
X190435295Y-56414285D01*
X190435295Y-56414285D02*
X190530533Y-56414285D01*
X190530533Y-56414285D02*
X190673390Y-56461904D01*
X190673390Y-56461904D02*
X191244819Y-57033332D01*
X191244819Y-57033332D02*
X191244819Y-56414285D01*
X183413333Y-70449580D02*
X183365714Y-70497200D01*
X183365714Y-70497200D02*
X183222857Y-70544819D01*
X183222857Y-70544819D02*
X183127619Y-70544819D01*
X183127619Y-70544819D02*
X182984762Y-70497200D01*
X182984762Y-70497200D02*
X182889524Y-70401961D01*
X182889524Y-70401961D02*
X182841905Y-70306723D01*
X182841905Y-70306723D02*
X182794286Y-70116247D01*
X182794286Y-70116247D02*
X182794286Y-69973390D01*
X182794286Y-69973390D02*
X182841905Y-69782914D01*
X182841905Y-69782914D02*
X182889524Y-69687676D01*
X182889524Y-69687676D02*
X182984762Y-69592438D01*
X182984762Y-69592438D02*
X183127619Y-69544819D01*
X183127619Y-69544819D02*
X183222857Y-69544819D01*
X183222857Y-69544819D02*
X183365714Y-69592438D01*
X183365714Y-69592438D02*
X183413333Y-69640057D01*
X184413333Y-70544819D02*
X184080000Y-70068628D01*
X183841905Y-70544819D02*
X183841905Y-69544819D01*
X183841905Y-69544819D02*
X184222857Y-69544819D01*
X184222857Y-69544819D02*
X184318095Y-69592438D01*
X184318095Y-69592438D02*
X184365714Y-69640057D01*
X184365714Y-69640057D02*
X184413333Y-69735295D01*
X184413333Y-69735295D02*
X184413333Y-69878152D01*
X184413333Y-69878152D02*
X184365714Y-69973390D01*
X184365714Y-69973390D02*
X184318095Y-70021009D01*
X184318095Y-70021009D02*
X184222857Y-70068628D01*
X184222857Y-70068628D02*
X183841905Y-70068628D01*
X184794286Y-69640057D02*
X184841905Y-69592438D01*
X184841905Y-69592438D02*
X184937143Y-69544819D01*
X184937143Y-69544819D02*
X185175238Y-69544819D01*
X185175238Y-69544819D02*
X185270476Y-69592438D01*
X185270476Y-69592438D02*
X185318095Y-69640057D01*
X185318095Y-69640057D02*
X185365714Y-69735295D01*
X185365714Y-69735295D02*
X185365714Y-69830533D01*
X185365714Y-69830533D02*
X185318095Y-69973390D01*
X185318095Y-69973390D02*
X184746667Y-70544819D01*
X184746667Y-70544819D02*
X185365714Y-70544819D01*
X175588095Y-77256819D02*
X176159523Y-77256819D01*
X175873809Y-78256819D02*
X175873809Y-77256819D01*
X176492857Y-78256819D02*
X176492857Y-77256819D01*
X176492857Y-77256819D02*
X176873809Y-77256819D01*
X176873809Y-77256819D02*
X176969047Y-77304438D01*
X176969047Y-77304438D02*
X177016666Y-77352057D01*
X177016666Y-77352057D02*
X177064285Y-77447295D01*
X177064285Y-77447295D02*
X177064285Y-77590152D01*
X177064285Y-77590152D02*
X177016666Y-77685390D01*
X177016666Y-77685390D02*
X176969047Y-77733009D01*
X176969047Y-77733009D02*
X176873809Y-77780628D01*
X176873809Y-77780628D02*
X176492857Y-77780628D01*
X177921428Y-77256819D02*
X177730952Y-77256819D01*
X177730952Y-77256819D02*
X177635714Y-77304438D01*
X177635714Y-77304438D02*
X177588095Y-77352057D01*
X177588095Y-77352057D02*
X177492857Y-77494914D01*
X177492857Y-77494914D02*
X177445238Y-77685390D01*
X177445238Y-77685390D02*
X177445238Y-78066342D01*
X177445238Y-78066342D02*
X177492857Y-78161580D01*
X177492857Y-78161580D02*
X177540476Y-78209200D01*
X177540476Y-78209200D02*
X177635714Y-78256819D01*
X177635714Y-78256819D02*
X177826190Y-78256819D01*
X177826190Y-78256819D02*
X177921428Y-78209200D01*
X177921428Y-78209200D02*
X177969047Y-78161580D01*
X177969047Y-78161580D02*
X178016666Y-78066342D01*
X178016666Y-78066342D02*
X178016666Y-77828247D01*
X178016666Y-77828247D02*
X177969047Y-77733009D01*
X177969047Y-77733009D02*
X177921428Y-77685390D01*
X177921428Y-77685390D02*
X177826190Y-77637771D01*
X177826190Y-77637771D02*
X177635714Y-77637771D01*
X177635714Y-77637771D02*
X177540476Y-77685390D01*
X177540476Y-77685390D02*
X177492857Y-77733009D01*
X177492857Y-77733009D02*
X177445238Y-77828247D01*
X191544819Y-84316666D02*
X191068628Y-84649999D01*
X191544819Y-84888094D02*
X190544819Y-84888094D01*
X190544819Y-84888094D02*
X190544819Y-84507142D01*
X190544819Y-84507142D02*
X190592438Y-84411904D01*
X190592438Y-84411904D02*
X190640057Y-84364285D01*
X190640057Y-84364285D02*
X190735295Y-84316666D01*
X190735295Y-84316666D02*
X190878152Y-84316666D01*
X190878152Y-84316666D02*
X190973390Y-84364285D01*
X190973390Y-84364285D02*
X191021009Y-84411904D01*
X191021009Y-84411904D02*
X191068628Y-84507142D01*
X191068628Y-84507142D02*
X191068628Y-84888094D01*
X190544819Y-83411904D02*
X190544819Y-83888094D01*
X190544819Y-83888094D02*
X191021009Y-83935713D01*
X191021009Y-83935713D02*
X190973390Y-83888094D01*
X190973390Y-83888094D02*
X190925771Y-83792856D01*
X190925771Y-83792856D02*
X190925771Y-83554761D01*
X190925771Y-83554761D02*
X190973390Y-83459523D01*
X190973390Y-83459523D02*
X191021009Y-83411904D01*
X191021009Y-83411904D02*
X191116247Y-83364285D01*
X191116247Y-83364285D02*
X191354342Y-83364285D01*
X191354342Y-83364285D02*
X191449580Y-83411904D01*
X191449580Y-83411904D02*
X191497200Y-83459523D01*
X191497200Y-83459523D02*
X191544819Y-83554761D01*
X191544819Y-83554761D02*
X191544819Y-83792856D01*
X191544819Y-83792856D02*
X191497200Y-83888094D01*
X191497200Y-83888094D02*
X191449580Y-83935713D01*
X187024819Y-89218094D02*
X186024819Y-89218094D01*
X186024819Y-89218094D02*
X186024819Y-88979999D01*
X186024819Y-88979999D02*
X186072438Y-88837142D01*
X186072438Y-88837142D02*
X186167676Y-88741904D01*
X186167676Y-88741904D02*
X186262914Y-88694285D01*
X186262914Y-88694285D02*
X186453390Y-88646666D01*
X186453390Y-88646666D02*
X186596247Y-88646666D01*
X186596247Y-88646666D02*
X186786723Y-88694285D01*
X186786723Y-88694285D02*
X186881961Y-88741904D01*
X186881961Y-88741904D02*
X186977200Y-88837142D01*
X186977200Y-88837142D02*
X187024819Y-88979999D01*
X187024819Y-88979999D02*
X187024819Y-89218094D01*
X186024819Y-88313332D02*
X186024819Y-87694285D01*
X186024819Y-87694285D02*
X186405771Y-88027618D01*
X186405771Y-88027618D02*
X186405771Y-87884761D01*
X186405771Y-87884761D02*
X186453390Y-87789523D01*
X186453390Y-87789523D02*
X186501009Y-87741904D01*
X186501009Y-87741904D02*
X186596247Y-87694285D01*
X186596247Y-87694285D02*
X186834342Y-87694285D01*
X186834342Y-87694285D02*
X186929580Y-87741904D01*
X186929580Y-87741904D02*
X186977200Y-87789523D01*
X186977200Y-87789523D02*
X187024819Y-87884761D01*
X187024819Y-87884761D02*
X187024819Y-88170475D01*
X187024819Y-88170475D02*
X186977200Y-88265713D01*
X186977200Y-88265713D02*
X186929580Y-88313332D01*
X172188095Y-55006819D02*
X172759523Y-55006819D01*
X172473809Y-56006819D02*
X172473809Y-55006819D01*
X173092857Y-56006819D02*
X173092857Y-55006819D01*
X173092857Y-55006819D02*
X173473809Y-55006819D01*
X173473809Y-55006819D02*
X173569047Y-55054438D01*
X173569047Y-55054438D02*
X173616666Y-55102057D01*
X173616666Y-55102057D02*
X173664285Y-55197295D01*
X173664285Y-55197295D02*
X173664285Y-55340152D01*
X173664285Y-55340152D02*
X173616666Y-55435390D01*
X173616666Y-55435390D02*
X173569047Y-55483009D01*
X173569047Y-55483009D02*
X173473809Y-55530628D01*
X173473809Y-55530628D02*
X173092857Y-55530628D01*
X174616666Y-56006819D02*
X174045238Y-56006819D01*
X174330952Y-56006819D02*
X174330952Y-55006819D01*
X174330952Y-55006819D02*
X174235714Y-55149676D01*
X174235714Y-55149676D02*
X174140476Y-55244914D01*
X174140476Y-55244914D02*
X174045238Y-55292533D01*
X191644819Y-74226666D02*
X191168628Y-74559999D01*
X191644819Y-74798094D02*
X190644819Y-74798094D01*
X190644819Y-74798094D02*
X190644819Y-74417142D01*
X190644819Y-74417142D02*
X190692438Y-74321904D01*
X190692438Y-74321904D02*
X190740057Y-74274285D01*
X190740057Y-74274285D02*
X190835295Y-74226666D01*
X190835295Y-74226666D02*
X190978152Y-74226666D01*
X190978152Y-74226666D02*
X191073390Y-74274285D01*
X191073390Y-74274285D02*
X191121009Y-74321904D01*
X191121009Y-74321904D02*
X191168628Y-74417142D01*
X191168628Y-74417142D02*
X191168628Y-74798094D01*
X190978152Y-73369523D02*
X191644819Y-73369523D01*
X190597200Y-73607618D02*
X191311485Y-73845713D01*
X191311485Y-73845713D02*
X191311485Y-73226666D01*
X172638095Y-84456819D02*
X173209523Y-84456819D01*
X172923809Y-85456819D02*
X172923809Y-84456819D01*
X173542857Y-85456819D02*
X173542857Y-84456819D01*
X173542857Y-84456819D02*
X173923809Y-84456819D01*
X173923809Y-84456819D02*
X174019047Y-84504438D01*
X174019047Y-84504438D02*
X174066666Y-84552057D01*
X174066666Y-84552057D02*
X174114285Y-84647295D01*
X174114285Y-84647295D02*
X174114285Y-84790152D01*
X174114285Y-84790152D02*
X174066666Y-84885390D01*
X174066666Y-84885390D02*
X174019047Y-84933009D01*
X174019047Y-84933009D02*
X173923809Y-84980628D01*
X173923809Y-84980628D02*
X173542857Y-84980628D01*
X175019047Y-84456819D02*
X174542857Y-84456819D01*
X174542857Y-84456819D02*
X174495238Y-84933009D01*
X174495238Y-84933009D02*
X174542857Y-84885390D01*
X174542857Y-84885390D02*
X174638095Y-84837771D01*
X174638095Y-84837771D02*
X174876190Y-84837771D01*
X174876190Y-84837771D02*
X174971428Y-84885390D01*
X174971428Y-84885390D02*
X175019047Y-84933009D01*
X175019047Y-84933009D02*
X175066666Y-85028247D01*
X175066666Y-85028247D02*
X175066666Y-85266342D01*
X175066666Y-85266342D02*
X175019047Y-85361580D01*
X175019047Y-85361580D02*
X174971428Y-85409200D01*
X174971428Y-85409200D02*
X174876190Y-85456819D01*
X174876190Y-85456819D02*
X174638095Y-85456819D01*
X174638095Y-85456819D02*
X174542857Y-85409200D01*
X174542857Y-85409200D02*
X174495238Y-85361580D01*
X182544819Y-73958094D02*
X181544819Y-73958094D01*
X181544819Y-73958094D02*
X181544819Y-73719999D01*
X181544819Y-73719999D02*
X181592438Y-73577142D01*
X181592438Y-73577142D02*
X181687676Y-73481904D01*
X181687676Y-73481904D02*
X181782914Y-73434285D01*
X181782914Y-73434285D02*
X181973390Y-73386666D01*
X181973390Y-73386666D02*
X182116247Y-73386666D01*
X182116247Y-73386666D02*
X182306723Y-73434285D01*
X182306723Y-73434285D02*
X182401961Y-73481904D01*
X182401961Y-73481904D02*
X182497200Y-73577142D01*
X182497200Y-73577142D02*
X182544819Y-73719999D01*
X182544819Y-73719999D02*
X182544819Y-73958094D01*
X181640057Y-73005713D02*
X181592438Y-72958094D01*
X181592438Y-72958094D02*
X181544819Y-72862856D01*
X181544819Y-72862856D02*
X181544819Y-72624761D01*
X181544819Y-72624761D02*
X181592438Y-72529523D01*
X181592438Y-72529523D02*
X181640057Y-72481904D01*
X181640057Y-72481904D02*
X181735295Y-72434285D01*
X181735295Y-72434285D02*
X181830533Y-72434285D01*
X181830533Y-72434285D02*
X181973390Y-72481904D01*
X181973390Y-72481904D02*
X182544819Y-73053332D01*
X182544819Y-73053332D02*
X182544819Y-72434285D01*
X174388095Y-64306819D02*
X174959523Y-64306819D01*
X174673809Y-65306819D02*
X174673809Y-64306819D01*
X175292857Y-65306819D02*
X175292857Y-64306819D01*
X175292857Y-64306819D02*
X175673809Y-64306819D01*
X175673809Y-64306819D02*
X175769047Y-64354438D01*
X175769047Y-64354438D02*
X175816666Y-64402057D01*
X175816666Y-64402057D02*
X175864285Y-64497295D01*
X175864285Y-64497295D02*
X175864285Y-64640152D01*
X175864285Y-64640152D02*
X175816666Y-64735390D01*
X175816666Y-64735390D02*
X175769047Y-64783009D01*
X175769047Y-64783009D02*
X175673809Y-64830628D01*
X175673809Y-64830628D02*
X175292857Y-64830628D01*
X176721428Y-64640152D02*
X176721428Y-65306819D01*
X176483333Y-64259200D02*
X176245238Y-64973485D01*
X176245238Y-64973485D02*
X176864285Y-64973485D01*
X183273333Y-85209580D02*
X183225714Y-85257200D01*
X183225714Y-85257200D02*
X183082857Y-85304819D01*
X183082857Y-85304819D02*
X182987619Y-85304819D01*
X182987619Y-85304819D02*
X182844762Y-85257200D01*
X182844762Y-85257200D02*
X182749524Y-85161961D01*
X182749524Y-85161961D02*
X182701905Y-85066723D01*
X182701905Y-85066723D02*
X182654286Y-84876247D01*
X182654286Y-84876247D02*
X182654286Y-84733390D01*
X182654286Y-84733390D02*
X182701905Y-84542914D01*
X182701905Y-84542914D02*
X182749524Y-84447676D01*
X182749524Y-84447676D02*
X182844762Y-84352438D01*
X182844762Y-84352438D02*
X182987619Y-84304819D01*
X182987619Y-84304819D02*
X183082857Y-84304819D01*
X183082857Y-84304819D02*
X183225714Y-84352438D01*
X183225714Y-84352438D02*
X183273333Y-84400057D01*
X184273333Y-85304819D02*
X183940000Y-84828628D01*
X183701905Y-85304819D02*
X183701905Y-84304819D01*
X183701905Y-84304819D02*
X184082857Y-84304819D01*
X184082857Y-84304819D02*
X184178095Y-84352438D01*
X184178095Y-84352438D02*
X184225714Y-84400057D01*
X184225714Y-84400057D02*
X184273333Y-84495295D01*
X184273333Y-84495295D02*
X184273333Y-84638152D01*
X184273333Y-84638152D02*
X184225714Y-84733390D01*
X184225714Y-84733390D02*
X184178095Y-84781009D01*
X184178095Y-84781009D02*
X184082857Y-84828628D01*
X184082857Y-84828628D02*
X183701905Y-84828628D01*
X184606667Y-84304819D02*
X185225714Y-84304819D01*
X185225714Y-84304819D02*
X184892381Y-84685771D01*
X184892381Y-84685771D02*
X185035238Y-84685771D01*
X185035238Y-84685771D02*
X185130476Y-84733390D01*
X185130476Y-84733390D02*
X185178095Y-84781009D01*
X185178095Y-84781009D02*
X185225714Y-84876247D01*
X185225714Y-84876247D02*
X185225714Y-85114342D01*
X185225714Y-85114342D02*
X185178095Y-85209580D01*
X185178095Y-85209580D02*
X185130476Y-85257200D01*
X185130476Y-85257200D02*
X185035238Y-85304819D01*
X185035238Y-85304819D02*
X184749524Y-85304819D01*
X184749524Y-85304819D02*
X184654286Y-85257200D01*
X184654286Y-85257200D02*
X184606667Y-85209580D01*
X172988095Y-70606819D02*
X173559523Y-70606819D01*
X173273809Y-71606819D02*
X173273809Y-70606819D01*
X173892857Y-71606819D02*
X173892857Y-70606819D01*
X173892857Y-70606819D02*
X174273809Y-70606819D01*
X174273809Y-70606819D02*
X174369047Y-70654438D01*
X174369047Y-70654438D02*
X174416666Y-70702057D01*
X174416666Y-70702057D02*
X174464285Y-70797295D01*
X174464285Y-70797295D02*
X174464285Y-70940152D01*
X174464285Y-70940152D02*
X174416666Y-71035390D01*
X174416666Y-71035390D02*
X174369047Y-71083009D01*
X174369047Y-71083009D02*
X174273809Y-71130628D01*
X174273809Y-71130628D02*
X173892857Y-71130628D01*
X174797619Y-70606819D02*
X175416666Y-70606819D01*
X175416666Y-70606819D02*
X175083333Y-70987771D01*
X175083333Y-70987771D02*
X175226190Y-70987771D01*
X175226190Y-70987771D02*
X175321428Y-71035390D01*
X175321428Y-71035390D02*
X175369047Y-71083009D01*
X175369047Y-71083009D02*
X175416666Y-71178247D01*
X175416666Y-71178247D02*
X175416666Y-71416342D01*
X175416666Y-71416342D02*
X175369047Y-71511580D01*
X175369047Y-71511580D02*
X175321428Y-71559200D01*
X175321428Y-71559200D02*
X175226190Y-71606819D01*
X175226190Y-71606819D02*
X174940476Y-71606819D01*
X174940476Y-71606819D02*
X174845238Y-71559200D01*
X174845238Y-71559200D02*
X174797619Y-71511580D01*
X174588095Y-48906819D02*
X175159523Y-48906819D01*
X174873809Y-49906819D02*
X174873809Y-48906819D01*
X175492857Y-49906819D02*
X175492857Y-48906819D01*
X175492857Y-48906819D02*
X175873809Y-48906819D01*
X175873809Y-48906819D02*
X175969047Y-48954438D01*
X175969047Y-48954438D02*
X176016666Y-49002057D01*
X176016666Y-49002057D02*
X176064285Y-49097295D01*
X176064285Y-49097295D02*
X176064285Y-49240152D01*
X176064285Y-49240152D02*
X176016666Y-49335390D01*
X176016666Y-49335390D02*
X175969047Y-49383009D01*
X175969047Y-49383009D02*
X175873809Y-49430628D01*
X175873809Y-49430628D02*
X175492857Y-49430628D01*
X176445238Y-49002057D02*
X176492857Y-48954438D01*
X176492857Y-48954438D02*
X176588095Y-48906819D01*
X176588095Y-48906819D02*
X176826190Y-48906819D01*
X176826190Y-48906819D02*
X176921428Y-48954438D01*
X176921428Y-48954438D02*
X176969047Y-49002057D01*
X176969047Y-49002057D02*
X177016666Y-49097295D01*
X177016666Y-49097295D02*
X177016666Y-49192533D01*
X177016666Y-49192533D02*
X176969047Y-49335390D01*
X176969047Y-49335390D02*
X176397619Y-49906819D01*
X176397619Y-49906819D02*
X177016666Y-49906819D01*
X191604819Y-69596666D02*
X191128628Y-69929999D01*
X191604819Y-70168094D02*
X190604819Y-70168094D01*
X190604819Y-70168094D02*
X190604819Y-69787142D01*
X190604819Y-69787142D02*
X190652438Y-69691904D01*
X190652438Y-69691904D02*
X190700057Y-69644285D01*
X190700057Y-69644285D02*
X190795295Y-69596666D01*
X190795295Y-69596666D02*
X190938152Y-69596666D01*
X190938152Y-69596666D02*
X191033390Y-69644285D01*
X191033390Y-69644285D02*
X191081009Y-69691904D01*
X191081009Y-69691904D02*
X191128628Y-69787142D01*
X191128628Y-69787142D02*
X191128628Y-70168094D01*
X190604819Y-69263332D02*
X190604819Y-68644285D01*
X190604819Y-68644285D02*
X190985771Y-68977618D01*
X190985771Y-68977618D02*
X190985771Y-68834761D01*
X190985771Y-68834761D02*
X191033390Y-68739523D01*
X191033390Y-68739523D02*
X191081009Y-68691904D01*
X191081009Y-68691904D02*
X191176247Y-68644285D01*
X191176247Y-68644285D02*
X191414342Y-68644285D01*
X191414342Y-68644285D02*
X191509580Y-68691904D01*
X191509580Y-68691904D02*
X191557200Y-68739523D01*
X191557200Y-68739523D02*
X191604819Y-68834761D01*
X191604819Y-68834761D02*
X191604819Y-69120475D01*
X191604819Y-69120475D02*
X191557200Y-69215713D01*
X191557200Y-69215713D02*
X191509580Y-69263332D01*
X167718095Y-84204819D02*
X167718095Y-85014342D01*
X167718095Y-85014342D02*
X167765714Y-85109580D01*
X167765714Y-85109580D02*
X167813333Y-85157200D01*
X167813333Y-85157200D02*
X167908571Y-85204819D01*
X167908571Y-85204819D02*
X168099047Y-85204819D01*
X168099047Y-85204819D02*
X168194285Y-85157200D01*
X168194285Y-85157200D02*
X168241904Y-85109580D01*
X168241904Y-85109580D02*
X168289523Y-85014342D01*
X168289523Y-85014342D02*
X168289523Y-84204819D01*
X168670476Y-84204819D02*
X169289523Y-84204819D01*
X169289523Y-84204819D02*
X168956190Y-84585771D01*
X168956190Y-84585771D02*
X169099047Y-84585771D01*
X169099047Y-84585771D02*
X169194285Y-84633390D01*
X169194285Y-84633390D02*
X169241904Y-84681009D01*
X169241904Y-84681009D02*
X169289523Y-84776247D01*
X169289523Y-84776247D02*
X169289523Y-85014342D01*
X169289523Y-85014342D02*
X169241904Y-85109580D01*
X169241904Y-85109580D02*
X169194285Y-85157200D01*
X169194285Y-85157200D02*
X169099047Y-85204819D01*
X169099047Y-85204819D02*
X168813333Y-85204819D01*
X168813333Y-85204819D02*
X168718095Y-85157200D01*
X168718095Y-85157200D02*
X168670476Y-85109580D01*
X191724819Y-52536666D02*
X191248628Y-52869999D01*
X191724819Y-53108094D02*
X190724819Y-53108094D01*
X190724819Y-53108094D02*
X190724819Y-52727142D01*
X190724819Y-52727142D02*
X190772438Y-52631904D01*
X190772438Y-52631904D02*
X190820057Y-52584285D01*
X190820057Y-52584285D02*
X190915295Y-52536666D01*
X190915295Y-52536666D02*
X191058152Y-52536666D01*
X191058152Y-52536666D02*
X191153390Y-52584285D01*
X191153390Y-52584285D02*
X191201009Y-52631904D01*
X191201009Y-52631904D02*
X191248628Y-52727142D01*
X191248628Y-52727142D02*
X191248628Y-53108094D01*
X191724819Y-51584285D02*
X191724819Y-52155713D01*
X191724819Y-51869999D02*
X190724819Y-51869999D01*
X190724819Y-51869999D02*
X190867676Y-51965237D01*
X190867676Y-51965237D02*
X190962914Y-52060475D01*
X190962914Y-52060475D02*
X191010533Y-52155713D01*
X167348095Y-71269819D02*
X167348095Y-72079342D01*
X167348095Y-72079342D02*
X167395714Y-72174580D01*
X167395714Y-72174580D02*
X167443333Y-72222200D01*
X167443333Y-72222200D02*
X167538571Y-72269819D01*
X167538571Y-72269819D02*
X167729047Y-72269819D01*
X167729047Y-72269819D02*
X167824285Y-72222200D01*
X167824285Y-72222200D02*
X167871904Y-72174580D01*
X167871904Y-72174580D02*
X167919523Y-72079342D01*
X167919523Y-72079342D02*
X167919523Y-71269819D01*
X168348095Y-71365057D02*
X168395714Y-71317438D01*
X168395714Y-71317438D02*
X168490952Y-71269819D01*
X168490952Y-71269819D02*
X168729047Y-71269819D01*
X168729047Y-71269819D02*
X168824285Y-71317438D01*
X168824285Y-71317438D02*
X168871904Y-71365057D01*
X168871904Y-71365057D02*
X168919523Y-71460295D01*
X168919523Y-71460295D02*
X168919523Y-71555533D01*
X168919523Y-71555533D02*
X168871904Y-71698390D01*
X168871904Y-71698390D02*
X168300476Y-72269819D01*
X168300476Y-72269819D02*
X168919523Y-72269819D01*
X167213095Y-55854819D02*
X167213095Y-56664342D01*
X167213095Y-56664342D02*
X167260714Y-56759580D01*
X167260714Y-56759580D02*
X167308333Y-56807200D01*
X167308333Y-56807200D02*
X167403571Y-56854819D01*
X167403571Y-56854819D02*
X167594047Y-56854819D01*
X167594047Y-56854819D02*
X167689285Y-56807200D01*
X167689285Y-56807200D02*
X167736904Y-56759580D01*
X167736904Y-56759580D02*
X167784523Y-56664342D01*
X167784523Y-56664342D02*
X167784523Y-55854819D01*
X168784523Y-56854819D02*
X168213095Y-56854819D01*
X168498809Y-56854819D02*
X168498809Y-55854819D01*
X168498809Y-55854819D02*
X168403571Y-55997676D01*
X168403571Y-55997676D02*
X168308333Y-56092914D01*
X168308333Y-56092914D02*
X168213095Y-56140533D01*
X191514819Y-89516666D02*
X191038628Y-89849999D01*
X191514819Y-90088094D02*
X190514819Y-90088094D01*
X190514819Y-90088094D02*
X190514819Y-89707142D01*
X190514819Y-89707142D02*
X190562438Y-89611904D01*
X190562438Y-89611904D02*
X190610057Y-89564285D01*
X190610057Y-89564285D02*
X190705295Y-89516666D01*
X190705295Y-89516666D02*
X190848152Y-89516666D01*
X190848152Y-89516666D02*
X190943390Y-89564285D01*
X190943390Y-89564285D02*
X190991009Y-89611904D01*
X190991009Y-89611904D02*
X191038628Y-89707142D01*
X191038628Y-89707142D02*
X191038628Y-90088094D01*
X190514819Y-88659523D02*
X190514819Y-88849999D01*
X190514819Y-88849999D02*
X190562438Y-88945237D01*
X190562438Y-88945237D02*
X190610057Y-88992856D01*
X190610057Y-88992856D02*
X190752914Y-89088094D01*
X190752914Y-89088094D02*
X190943390Y-89135713D01*
X190943390Y-89135713D02*
X191324342Y-89135713D01*
X191324342Y-89135713D02*
X191419580Y-89088094D01*
X191419580Y-89088094D02*
X191467200Y-89040475D01*
X191467200Y-89040475D02*
X191514819Y-88945237D01*
X191514819Y-88945237D02*
X191514819Y-88754761D01*
X191514819Y-88754761D02*
X191467200Y-88659523D01*
X191467200Y-88659523D02*
X191419580Y-88611904D01*
X191419580Y-88611904D02*
X191324342Y-88564285D01*
X191324342Y-88564285D02*
X191086247Y-88564285D01*
X191086247Y-88564285D02*
X190991009Y-88611904D01*
X190991009Y-88611904D02*
X190943390Y-88659523D01*
X190943390Y-88659523D02*
X190895771Y-88754761D01*
X190895771Y-88754761D02*
X190895771Y-88945237D01*
X190895771Y-88945237D02*
X190943390Y-89040475D01*
X190943390Y-89040475D02*
X190991009Y-89088094D01*
X190991009Y-89088094D02*
X191086247Y-89135713D01*
%TO.C,CR1*%
D14*
X184700000Y-47065000D02*
X182750000Y-47065000D01*
X184700000Y-47065000D02*
X186650000Y-47065000D01*
X184700000Y-52185000D02*
X182750000Y-52185000D01*
X184700000Y-52185000D02*
X186650000Y-52185000D01*
X187400000Y-52090000D02*
X187640000Y-52420000D01*
X187160000Y-52420000D01*
X187400000Y-52090000D01*
G36*
X187640000Y-52420000D02*
G01*
X187160000Y-52420000D01*
X187400000Y-52090000D01*
X187640000Y-52420000D01*
G37*
%TO.C,R2*%
X188837500Y-56962742D02*
X188837500Y-57437258D01*
X189882500Y-56962742D02*
X189882500Y-57437258D01*
%TO.C,CR2*%
X184080000Y-64130000D02*
X182130000Y-64130000D01*
X184080000Y-64130000D02*
X186030000Y-64130000D01*
X184080000Y-69250000D02*
X182130000Y-69250000D01*
X184080000Y-69250000D02*
X186030000Y-69250000D01*
X186780000Y-69155000D02*
X187020000Y-69485000D01*
X186540000Y-69485000D01*
X186780000Y-69155000D01*
G36*
X187020000Y-69485000D02*
G01*
X186540000Y-69485000D01*
X186780000Y-69155000D01*
X187020000Y-69485000D01*
G37*
%TO.C,TP6*%
X175900000Y-78500000D02*
X177800000Y-78500000D01*
X175900000Y-80400000D02*
X175900000Y-78500000D01*
X177800000Y-78500000D02*
X177800000Y-80400000D01*
X177800000Y-80400000D02*
X175900000Y-80400000D01*
%TO.C,R5*%
X189137500Y-83912742D02*
X189137500Y-84387258D01*
X190182500Y-83912742D02*
X190182500Y-84387258D01*
%TO.C,D1*%
X183770000Y-58727500D02*
X183770000Y-54717500D01*
X183770000Y-58727500D02*
X185770000Y-58727500D01*
X185770000Y-58727500D02*
X185770000Y-54717500D01*
%TO.C,D3*%
X183200000Y-90897500D02*
X183200000Y-86887500D01*
X183200000Y-90897500D02*
X185200000Y-90897500D01*
X185200000Y-90897500D02*
X185200000Y-86887500D01*
%TO.C,TP1*%
X172500000Y-56250000D02*
X174400000Y-56250000D01*
X172500000Y-58150000D02*
X172500000Y-56250000D01*
X174400000Y-56250000D02*
X174400000Y-58150000D01*
X174400000Y-58150000D02*
X172500000Y-58150000D01*
%TO.C,R4*%
X189237500Y-73822742D02*
X189237500Y-74297258D01*
X190282500Y-73822742D02*
X190282500Y-74297258D01*
%TO.C,TP5*%
X172950000Y-85700000D02*
X174850000Y-85700000D01*
X172950000Y-87600000D02*
X172950000Y-85700000D01*
X174850000Y-85700000D02*
X174850000Y-87600000D01*
X174850000Y-87600000D02*
X172950000Y-87600000D01*
%TO.C,D2*%
X183090000Y-75580000D02*
X183090000Y-71570000D01*
X183090000Y-75580000D02*
X185090000Y-75580000D01*
X185090000Y-75580000D02*
X185090000Y-71570000D01*
%TO.C,TP4*%
X174700000Y-65550000D02*
X176600000Y-65550000D01*
X174700000Y-67450000D02*
X174700000Y-65550000D01*
X176600000Y-65550000D02*
X176600000Y-67450000D01*
X176600000Y-67450000D02*
X174700000Y-67450000D01*
%TO.C,CR3*%
X183940000Y-78890000D02*
X181990000Y-78890000D01*
X183940000Y-78890000D02*
X185890000Y-78890000D01*
X183940000Y-84010000D02*
X181990000Y-84010000D01*
X183940000Y-84010000D02*
X185890000Y-84010000D01*
X186640000Y-83915000D02*
X186880000Y-84245000D01*
X186400000Y-84245000D01*
X186640000Y-83915000D01*
G36*
X186880000Y-84245000D02*
G01*
X186400000Y-84245000D01*
X186640000Y-83915000D01*
X186880000Y-84245000D01*
G37*
%TO.C,TP3*%
X173300000Y-71850000D02*
X175200000Y-71850000D01*
X173300000Y-73750000D02*
X173300000Y-71850000D01*
X175200000Y-71850000D02*
X175200000Y-73750000D01*
X175200000Y-73750000D02*
X173300000Y-73750000D01*
%TO.C,TP2*%
X174900000Y-50150000D02*
X176800000Y-50150000D01*
X174900000Y-52050000D02*
X174900000Y-50150000D01*
X176800000Y-50150000D02*
X176800000Y-52050000D01*
X176800000Y-52050000D02*
X174900000Y-52050000D01*
%TO.C,R3*%
X189197500Y-69192742D02*
X189197500Y-69667258D01*
X190242500Y-69192742D02*
X190242500Y-69667258D01*
%TO.C,U3*%
X168480000Y-78790000D02*
X166530000Y-78790000D01*
X168480000Y-78790000D02*
X170430000Y-78790000D01*
X168480000Y-83910000D02*
X166530000Y-83910000D01*
X168480000Y-83910000D02*
X170430000Y-83910000D01*
X171180000Y-83815000D02*
X171420000Y-84145000D01*
X170940000Y-84145000D01*
X171180000Y-83815000D01*
G36*
X171420000Y-84145000D02*
G01*
X170940000Y-84145000D01*
X171180000Y-83815000D01*
X171420000Y-84145000D01*
G37*
%TO.C,R1*%
X189317500Y-52132742D02*
X189317500Y-52607258D01*
X190362500Y-52132742D02*
X190362500Y-52607258D01*
%TO.C,U2*%
X168110000Y-65855000D02*
X166160000Y-65855000D01*
X168110000Y-65855000D02*
X170060000Y-65855000D01*
X168110000Y-70975000D02*
X166160000Y-70975000D01*
X168110000Y-70975000D02*
X170060000Y-70975000D01*
X170810000Y-70880000D02*
X171050000Y-71210000D01*
X170570000Y-71210000D01*
X170810000Y-70880000D01*
G36*
X171050000Y-71210000D02*
G01*
X170570000Y-71210000D01*
X170810000Y-70880000D01*
X171050000Y-71210000D01*
G37*
%TO.C,U1*%
X167975000Y-50440000D02*
X166025000Y-50440000D01*
X167975000Y-50440000D02*
X169925000Y-50440000D01*
X167975000Y-55560000D02*
X166025000Y-55560000D01*
X167975000Y-55560000D02*
X169925000Y-55560000D01*
X170675000Y-55465000D02*
X170915000Y-55795000D01*
X170435000Y-55795000D01*
X170675000Y-55465000D01*
G36*
X170915000Y-55795000D02*
G01*
X170435000Y-55795000D01*
X170675000Y-55465000D01*
X170915000Y-55795000D01*
G37*
%TO.C,R6*%
X189107500Y-89112742D02*
X189107500Y-89587258D01*
X190152500Y-89112742D02*
X190152500Y-89587258D01*
%TD*%
M02*
